<?xml version="1.0" standalone="no"?>
<!DOCTYPE svg PUBLIC "-//W3C//DTD SVG 20010904//EN"
 "http://www.w3.org/TR/2001/REC-SVG-20010904/DTD/svg10.dtd">
<svg version="1.0" xmlns="http://www.w3.org/2000/svg"
 width="1024.000000pt" height="1536.000000pt" viewBox="0 0 1024.000000 1536.000000"
 preserveAspectRatio="xMidYMid meet">

<g transform="translate(0.000000,1536.000000) scale(0.100000,-0.100000)"
fill="#000000" stroke="none">
<path d="M3531 11182 c-53 -52 -104 -243 -117 -437 -6 -98 8 -306 26 -392 9
-37 6 -49 -29 -125 -74 -158 -102 -288 -96 -453 5 -162 44 -275 141 -411 73
-104 226 -227 367 -295 26 -13 47 -27 47 -31 0 -4 -13 -56 -30 -115 -40 -140
-85 -367 -107 -528 -22 -166 -25 -642 -5 -785 23 -156 58 -332 111 -555 144
-604 168 -972 85 -1340 -12 -57 -23 -78 -54 -110 -115 -118 -103 -294 25 -367
35 -20 56 -23 173 -26 73 -2 148 -1 167 2 l34 7 -20 33 c-11 19 -24 61 -30 94
-14 81 0 148 51 232 30 50 43 89 59 170 44 222 97 620 131 980 11 118 22 230
25 249 13 100 125 92 125 -9 0 -151 -94 -903 -151 -1217 -20 -104 -24 -115
-60 -153 -62 -65 -83 -114 -83 -195 -1 -130 52 -190 182 -207 96 -12 434 -4
485 12 119 36 207 215 193 393 -23 308 -16 417 39 564 57 152 178 302 315 390
84 55 120 63 150 33 40 -40 25 -68 -70 -132 -152 -101 -246 -226 -296 -393
-22 -76 -27 -109 -27 -210 1 -66 6 -140 12 -165 18 -76 14 -210 -10 -286 -23
-74 -53 -139 -76 -165 -13 -15 -8 -17 54 -23 313 -31 989 -31 1213 -1 150 20
290 64 371 117 l60 38 14 -35 c47 -111 -10 -238 -155 -345 -87 -64 -171 -105
-310 -150 -286 -94 -631 -110 -1082 -50 -345 46 -408 46 -505 -4 -90 -45 -133
-118 -133 -228 0 -43 6 -65 33 -108 60 -101 175 -165 394 -219 438 -108 920
-109 1354 -1 606 151 1018 534 1019 946 0 199 -108 428 -290 616 l-75 78 0
228 c0 180 -4 245 -18 317 -90 446 -316 859 -666 1219 -58 60 -198 190 -311
289 -227 199 -339 315 -440 457 -129 181 -192 298 -291 544 l-48 120 81 43
c119 64 195 121 280 211 156 166 227 382 198 604 -14 108 -67 278 -110 354
l-31 53 17 118 c44 313 -17 717 -116 768 -48 25 -84 18 -197 -40 -126 -65
-242 -149 -369 -268 l-91 -86 -94 15 c-204 31 -558 28 -717 -7 l-44 -10 -88
84 c-126 120 -248 209 -374 272 -130 65 -172 71 -215 27z m535 -1181 c61 -37
103 -113 118 -212 9 -61 -7 -74 -88 -73 -130 3 -226 81 -226 184 0 72 49 119
125 120 22 0 54 -8 71 -19z m1299 -11 c38 -36 50 -93 31 -145 -32 -82 -115
-128 -229 -127 -82 1 -89 8 -81 72 10 76 57 165 106 200 38 28 49 31 96 28 37
-3 59 -11 77 -28z m-585 -449 c8 -17 1 -31 -50 -90 -86 -99 -91 -99 -172 -10
-102 111 -96 119 84 119 116 0 128 -2 138 -19z"/>
</g>
</svg>
