<?xml version="1.0" standalone="no"?>
<!DOCTYPE svg PUBLIC "-//W3C//DTD SVG 20010904//EN"
 "http://www.w3.org/TR/2001/REC-SVG-20010904/DTD/svg10.dtd">
<svg version="1.0" xmlns="http://www.w3.org/2000/svg"
 width="1280.000000pt" height="813.000000pt" viewBox="0 0 1280.000000 813.000000"
 preserveAspectRatio="xMidYMid meet">
<metadata>
Created by potrace 1.15, written by Peter Selinger 2001-2017
</metadata>
<g transform="translate(0.000000,813.000000) scale(0.100000,-0.100000)"
fill="#000000" stroke="none">
<path d="M4590 8123 c-490 -47 -887 -183 -1263 -433 -171 -114 -276 -200 -412
-335 -387 -386 -647 -884 -739 -1416 -57 -328 -44 -776 30 -1063 8 -32 13 -60
11 -62 -2 -2 -57 -11 -122 -19 -730 -96 -1372 -519 -1755 -1155 -326 -541
-422 -1205 -265 -1826 188 -738 728 -1355 1435 -1639 968 -389 2074 -112 2745
687 73 86 73 86 92 66 10 -11 61 -56 113 -100 532 -447 1175 -664 1854 -627
666 36 1260 302 1731 774 l120 120 120 -120 c599 -600 1425 -873 2269 -749
1040 152 1915 948 2166 1969 256 1041 -124 2111 -980 2759 -303 228 -687 399
-1069 476 -217 44 -530 61 -728 41 -40 -4 -73 -4 -73 -1 0 3 -7 61 -15 130
-57 483 -327 911 -745 1182 -257 167 -535 260 -859 289 -354 31 -786 -71
-1072 -253 -30 -19 -59 -37 -65 -41 -7 -4 -33 28 -67 86 -248 415 -638 770
-1092 993 -306 150 -599 232 -940 264 -102 9 -343 11 -425 3z"/>
</g>
</svg>
