<?xml version="1.0" standalone="no"?>
<!DOCTYPE svg PUBLIC "-//W3C//DTD SVG 20010904//EN"
 "http://www.w3.org/TR/2001/REC-SVG-20010904/DTD/svg10.dtd">
<svg version="1.0" xmlns="http://www.w3.org/2000/svg"
 width="905.000000pt" height="1280.000000pt" viewBox="0 0 905.000000 1280.000000"
 preserveAspectRatio="xMidYMid meet">
<metadata>
Created by potrace 1.15, written by Peter Selinger 2001-2017
</metadata>
<g transform="translate(0.000000,1280.000000) scale(0.100000,-0.100000)"
fill="#000000" stroke="none">
<path d="M1205 11523 c-52 -7 -94 -35 -109 -74 -9 -21 -24 -39 -38 -44 -13 -4
-115 -10 -228 -14 l-205 -6 195 -7 c107 -4 209 -12 225 -18 17 -6 44 -30 61
-54 34 -45 64 -59 161 -71 89 -12 179 30 197 91 11 36 57 46 239 54 l172 7
-151 1 c-199 3 -250 12 -289 55 -33 37 -138 88 -176 86 -13 -1 -37 -4 -54 -6z"/>
<path d="M583 11383 c9 -2 23 -2 30 0 6 3 -1 5 -18 5 -16 0 -22 -2 -12 -5z"/>
<path d="M4783 11353 c9 -2 23 -2 30 0 6 3 -1 5 -18 5 -16 0 -22 -2 -12 -5z"/>
<path d="M4130 11315 c-47 -14 -132 -36 -190 -50 -61 -15 -143 -45 -195 -71
-49 -24 -102 -44 -117 -44 -53 0 -402 -158 -560 -253 -40 -25 -81 -47 -90 -49
-18 -3 -65 45 -49 50 17 6 13 22 -4 22 -9 0 -18 7 -21 15 -4 8 -16 15 -29 15
-16 0 -22 6 -21 18 1 12 -5 16 -19 14 -11 -2 -22 -8 -23 -13 -2 -5 -8 -7 -12
-4 -5 3 -18 -3 -30 -15 -11 -11 -20 -15 -20 -9 0 7 -10 9 -25 5 -14 -4 -25 -2
-25 3 0 15 -74 88 -96 95 -12 3 -26 18 -33 32 -7 16 -17 24 -26 20 -8 -3 -18
1 -22 8 -9 16 -46 36 -75 41 -13 3 -27 -3 -35 -15 -22 -31 -32 -24 -26 18 4
30 1 39 -16 50 -12 7 -21 8 -21 3 0 -5 -9 -7 -20 -4 -11 3 -20 1 -20 -5 0 -11
-36 -23 -44 -15 -3 3 -22 7 -43 8 -32 3 -97 12 -121 17 -4 1 -18 -2 -32 -5
-14 -4 -36 -9 -50 -11 -15 -2 -24 -9 -21 -17 1 -8 4 -23 5 -34 2 -11 6 -29 10
-41 6 -21 2 -23 -46 -25 -9 0 -23 -10 -32 -22 -39 -53 -48 -63 -42 -44 3 9 1
17 -4 17 -5 0 -12 -9 -15 -20 -3 -11 -13 -20 -21 -20 -8 0 -14 -4 -14 -9 0 -5
-3 -16 -6 -24 -7 -19 43 -11 69 11 13 12 20 13 29 4 9 -9 9 -12 1 -12 -7 0
-14 -9 -18 -19 -3 -10 -13 -21 -23 -23 -26 -7 -82 11 -79 25 1 6 -4 11 -10 9
-7 -1 -13 3 -13 10 0 6 -11 -2 -25 -18 -30 -35 -29 -56 5 -65 14 -4 19 -7 12
-8 -9 -1 -11 -8 -7 -20 4 -14 0 -23 -15 -31 -14 -8 -20 -8 -20 0 0 6 -7 4 -17
-5 -14 -14 -14 -18 -2 -26 12 -7 12 -9 0 -9 -8 0 -20 8 -27 18 -12 16 -13 16
-19 -1 -7 -16 -8 -16 -24 2 -18 20 -35 22 -59 7 -9 -5 -23 0 -39 15 -19 18
-25 19 -20 7 8 -22 -23 -29 -45 -10 -10 8 -18 11 -18 6 0 -10 -17 -13 -92 -17
-26 -1 -50 -6 -54 -10 -4 -4 -17 -1 -30 7 -21 15 -22 14 -14 -21 9 -39 4 -62
-18 -79 -13 -9 -12 -12 7 -17 15 -3 19 -10 15 -22 -4 -9 -13 -14 -21 -11 -8 3
-11 1 -8 -4 8 -13 -1 -13 -26 1 -14 7 -29 7 -49 0 -30 -10 -51 1 -29 15 8 5 1
16 -21 34 -28 23 -31 29 -22 47 10 17 6 28 -21 64 -17 24 -32 47 -32 51 0 3
-3 10 -7 13 -4 4 -3 16 3 26 11 22 0 25 -20 7 -11 -11 -12 -10 -6 1 6 10 3 12
-12 7 -20 -7 -68 28 -58 43 8 14 -23 33 -43 27 -11 -4 -24 0 -32 9 -13 15 -42
20 -53 9 -11 -11 13 -45 39 -54 32 -13 31 -46 -2 -63 -17 -9 -23 -17 -15 -21
6 -4 11 -11 11 -17 0 -15 -24 -5 -36 15 -11 19 -54 30 -54 14 0 -4 -7 -8 -15
-8 -8 0 -15 5 -15 10 0 6 -4 10 -10 10 -5 0 -10 -6 -10 -13 0 -7 -16 -21 -35
-30 -19 -9 -35 -23 -35 -32 0 -9 -9 -15 -25 -15 -22 0 -42 -16 -93 -75 -7 -9
-10 -24 -7 -35 4 -14 1 -22 -10 -26 -10 -4 -15 -14 -12 -25 3 -10 -2 -24 -10
-31 -19 -15 -53 -21 -53 -8 0 5 -8 7 -17 3 -29 -10 -63 -50 -69 -82 -5 -23 -2
-30 15 -36 11 -3 26 -3 32 1 8 4 9 -1 3 -17 -4 -13 -7 -33 -6 -44 1 -11 -4
-23 -11 -28 -8 -6 -6 -7 6 -3 13 4 17 -1 17 -24 0 -16 -5 -32 -12 -36 -7 -5
-8 -3 -3 6 5 8 4 11 -3 6 -6 -3 -15 2 -21 11 -6 10 -11 13 -11 7 0 -5 5 -15
11 -21 8 -8 8 -17 -1 -33 -15 -27 -6 -37 17 -19 16 12 17 12 6 -2 -7 -8 -16
-26 -22 -40 l-9 -24 -11 28 c-6 16 -16 27 -23 25 -22 -8 -19 -26 7 -54 18 -19
25 -36 22 -51 -6 -30 9 -39 29 -19 24 25 52 19 87 -16 18 -18 43 -41 55 -50
14 -12 19 -24 15 -35 -5 -15 -3 -16 7 -6 11 10 16 9 24 -3 6 -8 21 -16 33 -16
12 -1 19 -7 16 -14 -2 -7 0 -15 6 -19 6 -3 11 -11 11 -16 0 -6 -4 -7 -10 -4
-9 6 -14 -8 -11 -27 3 -18 -17 -6 -27 17 -7 14 -20 25 -31 25 -25 0 -19 -21
16 -56 23 -23 26 -24 54 -10 16 8 27 11 24 6 -3 -5 -1 -19 6 -31 8 -15 8 -19
0 -15 -6 4 -11 2 -11 -3 0 -13 1 -13 54 -15 22 -1 41 -7 44 -14 2 -7 0 -12 -5
-11 -4 1 -16 -1 -27 -6 -12 -5 -21 -3 -27 6 -5 8 -9 10 -10 4 -3 -24 -6 -31
-19 -57 -7 -16 -16 -28 -20 -28 -4 0 -10 -8 -12 -18 -4 -15 0 -18 31 -15 19 1
41 5 48 7 7 3 24 1 38 -4 16 -6 25 -6 25 0 0 5 11 12 25 16 14 3 25 12 25 19
0 7 11 15 25 17 21 4 23 2 15 -13 -7 -12 -6 -19 3 -22 9 -4 9 -8 -2 -15 -12
-9 -12 -13 -2 -26 11 -13 8 -18 -17 -33 -22 -14 -27 -23 -22 -38 6 -18 7 -18
16 -2 6 10 24 19 41 20 18 1 29 7 26 13 -2 7 1 15 6 19 6 3 9 11 6 16 -9 13 9
11 23 -3 7 -7 12 -8 12 -2 0 5 4 2 10 -6 18 -28 23 1 7 35 -19 41 -21 49 -8
40 5 -3 13 5 17 17 4 13 2 24 -5 26 -6 2 -11 8 -11 14 0 14 26 38 34 31 3 -4
6 -1 6 5 0 5 -6 13 -12 16 -7 3 -3 3 9 0 40 -10 60 10 62 63 1 51 16 77 30 54
7 -11 10 -11 17 1 5 8 17 18 27 21 10 4 16 11 12 16 -3 5 3 12 14 16 11 3 22
13 25 21 4 12 10 13 26 4 16 -9 20 -8 20 5 0 17 16 20 25 5 4 -6 11 -8 16 -4
5 3 6 10 3 16 -9 14 36 -1 54 -18 9 -10 19 -11 31 -4 10 5 21 6 25 3 3 -3 6
-1 6 5 0 7 -7 12 -15 12 -8 0 -15 5 -15 10 0 6 5 9 11 8 18 -5 21 18 4 35 -22
22 -20 24 32 26 44 1 68 15 57 33 -3 5 -11 5 -17 2 -8 -5 -8 -3 1 7 19 21 14
30 -13 23 -18 -5 -25 -2 -25 9 0 8 -18 24 -40 36 -29 15 -38 17 -33 6 3 -9 -1
-15 -10 -15 -17 0 -30 27 -20 42 3 7 1 8 -5 4 -20 -12 -13 10 9 30 20 18 21
37 4 76 -5 12 3 26 26 47 26 25 30 31 17 36 -19 8 -20 71 -1 68 7 -2 10 3 7
11 -3 8 -1 17 5 21 6 3 11 1 11 -4 0 -6 6 -11 14 -11 7 0 20 -7 27 -17 13 -15
11 -16 -12 -10 -23 6 -26 4 -27 -23 0 -17 5 -30 11 -30 7 0 19 -5 27 -10 13
-9 13 -11 0 -20 -13 -8 -12 -11 7 -16 12 -3 24 -17 27 -30 7 -28 22 -31 46 -9
16 15 18 14 22 -10 5 -23 -4 -31 -34 -26 -4 0 -5 -6 -2 -14 4 -8 -1 -17 -10
-21 -21 -8 -20 -24 1 -24 14 0 13 -3 -5 -16 -27 -19 -52 -12 -59 16 -4 15 -14
20 -36 20 -31 0 -31 0 17 -30 32 -21 46 -36 42 -45 -3 -8 -1 -15 4 -15 6 0 10
4 10 9 0 5 10 11 21 14 19 5 21 3 16 -28 -5 -33 -5 -33 13 -15 12 12 26 16 40
13 11 -3 20 -2 19 3 -7 40 16 45 33 8 10 -22 10 -28 -3 -38 -9 -6 -16 -19 -17
-28 -1 -10 -3 -25 -4 -33 -1 -8 -8 -15 -15 -15 -8 0 -11 -4 -8 -10 3 -5 3 -15
-1 -21 -4 -8 -9 -7 -15 2 -6 10 -9 5 -9 -16 0 -22 3 -26 12 -17 18 18 38 15
31 -5 -6 -16 -5 -17 12 -3 11 9 16 10 11 3 -10 -18 -2 -16 41 7 34 18 38 18
55 3 10 -9 18 -22 18 -28 0 -16 25 -26 74 -30 29 -3 48 -12 68 -34 17 -18 39
-31 52 -31 19 0 25 -7 30 -35 4 -19 18 -43 33 -55 29 -23 35 -21 39 13 1 12 3
23 3 25 1 1 7 -3 15 -10 7 -7 11 -19 9 -25 -3 -8 3 -13 16 -13 13 0 21 6 21
16 0 14 2 15 17 3 9 -8 25 -13 36 -11 12 2 17 -1 13 -7 -4 -6 -3 -11 3 -11 6
0 17 -13 26 -30 15 -30 15 -30 -12 -30 -17 0 -24 -3 -17 -10 11 -11 84 -1 84
12 0 4 -11 13 -25 18 -14 5 -25 13 -25 18 0 17 13 21 31 11 36 -19 98 -22 124
-5 13 8 25 12 27 7 2 -4 21 -10 43 -14 22 -3 34 -3 27 0 -10 4 -10 9 3 23 18
20 45 16 45 -6 0 -8 -6 -11 -16 -7 -12 4 -15 2 -12 -8 6 -17 39 -13 54 7 6 8
9 25 7 38 -7 32 10 39 35 16 12 -11 26 -20 32 -20 5 0 10 -4 10 -10 0 -5 8
-10 17 -10 9 0 13 -3 10 -7 -14 -13 27 -31 54 -23 22 7 26 5 24 -8 -2 -10 -4
-19 -4 -22 -1 -3 -5 1 -9 8 -5 8 -8 -1 -8 -23 1 -19 4 -35 9 -35 4 0 7 5 7 11
0 8 4 8 13 2 19 -15 79 -15 89 -1 6 10 8 9 8 -3 0 -16 4 -16 86 -11 17 1 23 6
18 14 -5 7 4 3 18 -8 17 -13 39 -20 60 -19 18 1 36 -2 39 -7 8 -12 74 -27 86
-19 16 10 -5 71 -24 71 -13 0 -14 3 -5 12 9 9 19 7 43 -11 21 -16 34 -19 42
-12 11 8 93 10 122 1 24 -6 35 3 46 40 7 22 17 40 23 39 19 -2 31 1 49 15 14
11 16 19 7 40 -8 21 -6 33 6 51 10 16 12 25 5 26 -6 1 -15 2 -21 3 -5 0 -17
12 -27 25 -15 23 -17 23 -23 5 -6 -17 -8 -17 -19 5 -8 13 -9 21 -2 17 5 -4 19
-1 30 6 26 16 10 48 -25 48 -18 0 -28 7 -32 22 -5 20 -8 17 -28 -25 l-22 -48
-22 35 c-12 20 -19 40 -15 46 3 5 2 10 -3 10 -18 0 -22 31 -7 53 19 27 56 33
72 11 11 -14 15 -15 29 -4 14 13 14 15 -2 27 -10 7 -27 11 -38 7 -12 -3 -16
-2 -11 3 6 4 11 42 12 83 1 67 -1 75 -20 85 -28 14 -36 46 -10 41 16 -3 18 3
18 50 0 45 -3 54 -17 54 -10 0 -18 5 -18 10 0 6 -8 10 -18 10 -14 0 -19 8 -20
29 0 16 -8 41 -17 55 -14 21 -15 29 -5 41 10 12 10 15 -1 15 -14 0 17 26 36
30 6 1 16 7 23 13 14 11 20 12 119 21 39 3 87 16 128 35 36 17 91 38 123 47
31 9 84 28 117 41 46 20 71 24 113 21 30 -3 57 -11 62 -18 8 -14 14 -153 30
-735 6 -203 15 -530 20 -725 8 -302 13 -553 11 -636 -1 -20 -3 -21 -68 -8 -38
7 -129 20 -203 29 -74 9 -166 21 -205 26 -129 19 -245 22 -304 9 -31 -7 -97
-33 -148 -57 -50 -23 -96 -43 -103 -43 -20 0 -205 -72 -208 -81 -2 -5 -8 -9
-13 -9 -13 0 -116 -76 -149 -110 -14 -14 -47 -43 -75 -65 -27 -22 -57 -46 -65
-54 -40 -39 -167 -112 -228 -131 -37 -12 -76 -25 -87 -30 -43 -19 -142 -50
-158 -50 -9 0 -45 -16 -79 -35 -35 -20 -124 -65 -198 -101 -173 -84 -283 -157
-384 -254 -111 -106 -138 -130 -146 -130 -15 0 -50 -71 -50 -100 0 -33 32 -60
95 -80 22 -7 49 -19 61 -26 11 -8 56 -23 100 -34 75 -20 97 -21 409 -15 182 3
337 8 345 10 8 2 74 11 145 20 72 9 177 25 235 36 58 11 134 24 170 29 36 5
113 16 171 24 230 34 499 36 1007 11 177 -9 195 -27 127 -129 -50 -75 -65
-118 -65 -181 0 -73 -14 -98 -100 -175 -40 -36 -81 -75 -93 -87 -24 -27 -44
-29 -67 -8 -15 14 -17 12 -16 -27 1 -24 5 -46 10 -50 14 -10 -13 -65 -35 -71
-20 -5 -27 -27 -8 -27 5 0 7 -5 4 -11 -7 -11 25 -40 36 -33 11 6 98 -92 104
-118 4 -16 16 -29 30 -32 12 -3 36 -20 51 -38 16 -18 32 -33 35 -33 12 0 75
-48 92 -71 16 -21 16 -26 3 -53 -9 -16 -22 -31 -31 -35 -9 -3 -14 -2 -11 3 3
5 -4 8 -17 7 -28 -1 -32 -36 -4 -36 10 0 15 -4 12 -10 -8 -13 -2 -13 29 1 14
7 23 16 20 20 -3 5 0 9 5 9 6 0 11 7 11 15 0 13 4 13 22 3 48 -27 61 -62 28
-73 -11 -3 -20 -11 -20 -16 0 -6 -11 -20 -25 -33 -29 -27 -31 -36 -10 -36 8 0
15 -5 15 -11 0 -6 -9 -8 -20 -4 -28 9 -44 -3 -29 -21 6 -8 7 -14 2 -14 -12 0
-4 -58 8 -66 5 -3 16 -1 25 4 11 6 13 11 5 16 -6 4 -11 12 -11 18 0 19 28 -11
34 -37 4 -14 13 -25 21 -25 8 0 15 -6 15 -14 0 -8 5 -16 10 -18 7 -2 13 -70
17 -176 6 -162 5 -173 -13 -187 -18 -14 -18 -16 -1 -29 22 -17 25 -136 3 -136
-25 0 -36 -27 -48 -116 -10 -85 -20 -114 -39 -114 -5 0 -9 9 -9 21 0 11 -4 17
-10 14 -5 -3 -10 0 -11 7 0 7 -2 21 -4 31 -2 9 5 22 16 27 10 6 19 17 19 25 0
18 -37 38 -56 31 -19 -7 -70 43 -78 77 -4 18 -13 27 -26 27 -11 0 -20 -4 -20
-9 0 -15 -51 -20 -57 -5 -3 8 -11 14 -18 14 -10 0 -12 14 -9 58 l5 57 -17 -30
c-9 -16 -22 -33 -28 -37 -6 -4 -7 -10 -4 -14 14 -13 -20 -33 -60 -35 -41 -3
-88 19 -98 46 -3 7 -1 30 5 52 10 39 5 36 -25 -13 -10 -17 -12 -17 -39 4 -29
23 -51 29 -39 11 4 -8 0 -7 -15 1 -12 6 -19 14 -17 18 4 7 -23 12 -71 15 -7 0
-13 4 -13 8 0 4 -22 15 -50 24 -45 15 -51 15 -66 1 -17 -17 -34 -21 -34 -8 0
5 -13 8 -30 7 -19 -1 -30 3 -30 11 0 8 -6 11 -17 7 -11 -4 -14 -3 -9 5 4 7 -2
21 -12 32 -17 19 -20 19 -26 5 -3 -9 -4 -21 0 -26 3 -5 -7 -4 -22 1 -20 8 -29
8 -34 -1 -4 -6 -23 -12 -41 -14 -19 -2 -37 -3 -41 -4 -4 -1 -12 -11 -19 -22
-8 -15 -8 -19 0 -15 6 4 11 4 12 -1 0 -4 2 -17 4 -27 2 -11 2 -23 -1 -27 -5
-9 -34 0 -31 9 2 8 -7 12 -29 12 -9 0 -14 -7 -12 -17 2 -11 12 -17 23 -16 11
1 14 0 8 -3 -7 -3 -13 -12 -13 -20 0 -8 -15 -21 -33 -30 -19 -9 -42 -31 -51
-49 -10 -18 -29 -38 -43 -44 -13 -6 -22 -7 -18 -2 3 5 0 13 -7 17 -20 13 -48
12 -48 -1 0 -7 -10 -19 -22 -27 -14 -9 -19 -19 -13 -28 6 -10 11 -10 21 4 6 9
15 13 18 8 6 -10 -39 -53 -48 -45 -3 3 -11 -6 -17 -21 -7 -14 -16 -26 -20 -26
-17 0 -39 13 -34 20 2 4 -7 8 -21 8 -16 0 -35 10 -48 25 -20 24 -24 25 -38 11
-13 -13 -19 -14 -36 -3 -17 11 -23 10 -38 -1 -19 -17 -134 -24 -134 -10 0 6
-11 10 -25 10 -22 0 -25 -4 -21 -25 4 -21 1 -25 -18 -25 -13 0 -28 6 -34 13
-14 17 -9 64 8 80 8 7 11 8 7 1 -4 -7 3 -11 18 -11 l25 0 -27 22 c-25 22 -27
23 -49 7 -12 -9 -20 -20 -18 -24 2 -4 0 -9 -6 -13 -6 -4 -7 -11 -4 -17 4 -6 1
-9 -7 -6 -8 3 -13 16 -12 33 2 19 -4 33 -17 42 -11 8 -20 21 -20 28 0 11 -8
13 -32 8 -28 -6 -31 -4 -23 13 11 27 14 135 4 162 -5 12 -15 22 -24 22 -8 0
-15 6 -15 13 0 7 -15 26 -34 41 -19 15 -36 37 -38 49 -2 17 -9 21 -30 19 -16
-1 -28 1 -28 5 0 4 -9 19 -19 33 -16 19 -22 22 -34 12 -15 -12 -64 -11 -85 2
-7 4 -16 5 -21 1 -5 -3 -16 4 -23 14 -11 16 -24 20 -58 18 -36 -2 -45 1 -48
17 -2 10 2 23 9 30 9 8 10 8 4 -3 -6 -11 -3 -13 13 -9 12 3 23 1 25 -6 3 -6 4
1 3 17 -1 17 -6 25 -13 23 -7 -3 -15 -1 -18 4 -6 10 -52 -3 -47 -14 1 -4 -4
-14 -13 -23 -13 -12 -21 -13 -41 -5 -13 7 -24 16 -24 22 0 6 -9 20 -19 32 -11
11 -17 26 -14 34 3 8 -1 14 -11 14 -9 0 -16 -4 -16 -10 0 -5 -5 -10 -11 -10
-5 0 -8 4 -5 9 3 4 -6 6 -20 3 -17 -3 -30 2 -40 14 -14 18 -15 18 -9 -3 5 -20
2 -23 -19 -23 -14 0 -26 -3 -26 -7 0 -12 -74 -45 -104 -46 -14 -1 -26 -8 -26
-15 0 -9 -7 -11 -19 -7 -11 3 -25 -1 -34 -10 -9 -8 -27 -15 -41 -15 -51 0 -90
-51 -111 -144 -6 -28 -6 -28 -26 -10 -16 15 -22 16 -28 5 -5 -7 -6 -22 -3 -34
3 -13 1 -18 -6 -13 -6 3 -16 -2 -22 -13 -7 -13 -7 -22 0 -26 5 -3 10 -13 10
-22 0 -9 -3 -13 -6 -10 -4 3 -15 2 -26 -4 -17 -9 -17 -12 -3 -32 8 -12 15 -29
15 -39 0 -14 -4 -16 -22 -9 -13 5 -22 14 -20 21 1 7 -2 18 -8 25 -6 7 -8 19
-4 28 3 8 0 18 -6 22 -6 4 -8 15 -5 25 3 10 2 21 -3 24 -13 8 -34 -68 -34
-120 0 -53 8 -68 26 -51 8 6 12 15 10 19 -2 3 5 4 16 1 10 -3 18 -10 17 -15
-2 -13 51 -30 74 -24 12 2 15 -2 12 -15 -7 -24 -34 -32 -67 -19 -35 13 -86 13
-86 0 0 -6 -11 -8 -25 -4 -17 4 -25 2 -25 -7 0 -7 -3 -9 -7 -6 -3 4 -12 -1
-20 -11 -8 -9 -12 -11 -8 -4 4 7 0 12 -9 12 -9 0 -16 -5 -16 -11 0 -14 -24 11
-33 34 -13 34 -36 31 -72 -9 -19 -22 -34 -45 -35 -52 0 -6 -5 -11 -12 -10 -7
2 -15 -15 -18 -41 -4 -25 -12 -47 -18 -49 -7 -2 -12 -10 -12 -17 0 -7 -7 -15
-15 -19 -8 -3 -15 -9 -14 -13 1 -4 1 -16 0 -25 -1 -20 -31 -25 -31 -5 0 8 -4
7 -10 -3 -14 -21 -12 -30 4 -30 8 0 24 -9 37 -21 l24 -20 -25 7 -25 7 25 -21
c14 -12 19 -21 13 -22 -7 0 -13 -7 -13 -15 0 -8 -4 -15 -10 -15 -5 0 -10 -6
-10 -14 0 -19 -46 -66 -65 -66 -9 0 -20 10 -25 23 -7 17 -9 18 -9 5 -1 -10 -5
-18 -10 -18 -5 0 -11 -7 -14 -14 -4 -10 -1 -13 9 -9 10 4 12 0 8 -13 -4 -11
-11 -24 -16 -30 -4 -6 -5 -19 -2 -28 4 -11 0 -22 -11 -30 -12 -8 -16 -21 -12
-34 3 -12 1 -24 -4 -27 -4 -3 -6 -11 -3 -19 3 -7 0 -25 -5 -39 -6 -15 -7 -27
-2 -27 20 0 41 13 41 25 0 7 6 15 14 18 10 4 16 -2 18 -21 3 -26 6 -27 60 -27
31 0 54 -3 51 -8 -2 -4 2 -10 10 -12 9 -4 12 -16 9 -35 -3 -21 1 -32 11 -36 9
-3 14 -13 10 -22 -4 -14 -3 -15 5 -2 6 8 9 17 6 21 -5 9 9 19 36 24 14 3 20
-2 20 -15 0 -10 10 -26 22 -34 22 -15 22 -17 6 -44 -18 -31 -9 -52 22 -52 16
1 51 24 47 31 -1 3 5 -2 13 -11 8 -8 27 -14 43 -12 17 2 29 -2 33 -12 3 -9 11
-13 18 -9 6 4 16 8 21 8 6 0 9 15 7 32 -2 21 3 42 15 56 19 25 43 25 43 0 0
-9 6 -13 15 -9 51 21 51 21 37 3 -12 -14 -11 -16 7 -14 12 1 21 5 21 9 0 4 7
8 15 8 8 0 15 4 15 10 0 6 9 6 25 0 15 -6 26 -6 30 0 4 6 0 12 -7 14 -7 3 -30
10 -51 16 -26 8 -37 16 -33 26 3 9 -1 14 -13 14 -11 0 -21 -5 -23 -11 -4 -13
-68 -3 -68 11 0 4 9 6 20 3 23 -6 27 12 5 21 -15 5 -22 36 -8 36 4 0 18 -10
31 -23 l25 -22 -6 23 c-4 18 -3 21 7 13 7 -6 16 -8 19 -5 4 4 4 -3 2 -16 -4
-22 -4 -21 21 4 16 15 49 30 87 40 42 9 52 15 33 15 -33 1 -30 9 5 16 22 4 49
16 122 51 16 8 38 14 50 14 29 0 139 31 156 44 12 9 12 8 3 -11 -7 -12 -19
-26 -28 -31 -20 -11 -10 -30 33 -67 35 -28 36 -29 50 -10 15 19 15 19 11 -7
-5 -24 -2 -28 18 -28 12 0 26 -4 29 -10 3 -5 13 -10 21 -10 9 0 23 -7 31 -16
15 -14 17 -14 25 0 13 24 31 20 18 -3 -14 -27 -13 -31 10 -31 11 0 20 4 20 10
0 5 7 7 15 4 17 -7 21 11 5 21 -5 3 -10 11 -10 17 0 7 5 6 15 -2 8 -6 18 -9
22 -7 5 3 10 -9 12 -26 2 -18 4 -43 5 -57 2 -14 4 -37 4 -51 1 -14 11 -36 22
-49 11 -13 20 -29 20 -35 0 -19 32 -28 42 -13 6 8 7 1 4 -20 -7 -55 -74 -106
-90 -69 -3 6 -3 -1 1 -18 7 -37 10 -40 55 -55 40 -12 58 -8 58 16 0 17 -17 19
-23 2 -2 -7 -7 -10 -11 -6 -9 8 11 48 24 48 6 0 19 -9 30 -20 11 -11 20 -15
20 -8 0 6 8 3 20 -7 11 -10 17 -22 14 -26 -3 -5 2 -6 10 -3 22 8 20 21 -4 29
-11 4 -18 10 -15 14 6 10 58 1 66 -11 3 -5 12 -2 19 7 10 12 10 15 -1 15 -10
1 -8 4 4 11 9 5 17 17 17 24 0 8 4 15 9 15 5 0 11 10 15 23 5 19 8 20 17 7 8
-11 12 -12 16 -2 2 6 15 12 28 12 12 0 25 7 29 15 3 8 16 15 29 15 14 0 30 7
37 15 10 12 16 13 28 3 13 -10 14 -10 8 0 -4 7 -2 12 6 13 7 0 22 2 33 4 11 2
27 -3 36 -11 9 -8 23 -12 32 -9 8 4 18 2 22 -4 3 -6 15 -11 26 -11 10 0 29 -6
40 -13 17 -10 23 -9 26 1 3 6 9 10 14 6 5 -3 9 0 9 5 0 6 11 11 24 11 13 0 35
9 49 20 28 22 42 26 31 9 -4 -8 4 -9 27 -4 59 11 69 16 69 30 0 7 9 15 20 18
26 7 39 -17 35 -64 l-4 -35 41 1 c33 1 48 -5 73 -29 17 -17 30 -34 28 -38 -2
-4 1 -9 7 -13 5 -3 10 -17 10 -30 0 -13 5 -27 11 -31 6 -3 19 -26 29 -50 11
-24 24 -44 29 -44 6 0 22 -11 37 -25 15 -14 33 -25 41 -25 8 0 11 -5 8 -10 -4
-6 7 -10 25 -10 17 0 29 -4 26 -9 -3 -4 7 -8 22 -8 55 0 84 -8 93 -25 6 -10 7
-23 3 -29 -3 -6 2 -9 12 -7 12 2 23 -6 29 -20 5 -12 16 -20 23 -17 7 2 15 -2
18 -10 4 -8 15 -15 25 -15 10 0 19 -4 19 -10 0 -5 11 -10 25 -10 19 0 25 -5
25 -21 0 -13 8 -23 21 -26 27 -7 23 -50 -5 -45 -16 3 -35 -12 -36 -28 0 -3 23
-29 50 -59 28 -30 50 -50 50 -46 0 5 11 -2 25 -15 14 -13 25 -28 25 -34 0 -14
69 -61 77 -52 3 3 15 -1 25 -11 10 -9 18 -13 18 -8 0 4 7 1 17 -6 9 -8 18 -13
20 -11 3 2 4 -4 2 -10 -8 -30 -6 -54 6 -68 9 -9 13 -25 9 -34 -4 -11 -1 -16
10 -16 9 0 13 6 10 14 -7 17 32 59 46 51 6 -4 10 -18 10 -32 0 -21 2 -24 15
-13 8 7 15 18 15 25 0 7 7 15 15 18 8 4 12 15 10 27 -3 16 0 20 10 16 8 -3 20
3 27 12 7 9 26 18 42 19 16 1 36 9 46 18 21 19 30 19 30 0 0 -10 7 -15 18 -13
13 2 18 -5 20 -32 5 -48 -15 -110 -34 -110 -10 0 -14 -6 -10 -15 3 -8 1 -26
-4 -40 -10 -27 -2 -33 18 -13 9 9 12 5 12 -18 1 -25 2 -27 11 -11 7 11 7 22 1
30 -14 18 -11 49 5 43 7 -3 13 -1 13 4 0 6 -4 10 -9 10 -5 0 -6 15 -1 34 11
51 18 58 42 43 17 -10 22 -9 26 2 9 27 55 63 63 50 4 -7 16 -10 27 -7 18 5 19
1 15 -43 -4 -43 -2 -50 16 -57 21 -7 21 -8 -4 -35 -14 -15 -21 -27 -15 -27 5
0 10 -7 10 -16 0 -37 37 32 38 71 1 26 8 45 21 55 31 25 45 59 30 76 -10 13
-10 17 0 24 11 6 7 13 -12 30 -21 19 -26 30 -22 57 3 24 0 33 -10 33 -8 0 -15
5 -15 10 0 19 24 37 43 32 11 -3 17 0 15 9 -2 7 7 18 20 24 12 5 22 16 22 23
0 7 -5 10 -11 6 -7 -4 -9 0 -5 13 4 14 -3 29 -24 52 -17 17 -28 36 -25 41 8
13 -5 60 -17 60 -6 0 -7 -8 -4 -17 5 -15 3 -14 -10 2 -27 35 -33 51 -24 65 5
8 5 19 1 25 -15 19 -20 56 -8 52 7 -2 22 0 34 4 17 6 26 3 38 -14 15 -21 15
-21 15 -1 0 11 6 26 13 33 10 11 9 13 -5 8 -12 -4 -15 -2 -11 9 3 7 0 14 -7
14 -7 0 -10 7 -6 15 3 9 0 15 -8 15 -24 0 -23 20 2 74 41 86 71 109 157 120
56 7 143 31 164 45 18 12 7 86 -19 126 -15 23 -17 32 -7 44 10 12 9 13 -1 7
-7 -4 -19 -2 -27 4 -8 7 -15 10 -15 6 0 -3 -22 3 -49 13 -28 10 -52 16 -55 13
-10 -9 -7 11 14 118 11 56 20 128 20 161 l0 60 210 -2 c115 -1 213 -5 218 -8
5 -3 18 -35 30 -71 11 -36 34 -103 51 -150 17 -47 31 -105 31 -130 0 -47 35
-135 63 -158 9 -8 23 -36 32 -63 21 -61 53 -86 93 -71 15 5 46 15 69 22 23 7
44 19 47 27 8 20 -19 69 -71 128 -71 81 -91 152 -95 328 l-3 147 74 0 c73 0
73 0 67 -24 -4 -18 -1 -29 15 -40 32 -22 59 -1 58 44 0 19 5 99 12 176 7 78 9
149 6 158 -4 10 -18 16 -38 16 l-32 0 7 233 c4 127 9 242 12 253 5 20 9 21 46
11 26 -6 42 -6 47 0 13 20 38 21 49 2 9 -13 24 -19 51 -19 22 0 42 -6 45 -12
4 -7 4 -3 2 10 -2 12 -1 22 3 22 3 0 11 10 16 22 6 11 21 28 35 37 13 9 21 11
17 4 -5 -7 0 -9 13 -6 11 3 20 11 20 18 0 8 16 19 36 25 22 7 39 21 44 36 5
13 17 24 26 24 10 0 14 5 10 15 -3 8 0 15 7 15 7 0 18 9 25 20 7 11 21 20 32
20 14 0 20 7 20 21 0 11 7 33 16 49 10 15 14 35 10 45 -6 16 -8 16 -24 2 -9
-8 -26 -17 -37 -20 -16 -4 -17 -5 -2 -6 20 -1 21 -5 6 -32 -5 -11 -14 -17 -20
-14 -16 11 -42 -24 -36 -50 3 -20 0 -25 -15 -25 -20 0 -48 22 -48 38 0 5 7 15
15 22 12 10 15 10 15 0 0 -8 2 -11 4 -9 3 3 1 22 -4 44 -7 31 -6 43 7 57 8 9
20 16 25 15 6 -1 12 18 15 43 2 25 9 48 15 51 6 4 8 15 4 24 -6 17 -7 17 -25
0 -20 -17 -24 -4 -8 23 5 6 4 12 -2 12 -7 0 -6 10 0 30 7 18 18 30 29 30 24 0
33 37 12 50 -15 8 -15 9 3 10 11 0 27 8 34 18 12 17 16 17 46 4 18 -9 38 -26
44 -39 6 -13 22 -28 35 -35 26 -11 43 -38 25 -38 -6 0 -7 -4 -4 -10 10 -16 25
-12 25 7 0 14 2 14 20 -2 11 -10 22 -16 24 -14 13 13 3 109 -11 109 -2 0 -14
-9 -26 -20 -12 -12 -23 -16 -25 -11 -2 5 -10 7 -19 4 -12 -5 -14 -3 -8 7 4 7
8 26 7 41 0 16 4 29 9 29 5 0 9 5 9 11 0 5 -6 7 -12 3 -7 -4 -6 1 3 10 14 15
23 16 53 8 21 -6 36 -7 36 -1 0 5 8 9 17 9 15 0 14 2 -3 14 -19 14 -19 15 4
36 12 11 22 25 22 30 0 6 12 10 26 10 14 0 23 3 20 8 -7 11 20 43 34 40 7 -2
15 3 17 10 4 11 -15 16 -54 15 -7 -1 -13 3 -13 7 0 4 -9 10 -21 13 -15 4 -19
2 -15 -9 7 -19 -9 -18 -30 3 -12 12 -19 14 -21 6 -3 -7 -11 -9 -19 -6 -20 7
-18 -14 3 -25 16 -9 16 -11 0 -36 -9 -14 -17 -32 -17 -40 0 -7 -7 -17 -16 -20
-28 -11 -36 -6 -20 10 18 18 20 33 6 54 -6 10 -10 11 -10 3 0 -7 -7 -13 -16
-13 -10 0 -12 5 -7 13 4 6 8 18 9 25 2 11 0 11 -13 0 -14 -12 -15 -11 -5 9 14
25 15 33 5 32 -5 -1 -17 -1 -28 0 -14 1 -16 4 -8 9 14 9 6 82 -9 82 -5 0 -6 5
-2 11 4 8 9 7 15 -2 4 -7 11 -10 15 -6 4 4 -2 14 -14 23 -23 16 -30 44 -11 44
14 0 -11 24 -33 33 -25 9 -22 35 5 40 12 2 8 4 -9 3 -22 -1 -30 2 -27 11 4 9
-1 11 -13 7 -15 -5 -16 -4 -4 4 10 8 18 8 27 1 19 -17 36 0 18 17 -19 19 -19
33 -1 40 14 5 10 54 -5 54 -15 0 -6 63 14 100 11 19 32 50 48 68 28 32 48 70
75 141 15 41 2 72 -79 185 -74 103 -163 186 -243 227 -38 20 -91 49 -119 64
-27 15 -81 43 -120 63 -38 21 -72 40 -75 43 -3 3 -13 8 -22 12 -11 4 -19 23
-24 53 -8 53 5 2200 15 2424 7 169 -3 162 128 98 80 -39 130 -73 126 -87 -1
-4 17 -20 40 -34 23 -15 59 -42 79 -61 20 -19 39 -31 42 -28 3 3 6 0 6 -6 0
-7 10 -12 21 -12 27 0 100 -21 116 -33 7 -5 10 -14 6 -20 -3 -5 -2 -7 4 -4 21
13 88 -16 125 -54 21 -21 45 -39 53 -39 8 0 15 -3 15 -8 0 -4 18 -15 40 -24
37 -17 39 -20 36 -56 -4 -45 -26 -102 -41 -103 -5 -1 -22 0 -37 1 -19 1 -28
-3 -28 -14 0 -12 9 -14 49 -9 34 4 51 2 56 -7 5 -8 4 -11 -1 -7 -6 3 -15 -3
-22 -13 -9 -15 -8 -23 7 -42 10 -13 20 -32 23 -43 2 -13 11 -19 25 -18 15 2
20 -2 18 -15 -2 -9 -4 -21 -4 -26 -1 -6 -8 -1 -17 10 -8 10 -13 14 -10 7 4 -6
-4 -21 -16 -33 l-23 -21 23 -6 c25 -6 27 -14 10 -32 -11 -10 -9 -11 7 -5 19 7
19 6 4 -12 -25 -29 -32 -57 -14 -50 8 3 15 1 15 -4 0 -6 7 -10 16 -10 29 0 8
-25 -29 -33 -20 -5 -37 -13 -37 -18 0 -4 -12 -20 -26 -35 -22 -21 -24 -28 -13
-35 13 -8 35 -13 52 -10 4 0 7 -3 7 -9 0 -12 47 -13 54 -1 9 13 54 10 67 -5 6
-8 22 -14 36 -14 21 0 22 -3 13 -20 -6 -11 -19 -20 -28 -20 -11 0 -18 -8 -18
-20 0 -11 4 -20 8 -20 4 0 8 5 8 10 0 6 7 10 15 10 9 0 30 7 46 16 29 15 31
14 36 -6 5 -18 11 -21 34 -16 20 4 27 2 23 -8 -6 -15 33 -66 49 -65 8 0 8 2 0
6 -17 6 -16 30 0 40 8 4 16 16 20 25 4 11 12 15 22 12 10 -4 15 0 15 12 0 11
9 0 20 -24 10 -23 25 -41 32 -40 8 2 12 -6 11 -20 -2 -13 1 -21 6 -18 5 3 11
-7 13 -24 2 -16 1 -27 -3 -24 -13 7 -21 -16 -15 -40 3 -13 15 -26 26 -29 16
-4 20 0 20 19 0 13 9 28 21 34 20 11 20 13 4 30 -12 13 -15 28 -11 45 7 29 15
31 42 10 17 -13 17 -14 2 -15 -10 0 -18 -4 -18 -10 0 -5 8 -10 18 -11 14 0 14
-2 -3 -9 -20 -8 -16 -10 20 -10 3 0 14 -9 25 -20 11 -11 28 -20 38 -20 21 -1
47 -35 60 -81 6 -18 22 -63 36 -98 14 -36 26 -66 26 -68 0 -2 -66 -3 -147 -3
-165 0 -227 11 -219 38 3 9 -1 30 -9 46 -12 23 -12 27 -1 23 11 -5 11 0 -1 24
-8 16 -23 29 -33 29 -31 0 -49 11 -43 26 4 10 0 12 -11 8 -11 -4 -16 -1 -16
10 0 9 -5 16 -11 16 -5 0 -7 -4 -4 -10 3 -5 -3 -10 -13 -10 -11 0 -22 -6 -25
-14 -3 -8 -16 -20 -28 -27 -19 -10 -21 -9 -16 5 5 12 -5 21 -35 36 -50 24 -59
25 -52 5 5 -11 -1 -15 -25 -15 -17 0 -31 5 -31 10 0 6 5 10 10 10 14 0 12 33
-4 55 -12 16 -14 13 -20 -34 -5 -41 -12 -54 -29 -60 -29 -11 -47 5 -24 21 20
16 16 52 -6 56 -11 2 -17 -6 -19 -30 -2 -25 -8 -34 -24 -36 -19 -3 -21 -7 -13
-40 4 -20 7 -53 6 -72 -3 -51 -30 -60 -215 -68 l-157 -7 147 -8 c150 -7 198
-17 198 -39 0 -15 99 -75 138 -84 15 -4 32 -11 38 -16 24 -18 118 -17 184 3
61 18 66 22 83 63 25 60 46 66 252 73 137 4 173 3 182 -8 6 -8 21 -52 33 -98
12 -46 32 -106 45 -132 31 -60 71 -276 80 -424 4 -69 0 -170 -9 -270 -13 -146
-13 -162 2 -178 13 -15 14 -23 4 -51 -7 -18 -12 -40 -12 -48 0 -9 -11 -29 -24
-45 -38 -46 -56 -89 -56 -137 0 -40 3 -47 30 -61 16 -8 38 -28 47 -43 10 -15
41 -55 71 -89 67 -78 79 -117 91 -297 5 -77 12 -148 15 -156 2 -8 7 -27 10
-42 13 -56 114 -55 233 3 37 18 73 44 86 62 35 51 165 170 176 162 35 -21 -18
-160 -86 -228 -22 -20 -88 -65 -148 -100 -104 -59 -110 -64 -117 -102 -7 -32
-2 -63 23 -154 25 -92 30 -126 25 -170 -8 -84 -30 -156 -58 -198 -18 -26 -28
-58 -32 -103 -4 -36 -16 -96 -26 -135 -19 -69 -42 -238 -55 -403 -11 -136 -59
-314 -206 -753 -54 -163 -99 -306 -99 -318 0 -24 -46 -138 -64 -161 -12 -14
-20 -32 -46 -104 -8 -22 -13 -26 -24 -17 -11 9 -18 4 -35 -25 -23 -39 -22 -64
4 -64 13 0 9 -14 -20 -68 -21 -37 -53 -96 -72 -132 -57 -107 -172 -237 -341
-387 -130 -115 -225 -180 -327 -226 -202 -89 -378 -169 -465 -210 -160 -75
-262 -103 -503 -136 -162 -23 -417 -28 -522 -9 -33 5 -91 11 -130 13 -52 2
-87 11 -138 34 -37 17 -98 36 -135 42 -37 6 -81 17 -97 24 -17 7 -44 11 -60 8
-39 -4 -97 6 -90 16 7 12 -52 39 -103 47 -31 5 -42 3 -42 -6 0 -7 -20 4 -44
24 -50 40 -68 44 -94 18 -12 -12 -32 -17 -72 -16 -68 2 -72 0 -58 -32 8 -17
16 -23 27 -18 9 4 28 7 44 6 15 -1 27 3 27 8 0 5 9 14 21 20 17 9 26 7 55 -15
45 -35 59 -68 42 -106 -7 -16 -16 -29 -20 -29 -3 0 -14 -7 -22 -16 -12 -12
-16 -12 -16 -2 0 10 -13 13 -47 11 -25 -2 -52 2 -58 7 -7 5 -15 7 -18 3 -4 -3
-7 -2 -7 4 0 17 -32 25 -42 11 -6 -9 -10 -10 -15 -2 -10 14 -95 44 -126 44
-13 0 -28 5 -34 11 -9 9 -14 5 -19 -15 -6 -26 -24 -37 -24 -14 0 6 -3 9 -6 5
-10 -10 -69 16 -94 43 -14 15 -32 31 -40 36 -8 5 -33 28 -55 52 -31 33 -40 52
-45 90 -5 45 -7 48 -60 76 -203 105 -380 167 -380 132 0 -31 79 -112 187 -193
226 -167 386 -263 441 -263 10 0 48 -23 85 -51 37 -27 90 -57 118 -65 29 -9
68 -26 88 -39 20 -13 49 -27 66 -31 16 -4 36 -13 43 -21 7 -7 22 -13 33 -13
10 0 19 -4 19 -10 0 -5 4 -10 9 -10 5 0 26 -7 47 -16 36 -15 37 -17 19 -30
-10 -8 -31 -14 -47 -14 -41 0 -34 -14 18 -36 l46 -20 5 -60 c2 -32 5 -66 5
-74 1 -8 6 -18 12 -22 8 -5 7 -8 -1 -8 -7 0 -13 -9 -13 -20 0 -25 20 -27 21
-2 2 50 8 110 14 132 4 15 3 20 -2 13 -5 -7 -14 -9 -21 -4 -9 5 -4 19 18 53
l30 45 68 -24 c173 -63 553 -132 654 -120 24 3 77 12 118 21 69 13 131 19 188
17 12 -1 22 -7 22 -16 0 -8 8 -15 18 -16 22 0 85 -7 187 -19 135 -17 164 -15
345 19 196 36 388 93 513 150 46 21 99 42 118 46 41 9 142 59 264 130 157 92
308 167 326 162 10 -3 23 1 30 9 6 8 20 14 30 14 11 0 19 7 19 15 0 9 7 18 17
22 9 3 46 35 82 70 36 34 72 63 81 63 9 0 29 13 45 30 16 16 34 30 40 30 6 0
24 14 40 30 16 17 34 29 41 26 6 -2 17 1 24 7 10 9 11 9 6 0 -5 -9 -2 -11 8
-7 9 3 14 10 11 14 -6 10 30 42 38 33 4 -3 7 1 7 9 0 20 39 31 46 13 7 -17 56
-26 91 -16 20 6 37 4 53 -4 13 -7 29 -11 35 -8 7 2 18 -3 25 -12 7 -8 17 -15
23 -15 6 0 1 7 -11 16 -29 20 -21 32 17 26 39 -5 61 -29 40 -44 -11 -7 -9 -9
9 -5 12 3 20 1 17 -3 -3 -5 -1 -11 5 -15 5 -3 10 -1 10 6 0 8 4 8 16 -2 8 -7
13 -21 10 -31 -2 -11 2 -22 10 -25 8 -3 11 -10 8 -15 -4 -5 -1 -21 6 -34 17
-32 2 -86 -28 -99 -18 -8 -21 -15 -17 -37 5 -21 -1 -35 -29 -66 -20 -22 -36
-44 -36 -49 0 -6 -10 -8 -23 -6 -17 3 -23 11 -22 26 1 12 -5 27 -14 34 -22 17
-31 16 -24 -4 4 -11 -1 -9 -17 7 -19 19 -21 27 -13 54 5 17 6 40 2 51 -7 18
-8 18 -8 -4 -1 -13 -6 -41 -13 -62 -9 -33 -9 -42 5 -57 10 -10 17 -29 17 -43
l0 -23 -15 21 c-12 18 -20 20 -38 14 -18 -7 -26 -5 -35 10 -10 16 -9 19 3 19
15 0 15 2 1 22 -17 24 -56 32 -56 11 0 -7 7 -13 15 -13 8 0 15 -5 15 -10 0 -6
-5 -9 -12 -8 -18 4 -22 -31 -5 -50 9 -9 17 -21 19 -27 7 -21 38 -14 44 10 7
28 25 32 44 10 7 -8 23 -15 36 -15 27 0 33 -27 9 -36 -8 -3 -17 -14 -20 -25
-9 -26 -31 -24 -51 6 -18 28 -58 34 -68 10 -3 -8 -12 -15 -20 -15 -9 0 -18
-11 -22 -25 -3 -13 -12 -29 -19 -35 -7 -6 -11 -24 -9 -43 2 -18 -4 -48 -14
-67 -16 -31 -22 -35 -55 -34 -21 1 -36 -3 -35 -8 5 -13 118 -16 118 -4 0 5 8
2 17 -5 17 -13 17 -13 1 12 -20 31 -15 39 21 39 32 0 73 -40 61 -60 -7 -11
-11 -10 -25 4 -15 14 -20 15 -34 3 -9 -7 -28 -13 -43 -12 -37 1 -55 -36 -32
-65 11 -15 12 -91 0 -120 -7 -18 17 -52 34 -48 7 2 15 -3 17 -10 3 -8 -1 -10
-11 -6 -9 3 -16 2 -16 -4 0 -5 -14 -15 -30 -22 -17 -7 -40 -26 -51 -41 -21
-30 -18 -35 21 -39 8 0 39 -3 69 -6 41 -5 52 -3 46 6 -6 10 -1 11 19 6 19 -5
26 -3 26 9 0 8 9 15 21 15 11 0 17 -5 14 -10 -3 -6 2 -10 11 -10 10 0 26 -8
37 -18 15 -12 21 -14 24 -4 3 6 8 10 13 7 5 -3 11 4 15 15 3 11 11 20 16 20 6
0 7 6 3 13 -5 7 0 6 11 -3 17 -14 18 -13 13 13 -4 21 -2 25 8 17 9 -8 14 -6
19 10 8 26 42 40 78 33 22 -4 25 -8 16 -19 -8 -10 -8 -14 0 -14 6 0 11 -5 11
-10 0 -6 -7 -10 -16 -8 -9 2 -21 -6 -28 -16 -23 -40 -47 -61 -54 -49 -16 25
-58 0 -53 -31 1 -5 -10 -6 -24 -4 -14 3 -25 1 -25 -5 0 -5 -7 -4 -15 3 -8 7
-42 13 -75 14 -49 1 -60 -2 -64 -17 -3 -14 -10 -17 -25 -12 -14 4 -23 0 -31
-15 -8 -14 -8 -20 0 -20 6 0 9 -4 6 -9 -4 -5 11 -7 34 -4 36 5 40 4 34 -13 -4
-15 -4 -16 4 -5 6 8 17 11 26 8 8 -3 18 -2 21 3 4 6 14 10 23 10 19 -1 98 -57
95 -68 -2 -4 0 -7 5 -8 4 0 15 -4 25 -9 19 -8 79 -2 111 11 16 6 18 4 13 -10
-5 -14 -3 -17 8 -12 20 7 30 -35 15 -64 -7 -13 -8 -20 -2 -16 6 4 15 -2 21
-11 8 -15 10 -11 11 21 0 33 2 37 15 26 18 -15 19 -7 4 21 -15 29 15 76 37 58
12 -10 13 -9 7 7 -3 10 -11 22 -17 26 -6 4 1 8 15 8 24 0 69 -38 69 -60 0 -13
38 -32 53 -26 9 3 9 5 0 5 -8 1 -13 14 -13 31 0 32 14 40 28 14 8 -14 10 -14
21 0 16 19 7 35 -17 31 -9 -1 -11 0 -4 2 8 3 11 11 8 18 -9 24 15 95 33 95 14
0 14 2 1 10 -12 8 -9 10 13 10 15 0 27 5 27 10 0 6 7 10 15 10 9 0 14 8 12 22
-1 18 2 22 18 20 11 -2 22 -8 25 -12 8 -13 58 -30 86 -30 15 0 24 -6 24 -15 0
-8 7 -15 16 -15 9 0 21 -13 27 -30 6 -17 15 -30 19 -30 4 0 8 -7 8 -15 0 -17
26 -20 35 -4 4 6 13 8 20 5 8 -3 19 2 25 10 16 18 30 18 30 -1 0 -8 6 -15 14
-15 21 0 26 -47 6 -65 -9 -8 -23 -15 -30 -15 -10 0 -11 -3 -3 -11 9 -9 20 -6
43 11 l33 23 16 -21 c19 -24 36 -29 74 -19 25 7 28 11 25 47 -2 48 -13 45 -17
-5 -1 -19 -21 -20 -21 0 0 11 -5 12 -26 5 -34 -13 -38 -13 -21 5 9 8 13 23 10
33 -7 27 18 42 71 45 25 1 46 5 46 10 0 4 10 5 23 2 27 -7 83 9 80 22 -1 6 10
16 25 24 15 7 39 24 53 37 22 20 27 21 32 8 7 -18 62 -22 72 -6 4 6 12 7 18 3
7 -5 44 -8 82 -8 59 0 72 3 80 19 13 25 35 32 35 12 0 -16 27 -22 78 -17 15 1
21 -2 17 -9 -4 -7 2 -9 18 -5 22 6 27 2 38 -29 l13 -36 22 21 c12 11 31 19 41
17 11 -2 28 4 39 12 15 11 16 11 7 0 -7 -8 -13 -18 -13 -23 0 -4 6 -5 13 -2 6
4 3 -1 -7 -9 -19 -16 -19 -16 2 -16 l22 0 0 594 c0 378 -4 597 -10 601 -18 11
-48 -14 -55 -46 -4 -19 -15 -33 -27 -37 -12 -3 -17 -10 -14 -19 4 -8 -6 -27
-22 -43 -22 -21 -37 -28 -63 -27 -26 2 -37 -3 -46 -21 -7 -12 -10 -28 -7 -36
7 -17 -60 -38 -75 -23 -8 8 -11 8 -11 0 0 -6 -9 -13 -20 -16 -13 -3 -18 -11
-14 -20 3 -8 1 -18 -5 -22 -6 -3 -11 -15 -11 -26 0 -21 -20 -25 -38 -7 -10 10
-17 10 -32 0 -26 -16 -30 -15 -30 4 0 8 4 13 8 10 4 -2 14 -1 22 4 9 5 19 5
27 -2 10 -8 13 -5 13 15 0 20 -6 27 -30 32 -35 8 -60 -3 -39 -16 11 -7 9 -10
-9 -15 -17 -5 -20 -10 -12 -19 9 -11 5 -13 -17 -10 -16 2 -42 -6 -60 -17 -20
-12 -33 -15 -33 -8 0 6 -4 8 -10 5 -5 -3 -10 1 -10 9 0 8 -5 18 -12 22 -8 5
-9 2 -5 -9 7 -18 -11 -35 -22 -21 -3 5 -15 10 -26 12 -37 5 -80 14 -83 17 -2
2 -4 9 -6 17 -1 7 -16 29 -34 47 -27 28 -30 37 -19 49 9 13 9 14 0 8 -8 -4
-13 -1 -13 9 0 9 -4 13 -10 10 -5 -3 -10 -1 -10 5 0 6 -4 9 -8 6 -4 -2 -8 9
-7 25 0 19 6 31 18 35 14 4 17 12 13 30 -4 16 -2 24 6 24 10 0 9 3 -1 9 -9 6
-12 19 -8 40 4 19 2 31 -4 31 -6 0 -7 5 -4 10 3 6 0 10 -7 10 -9 1 -8 4 3 13
9 7 18 25 21 41 8 42 -26 74 -75 71 -43 -2 -42 -2 -20 20 23 23 7 68 -25 70
-13 1 -26 -4 -29 -12 -9 -22 -23 -4 -23 30 0 18 -6 44 -14 59 -16 30 -12 38
19 38 22 0 85 27 85 36 0 3 -5 2 -10 -1 -16 -10 -12 11 5 25 8 7 13 16 10 20
-6 9 20 32 31 28 19 -6 10 61 -10 74 -13 9 -19 61 -5 53 5 -4 9 -1 9 4 0 6 7
11 15 11 18 0 18 -2 0 51 -15 40 -14 105 1 151 3 10 1 18 -5 18 -6 0 -11 10
-11 23 0 13 -5 28 -11 34 -8 8 -6 18 6 37 10 15 18 37 19 49 1 17 6 21 24 19
12 -2 22 2 22 9 0 8 4 8 15 -1 13 -10 15 -9 15 10 0 13 3 20 7 17 3 -4 13 2
20 13 10 14 21 19 33 15 12 -4 26 2 38 15 17 18 23 19 46 8 22 -9 29 -9 35 0
6 10 16 9 43 -2 33 -14 37 -14 53 4 12 13 22 17 29 11 12 -10 106 25 106 39 0
20 67 109 83 109 12 1 17 9 17 30 0 17 5 33 10 36 14 9 12 55 -2 55 -21 -1
-50 -27 -39 -34 15 -10 -8 -56 -25 -49 -7 3 -21 -8 -31 -25 -25 -41 -50 -27
-59 33 -3 25 -10 43 -14 40 -5 -3 -6 4 -3 15 4 14 0 20 -11 20 -9 0 -16 5 -16
11 0 5 4 8 9 5 5 -4 7 3 4 14 -7 26 -19 25 -26 -1 -5 -19 -11 -21 -46 -15 -33
5 -41 3 -41 -9 0 -8 -5 -15 -11 -15 -6 0 -9 6 -6 14 3 8 -3 22 -14 32 -10 9
-19 23 -19 29 0 7 -6 15 -14 18 -15 6 -20 73 -5 82 13 9 -23 45 -44 45 -13 0
-17 5 -14 15 9 21 -36 44 -48 25 -3 -5 -17 -5 -33 -1 -16 5 -39 3 -58 -5 -29
-12 -32 -12 -37 7 -3 11 -9 18 -14 17 -5 -2 -19 7 -33 20 -17 16 -21 25 -13
33 8 8 15 4 27 -12 l16 -23 0 32 c0 17 -4 32 -9 32 -11 0 -19 30 -14 48 3 6 9
10 14 6 10 -6 10 -2 13 126 2 86 19 140 50 157 10 5 23 62 41 168 14 88 39
216 54 285 60 261 72 414 75 925 2 487 -5 704 -27 770 -9 28 -23 93 -32 145
-29 172 -115 453 -202 655 -86 202 -123 268 -271 488 -188 279 -259 387 -285
437 -13 25 -47 83 -75 130 -46 76 -50 86 -38 105 9 13 26 21 52 22 21 1 40 7
42 13 2 5 8 8 13 4 5 -3 9 2 9 11 0 9 5 13 10 10 6 -4 17 10 26 31 12 28 18
34 25 23 4 -8 6 -26 4 -41 -4 -21 -1 -28 10 -28 9 0 14 -4 11 -8 -2 -4 7 -7
22 -6 14 0 28 6 30 12 2 6 11 8 19 5 12 -5 15 -2 10 10 -3 8 0 21 8 27 8 7 14
7 17 1 1 -6 23 -13 47 -16 24 -3 50 -10 57 -16 7 -6 17 -8 22 -5 13 8 29 -13
38 -48 6 -25 10 -27 38 -22 17 4 32 10 34 14 1 5 18 7 37 6 20 -2 35 1 35 8 0
5 -8 8 -19 5 -10 -2 -26 0 -35 5 -10 6 -16 5 -16 -2 0 -6 -5 -8 -12 -4 -7 5
-8 3 -3 -7 7 -12 6 -12 -7 -1 -13 10 -17 10 -21 0 -2 -7 -8 -10 -12 -5 -5 4 0
15 11 26 15 13 26 16 43 9 28 -10 64 -1 55 13 -3 6 -8 8 -10 6 -3 -3 -19 9
-36 27 -20 20 -33 26 -36 18 -2 -6 -8 -12 -14 -12 -6 0 -6 6 2 15 6 8 9 19 5
25 -10 16 11 12 25 -5 10 -12 15 -13 21 -4 6 10 11 10 23 0 13 -11 16 -11 16
0 1 10 4 9 14 -3 16 -22 49 -23 70 -3 17 18 42 20 52 4 5 -8 8 -8 13 0 5 8 20
5 49 -9 22 -11 46 -20 52 -20 6 0 8 -4 5 -10 -3 -5 2 -10 12 -10 11 0 24 -5
31 -12 9 -9 12 -9 12 1 0 23 31 38 64 31 20 -4 39 -1 53 8 13 8 23 12 23 8 0
-3 8 2 18 12 10 9 17 22 15 28 -3 7 6 21 18 32 12 12 19 27 16 36 -3 9 -2 18
3 21 6 4 10 11 10 16 0 6 -4 7 -10 4 -18 -11 -11 4 11 24 19 17 20 24 11 48
-6 15 -10 37 -9 48 2 23 19 45 29 39 4 -2 9 4 12 14 5 14 14 17 46 14 22 -2
40 0 40 6 0 5 8 9 17 8 10 0 19 8 21 19 2 11 11 28 20 38 8 9 11 17 7 17 -5 0
-4 5 3 12 14 14 16 48 4 48 -5 0 -9 7 -9 15 0 8 5 15 10 15 5 0 4 6 -2 14 -10
12 -8 19 8 35 25 25 26 39 6 61 -14 15 -13 19 5 40 11 13 17 26 12 29 -14 10
-21 60 -7 55 12 -5 14 30 2 42 -14 14 -7 26 8 14 15 -12 -10 48 -51 123 -8 15
-12 32 -8 39 5 7 3 8 -6 3 -9 -5 -10 -2 -5 14 4 13 2 21 -5 21 -6 0 -9 4 -6 9
3 5 -1 12 -10 15 -8 3 -13 10 -10 15 4 5 0 12 -6 15 -10 5 -10 7 0 12 6 3 12
12 12 19 0 7 6 16 13 18 8 4 8 8 2 14 -5 4 -10 14 -11 21 -3 33 -4 35 -17 24
-10 -8 -21 -6 -42 9 l-30 21 30 -6 30 -7 -25 21 c-14 11 -31 20 -37 20 -7 0
-13 5 -13 11 0 7 9 9 21 6 13 -3 18 -2 13 3 -5 4 -20 10 -34 12 -14 1 -25 8
-24 13 0 14 -19 34 -28 28 -5 -2 -8 1 -8 7 0 6 -10 4 -25 -6 -13 -8 -29 -13
-35 -9 -18 11 -120 11 -116 0 2 -5 8 -9 14 -8 6 2 16 -7 23 -18 6 -12 7 -19 1
-15 -14 9 -74 -14 -96 -36 -14 -15 -20 -17 -26 -7 -6 9 -16 9 -43 -4 -44 -21
-50 -21 -42 2 8 25 -18 44 -62 46 -28 2 -41 -3 -55 -20 -25 -32 -23 -54 5 -53
41 2 57 -2 57 -13 0 -5 -4 -7 -10 -4 -5 3 -10 -1 -10 -9 0 -8 5 -18 10 -21 14
-8 3 -25 -16 -25 -20 0 -40 -21 -39 -40 2 -22 -14 -40 -29 -34 -8 3 -21 -2
-30 -11 -9 -9 -21 -13 -27 -9 -7 4 -9 3 -5 -4 3 -6 -3 -13 -14 -17 -11 -3 -20
-13 -20 -20 0 -8 -8 -19 -17 -24 -12 -7 -14 -10 -4 -11 18 0 -57 -68 -83 -76
-35 -9 -66 -27 -61 -34 3 -5 -2 -10 -10 -14 -8 -3 -14 -2 -12 2 3 9 -7 12 -35
12 -21 -1 -21 -2 6 -16 20 -11 25 -19 17 -27 -7 -7 -17 -5 -32 9 -13 10 -19
14 -16 8 4 -7 0 -15 -9 -18 -12 -5 -14 -15 -9 -46 6 -34 4 -40 -10 -40 -11 0
-15 -5 -11 -15 3 -8 1 -15 -3 -15 -5 0 -11 6 -13 12 -8 22 -130 12 -174 -14
-22 -12 -43 -28 -47 -35 -6 -9 -14 -10 -34 -2 -22 8 -30 7 -40 -7 -7 -10 -13
-15 -13 -11 0 4 -10 2 -22 -4 -23 -12 -23 -12 -5 9 18 20 18 20 -2 15 -12 -3
-21 -9 -21 -14 0 -6 -9 -13 -20 -17 -25 -9 -13 -30 20 -35 25 -4 42 -37 20
-37 -7 0 -9 -8 -5 -20 5 -14 2 -20 -9 -20 -9 0 -16 9 -16 20 0 11 5 20 10 20
6 0 10 5 10 10 0 6 -9 10 -21 10 -15 0 -19 -5 -15 -15 4 -13 2 -13 -14 -5 -27
15 -35 31 -19 41 10 6 4 9 -18 9 -18 0 -33 4 -33 8 0 5 -13 9 -30 10 -17 0
-30 -5 -30 -11 0 -7 -4 -7 -9 2 -8 12 -13 12 -24 3 -11 -10 -17 -9 -27 3 -7 8
-9 15 -4 15 5 0 9 16 10 36 0 22 7 42 17 49 21 15 22 29 2 21 -8 -3 -15 -1
-15 5 0 7 -12 9 -33 5 -18 -3 -36 -3 -40 1 -13 13 -57 11 -71 -3 -9 -9 -17
-10 -21 -4 -9 14 -45 12 -45 -3 0 -14 -37 -40 -43 -29 -2 4 -2 1 -1 -5 2 -7
-8 -20 -21 -29 -23 -15 -26 -14 -60 11 -19 15 -35 31 -35 36 0 5 -5 9 -11 9
-6 0 -24 14 -40 31 -22 24 -28 37 -23 57 l5 27 -20 -23 c-27 -31 -66 -22 -57
14 6 22 4 23 -18 14 -21 -8 -39 -2 -105 35 -43 25 -83 45 -88 45 -5 0 -22 14
-38 30 -16 17 -33 30 -39 30 -15 0 -287 134 -328 162 -19 14 -82 37 -139 52
-57 16 -133 42 -169 58 -123 56 -307 98 -432 98 -32 0 -73 6 -91 14 -19 8 -76
14 -142 15 -80 1 -116 6 -133 17 -19 13 -39 14 -93 9 -38 -4 -69 -11 -69 -16
0 -5 -9 -9 -20 -9 -12 0 -31 -10 -44 -23 -22 -22 -24 -34 -31 -186 -4 -89 -5
-164 -3 -166 2 -2 46 -9 98 -15 98 -11 263 -49 331 -76 l39 -16 0 -362 c-1
-553 -19 -2059 -26 -2163 l-7 -91 -31 9 c-64 20 -132 41 -146 46 -8 3 -22 7
-31 9 -65 13 -295 139 -345 188 -15 15 -274 195 -322 223 -20 12 -58 29 -83
38 l-47 16 -6 92 c-16 218 -36 723 -46 1117 -6 234 -14 542 -18 685 -4 143 -7
262 -6 263 8 12 110 25 244 31 85 5 126 9 90 10 -66 3 -68 4 -17 15 16 4 31
16 36 29 5 12 11 91 15 175 l7 152 -25 0 c-13 0 -31 7 -40 15 -8 8 -16 15 -18
14 -2 0 -41 -11 -88 -24z m4325 -141 c23 -15 38 -43 16 -30 -5 4 -12 0 -14 -6
-8 -18 -27 11 -20 29 4 9 0 11 -13 6 -12 -4 -15 -3 -10 5 9 15 12 15 41 -4z
m129 -4 c14 -5 26 -15 26 -21 0 -7 8 -21 17 -31 14 -15 15 -21 4 -27 -9 -6 -6
-10 11 -14 33 -9 35 -50 3 -71 -34 -22 -41 -20 -57 14 -13 29 -38 41 -38 18 0
-6 -8 -3 -20 7 -27 25 -23 105 6 105 8 0 14 7 14 15 0 18 1 18 34 5z m-6398
-27 c-3 -8 -6 -17 -6 -19 0 -13 -31 -1 -40 15 -8 16 -6 20 8 23 26 6 44 -3 38
-19z m6309 -82 c3 -5 1 -12 -5 -16 -5 -3 -10 1 -10 9 0 18 6 21 15 7z m71 -47
c-4 -9 -9 -15 -11 -12 -3 3 -3 13 1 22 4 9 9 15 11 12 3 -3 3 -13 -1 -22z
m-6736 -124 c0 -5 -5 -10 -11 -10 -5 0 -7 5 -4 10 3 6 8 10 11 10 2 0 4 -4 4
-10z m-900 -50 c0 -5 7 -10 15 -10 8 0 15 -4 15 -10 0 -17 -25 -11 -38 10 -7
12 -8 20 -2 20 5 0 10 -4 10 -10z m890 -25 c0 -8 -7 -15 -15 -15 -9 0 -12 6
-9 15 4 8 10 15 15 15 5 0 9 -7 9 -15z m-1059 -38 c8 -13 6 -17 -6 -17 -9 0
-14 -4 -10 -9 5 -9 -27 -2 -69 15 -17 7 -18 8 -2 19 24 18 76 13 87 -8z m119
9 c0 -3 -4 -8 -10 -11 -5 -3 -10 -1 -10 4 0 6 5 11 10 11 6 0 10 -2 10 -4z
m947 -32 c2 -6 -8 -14 -22 -16 -28 -6 -27 -6 -19 17 7 17 35 17 41 -1z m-357
-24 c0 -5 -7 -10 -15 -10 -8 0 -15 5 -15 10 0 6 7 10 15 10 8 0 15 -4 15 -10z
m54 -51 c-9 -15 -34 17 -34 44 0 17 3 16 21 -7 11 -14 17 -31 13 -37z m-689
23 c-6 -4 -16 -18 -22 -32 -12 -25 -12 -25 -12 8 -1 27 3 32 22 32 12 0 17 -4
12 -8z m6170 -79 c-7 -10 -23 -29 -34 -43 -17 -22 -20 -23 -26 -8 -8 21 14 47
34 40 10 -3 12 0 8 12 -5 11 -1 16 13 16 18 0 18 -2 5 -17z m-5675 -88 c0 -8
-4 -15 -10 -15 -5 0 -10 7 -10 15 0 8 5 15 10 15 6 0 10 -7 10 -15z m-905 -16
c4 -6 13 -8 21 -5 8 3 14 1 14 -4 0 -6 -3 -10 -7 -10 -5 0 -17 -3 -28 -6 -16
-4 -21 0 -21 15 0 23 11 28 21 10z m2689 -39 c-6 -6 -10 -3 -10 10 0 13 4 16
10 10 7 -7 7 -13 0 -20z m-1610 -20 c-6 -5 -24 21 -24 34 0 6 6 1 14 -10 8
-10 12 -21 10 -24z m-630 12 c8 -13 -11 -35 -23 -28 -16 10 -14 36 3 36 8 0
17 -4 20 -8z m2264 -6 c-7 -8 -15 -12 -17 -11 -5 6 10 25 20 25 5 0 4 -6 -3
-14z m4255 -31 c4 -8 1 -17 -5 -21 -7 -4 -7 -9 1 -13 8 -5 5 -13 -9 -26 -20
-18 -21 -18 -32 25 -4 14 20 50 33 50 4 0 9 -7 12 -15z m-5828 -73 c-3 -3 -11
0 -18 7 -9 10 -8 11 6 5 10 -3 15 -9 12 -12z m-905 -72 c0 -5 -4 -10 -10 -10
-5 0 -10 5 -10 10 0 6 5 10 10 10 6 0 10 -4 10 -10z m30 -4 c0 -7 -8 -20 -17
-27 -15 -11 -16 -11 -6 0 6 7 9 20 6 27 -3 8 0 14 6 14 6 0 11 -6 11 -14z
m2534 -27 c-3 -5 -12 -9 -21 -9 -12 0 -13 3 -4 13 6 8 7 18 3 23 -4 4 1 2 10
-5 10 -7 15 -17 12 -22z m-1389 7 c8 -7 11 -16 8 -20 -11 -11 -21 -6 -26 14
-6 23 -1 25 18 6z m5658 -15 c-3 -14 -10 -31 -15 -37 -11 -15 -7 -36 12 -52
13 -11 11 -11 -7 -2 -13 6 -23 17 -23 25 0 8 -8 15 -17 15 -17 1 -17 1 -1 10
9 6 19 23 23 38 3 16 12 29 20 29 11 0 13 -8 8 -26z m30 -31 c-3 -11 -9 -17
-14 -15 -10 7 -1 35 11 35 5 0 6 -9 3 -20z m-5698 0 c3 -5 2 -10 -4 -10 -5 0
-13 5 -16 10 -3 6 -2 10 4 10 5 0 13 -4 16 -10z m4206 1 c-12 -8 -12 -12 2
-25 8 -9 22 -16 31 -16 18 0 30 -16 17 -24 -5 -4 -12 0 -15 6 -5 10 -7 10 -12
1 -3 -7 -12 -13 -20 -13 -9 0 -12 5 -9 10 3 6 4 10 1 10 -2 0 -12 3 -20 6 -12
4 -15 2 -10 -9 4 -11 0 -14 -13 -12 -10 2 -22 4 -28 4 -5 1 -3 6 5 11 13 9 13
11 1 19 -23 15 2 36 46 38 26 2 33 0 24 -6z m1576 -47 c-9 -9 -28 6 -21 18 4
6 10 6 17 -1 6 -6 8 -13 4 -17z m-7011 8 c-3 -5 4 -16 14 -25 11 -9 22 -12 25
-7 5 8 12 8 53 -5 21 -7 22 -9 8 -30 -13 -20 -13 -24 -1 -29 9 -3 15 1 15 9 0
8 5 15 10 15 6 0 10 -6 9 -12 -1 -26 -15 -43 -34 -43 -11 0 -19 -5 -18 -12 2
-7 -4 -10 -13 -6 -8 3 -13 11 -11 17 20 48 20 49 5 44 -9 -4 -21 -1 -27 5 -7
7 -11 7 -11 1 0 -6 -13 -11 -29 -12 -23 0 -30 4 -34 24 -4 24 -4 24 15 8 25
-23 47 -4 23 20 -9 9 -13 16 -9 16 3 0 1 7 -6 15 -10 12 -9 15 4 15 10 0 15
-4 12 -8z m-59 -22 c-1 -22 -17 -28 -17 -7 0 12 9 27 16 27 2 0 2 -9 1 -20z
m5583 -36 c0 -8 -5 -12 -10 -9 -6 4 -8 11 -5 16 9 14 15 11 15 -7z m1490 -4
c0 -5 -4 -10 -10 -10 -5 0 -10 5 -10 10 0 6 5 10 10 10 6 0 10 -4 10 -10z
m-1455 -19 c3 -5 1 -12 -5 -16 -5 -3 -10 1 -10 9 0 18 6 21 15 7z m1315 -51
c-10 -18 -13 -19 -25 -6 -8 8 -15 23 -15 32 0 14 3 15 12 6 17 -17 28 -15 22
6 -5 16 -5 16 6 0 8 -13 8 -23 0 -38z m-6120 25 c0 -8 -2 -15 -4 -15 -2 0 -6
7 -10 15 -3 8 -1 15 4 15 6 0 10 -7 10 -15z m4671 -8 c-10 -9 -11 -8 -5 6 3
10 9 15 12 12 3 -3 0 -11 -7 -18z m1589 19 c0 -3 -4 -8 -10 -11 -5 -3 -10 -1
-10 4 0 6 5 11 10 11 6 0 10 -2 10 -4z m-7000 -26 c0 -5 -4 -10 -10 -10 -5 0
-10 5 -10 10 0 6 5 10 10 10 6 0 10 -4 10 -10z m1600 -10 c0 -5 -9 -10 -20
-10 -11 0 -20 5 -20 10 0 6 9 10 20 10 11 0 20 -4 20 -10z m1110 0 c-8 -5 -19
-10 -25 -10 -5 0 -3 5 5 10 8 5 20 10 25 10 6 0 3 -5 -5 -10z m-1172 -13 c15
6 15 5 3 -11 -11 -13 -16 -14 -22 -4 -5 7 -8 18 -8 23 0 6 3 5 5 -2 3 -7 13
-9 22 -6z m4022 -18 c0 -22 -21 -22 -28 1 -3 7 0 10 7 6 6 -4 11 -2 11 3 0 6
2 11 5 11 3 0 5 -9 5 -21z m113 -41 c-2 -5 2 -8 11 -8 8 0 26 -14 40 -31 35
-41 23 -67 -28 -61 -19 2 -40 10 -46 17 -11 13 -4 45 11 45 17 0 9 28 -15 51
-13 13 -21 29 -19 37 4 10 12 6 28 -15 13 -15 21 -31 18 -35z m1800 19 c4 3 7
1 7 -5 0 -6 -9 -10 -20 -9 -11 1 -20 8 -20 15 0 11 3 12 13 3 8 -6 17 -8 20
-4z m-643 -47 c0 -4 3 -16 7 -26 4 -12 3 -15 -5 -10 -7 4 -19 -5 -31 -24 l-19
-31 -23 37 c-15 24 -19 39 -12 41 7 3 10 10 7 18 -4 10 0 12 15 8 12 -3 21 -1
21 6 0 9 5 9 20 1 11 -6 20 -15 20 -20z m-5013 0 c18 -22 16 -60 -3 -60 -8 0
-13 -4 -10 -9 3 -5 -1 -14 -9 -21 -12 -10 -15 -9 -15 5 0 10 -10 34 -22 53
-19 32 -20 35 -4 29 13 -5 17 -3 13 6 -7 19 35 16 50 -3z m-1681 -8 c-5 -10
21 -32 28 -25 14 14 5 -25 -10 -43 -13 -16 -15 -16 -10 -1 3 11 0 17 -10 17
-8 0 -12 5 -9 10 3 6 -1 10 -9 10 -9 0 -16 -5 -16 -11 0 -6 -6 -9 -12 -6 -7 2
-13 8 -13 13 0 5 -3 14 -7 20 -4 6 -5 13 -3 16 7 7 75 7 71 0z m2394 -11 c0
-14 -5 -18 -20 -14 -25 7 -26 20 -2 26 9 3 18 5 20 6 1 0 2 -8 2 -18z m-270 5
c0 -3 -4 -8 -10 -11 -5 -3 -10 -1 -10 4 0 6 5 11 10 11 6 0 10 -2 10 -4z m99
-23 c1 15 5 16 21 7 11 -6 20 -17 20 -24 0 -8 6 -19 14 -25 12 -10 17 -8 26 8
6 12 15 21 21 21 6 0 5 -9 -3 -22 -7 -13 -11 -27 -10 -31 1 -5 -2 -6 -7 -3 -5
3 -12 -1 -15 -10 -3 -9 -13 -14 -21 -10 -8 3 -17 1 -20 -5 -4 -5 -10 -7 -15
-4 -5 3 -13 -3 -19 -12 -6 -10 -11 -13 -11 -8 0 6 -19 11 -42 12 -25 2 -46 9
-51 18 -4 8 -17 15 -28 15 -12 0 -19 5 -17 11 2 6 7 10 11 10 4 -1 14 -1 22
-1 8 0 14 -5 13 -11 -2 -6 2 -13 8 -15 14 -6 84 63 85 84 0 14 2 13 9 -3 8
-18 9 -18 9 -2z m3054 4 c4 3 7 1 7 -5 0 -14 -2 -14 -24 -6 -9 3 -16 11 -16
16 0 7 5 6 13 -1 8 -6 17 -8 20 -4z m1398 -64 c-12 -20 -14 -14 -5 12 4 9 9
14 11 11 3 -2 0 -13 -6 -23z m-1347 -52 c-2 -1 -13 6 -25 17 -14 14 -19 27
-15 38 6 14 10 11 24 -17 10 -19 17 -36 16 -38z m213 56 c3 -5 0 -13 -7 -17
-7 -4 -11 -16 -8 -27 4 -13 0 -19 -13 -19 -14 0 -16 6 -12 27 6 29 -14 50 -23
25 -3 -9 -10 -16 -15 -16 -5 0 -4 9 3 19 13 21 64 26 75 8z m-102 -68 c11 -16
1 -19 -13 -3 -7 8 -8 14 -3 14 5 0 13 -5 16 -11z m85 -29 c0 -5 -4 -10 -10
-10 -5 0 -10 5 -10 10 0 6 5 10 10 10 6 0 10 -4 10 -10z m-174 -55 c10 -8 14
-15 7 -15 -19 0 -43 11 -43 21 0 13 14 11 36 -6z m388 -44 c14 -18 22 -39 20
-46 -8 -20 -34 -27 -40 -10 -4 8 -12 15 -20 15 -8 0 -14 9 -14 20 0 11 -7 20
-15 20 -18 0 -18 5 -5 30 14 26 42 15 74 -29z m-224 -45 c0 -3 -4 -8 -10 -11
-5 -3 -10 -1 -10 4 0 6 5 11 10 11 6 0 10 -2 10 -4z m280 -76 c0 -5 -4 -10
-10 -10 -5 0 -10 5 -10 10 0 6 5 10 10 10 6 0 10 -4 10 -10z m-316 -166 c3 -8
2 -12 -4 -9 -6 3 -10 10 -10 16 0 14 7 11 14 -7z m-2044 -1875 c137 -32 177
-46 165 -57 -3 -3 -18 -6 -33 -7 -25 0 -27 -4 -33 -50 -3 -33 -18 -71 -43
-112 -25 -41 -40 -80 -46 -120 -4 -32 -13 -77 -19 -101 -14 -50 -8 -78 18 -85
11 -2 21 -18 25 -38 3 -19 16 -42 29 -51 19 -15 20 -20 10 -37 -10 -15 -10
-21 0 -25 9 -3 9 -7 -2 -14 -9 -7 -10 -12 -2 -16 17 -11 13 -46 -5 -53 -9 -3
-20 0 -24 7 -5 8 -9 9 -14 1 -11 -16 -29 -13 -23 4 4 8 0 26 -8 41 -7 15 -11
32 -9 39 7 18 -16 30 -27 14 -4 -7 -11 -10 -15 -6 -4 4 -12 -1 -19 -10 -7 -9
-24 -17 -38 -17 -31 -2 -33 8 -42 211 l-6 132 26 17 c50 33 98 164 61 164 -13
0 -30 -17 -64 -66 -25 -36 -5 54 27 121 26 57 28 65 14 77 -13 10 -19 8 -41
-17 -17 -20 -23 -23 -18 -10 16 37 18 65 7 65 -6 0 -11 9 -11 20 0 11 5 18 13
15 6 -2 73 -18 147 -36z m-211 -543 c2 -176 -13 -199 -91 -145 -14 11 -35 19
-45 19 -32 0 -33 10 -6 51 21 31 30 38 47 33 17 -5 19 -4 9 7 -19 19 -16 43 7
64 11 10 20 22 20 27 0 12 42 67 52 67 3 1 7 -55 7 -123z m1911 -96 c0 -5 -4
-10 -10 -10 -5 0 -10 5 -10 10 0 6 5 10 10 10 6 0 10 -4 10 -10z m-105 -120
c-3 -5 -13 -10 -21 -10 -8 0 -12 5 -9 10 3 6 13 10 21 10 8 0 12 -4 9 -10z
m-55 -54 c0 -8 -4 -18 -10 -21 -5 -3 -10 3 -10 14 0 12 5 21 10 21 6 0 10 -6
10 -14z m-120 -446 c0 -5 -4 -10 -10 -10 -5 0 -10 5 -10 10 0 6 5 10 10 10 6
0 10 -4 10 -10z m-1652 -26 c4 2 7 -8 7 -23 0 -22 -4 -27 -18 -23 -25 6 -29
18 -15 42 7 11 14 16 16 10 2 -6 7 -8 10 -6z m962 -50 c-11 -12 -11 -15 0 -12
8 2 14 -5 15 -17 0 -15 6 -19 21 -17 15 2 23 -4 27 -18 3 -11 1 -18 -4 -14
-16 10 -10 -5 11 -24 15 -14 18 -24 11 -47 -5 -19 -14 -29 -24 -29 -10 1 -17
-4 -17 -11 0 -7 -7 -15 -15 -19 -8 -3 -15 -15 -15 -26 0 -12 5 -18 10 -15 6 3
10 1 10 -4 0 -6 5 -11 10 -11 7 0 7 7 0 21 -16 28 -7 33 19 12 11 -10 24 -32
27 -49 5 -28 3 -32 -20 -38 -31 -8 -34 -22 -7 -31 27 -8 31 -32 31 -188 l0
-138 -72 3 -73 3 -7 79 c-6 67 -24 147 -44 199 -3 10 4 14 27 14 30 0 30 -1
13 -15 -18 -14 -18 -14 6 -8 14 3 42 6 63 6 44 0 50 20 12 44 -22 14 -25 15
-25 1 0 -21 -23 -19 -50 5 -13 11 -30 20 -38 20 -8 0 -12 6 -8 15 3 8 1 15 -4
15 -6 0 -10 16 -10 36 0 19 4 33 9 29 5 -3 11 7 13 22 l4 28 12 -25 c12 -24
12 -24 6 7 -5 28 -3 32 11 27 11 -5 15 -15 12 -30 -3 -16 2 -24 15 -27 11 -3
18 0 18 10 0 8 -4 11 -10 8 -5 -3 -10 1 -10 9 0 19 5 20 30 6 13 -7 19 -6 24
5 4 11 -3 17 -24 21 -16 4 -35 13 -41 20 -6 8 -20 14 -31 14 -11 0 -16 5 -13
10 4 6 2 17 -4 24 -8 9 -8 22 -1 40 11 29 20 32 38 14 9 -9 12 -9 12 3 0 22
29 59 47 59 13 0 13 -3 3 -16z m-823 -142 c5 -21 7 -47 3 -57 -4 -11 -4 -29 0
-40 3 -11 5 -28 2 -38 -4 -18 -4 -18 -18 0 -15 20 -20 173 -5 173 5 0 13 -17
18 -38z m5 -228 c8 -58 -4 -124 -22 -124 -4 0 -8 32 -9 70 0 39 4 70 9 70 13
0 13 37 0 43 -6 3 -5 4 2 3 8 -2 16 -27 20 -62z m-2442 36 c0 -5 -2 -10 -4
-10 -3 0 -8 5 -11 10 -3 6 -1 10 4 10 6 0 11 -4 11 -10z m50 -29 c0 -6 5 -11
10 -11 6 0 10 -9 10 -20 0 -11 -4 -20 -10 -20 -5 0 -7 -8 -4 -17 5 -15 4 -16
-5 -3 -8 12 -14 13 -29 4 -15 -10 -21 -8 -30 7 -18 28 -14 56 8 62 11 3 20 13
20 22 0 15 2 15 15 1 8 -8 15 -19 15 -25z m-83 13 c-3 -3 -12 -4 -19 -1 -8 3
-5 6 6 6 11 1 17 -2 13 -5z m1415 -109 c0 -5 -5 -11 -10 -13 -5 -1 -9 4 -9 13
0 9 4 14 9 13 5 -2 10 -8 10 -13z m165 9 c-3 -3 -12 -4 -19 -1 -8 3 -5 6 6 6
11 1 17 -2 13 -5z m-2107 -59 c0 -8 -4 -15 -10 -15 -5 0 -7 7 -4 15 4 8 8 15
10 15 2 0 4 -7 4 -15z m7013 -342 c-4 -11 -3 -14 5 -9 8 4 10 2 6 -7 -3 -8
-14 -17 -25 -20 -15 -4 -19 0 -19 18 0 21 10 32 32 34 4 1 4 -6 1 -16z m-36
-113 c1 -11 -2 -20 -8 -20 -5 0 -9 -6 -9 -14 0 -7 -7 -19 -15 -26 -13 -11 -18
-11 -28 0 -9 10 -9 13 1 17 6 3 12 11 12 19 0 8 5 14 11 14 6 0 9 6 6 14 -3 8
-3 16 0 19 10 11 29 -4 30 -23z m-4097 -66 c0 -42 -1 -44 -27 -42 -43 3 -54
16 -47 57 9 50 11 51 44 39 27 -9 30 -14 30 -54z m-2871 -81 c-12 -15 -12 -16
6 -10 20 7 20 7 0 -8 -12 -10 -21 -12 -23 -5 -4 10 15 40 25 40 3 0 -1 -8 -8
-17z m7471 -23 c0 -5 -4 -10 -10 -10 -5 0 -10 5 -10 10 0 6 5 10 10 10 6 0 10
-4 10 -10z m165 -80 c3 -5 1 -10 -4 -10 -6 0 -11 5 -11 10 0 6 2 10 4 10 3 0
8 -4 11 -10z m-8420 -60 c3 -5 1 -10 -4 -10 -6 0 -11 5 -11 10 0 6 2 10 4 10
3 0 8 -4 11 -10z m85 -92 c0 -16 -40 -7 -50 11 -9 18 -8 18 20 8 17 -6 30 -15
30 -19z m1184 -14 c0 -25 -4 -29 -33 -30 -19 -1 -29 1 -23 5 7 4 8 12 2 20
-13 22 -2 37 27 35 23 -1 27 -5 27 -30z m56 -5 c0 -5 -7 -9 -15 -9 -15 0 -20
12 -9 23 8 8 24 -1 24 -14z m-106 -104 c3 -9 0 -15 -9 -15 -9 0 -12 6 -9 15 4
8 7 15 9 15 2 0 5 -7 9 -15z m100 -66 c-2 -4 -13 -7 -24 -6 -10 1 -17 4 -14 8
2 4 13 7 24 6 10 -1 17 -4 14 -8z m2346 -268 c0 -6 -4 -13 -10 -16 -5 -3 -10
1 -10 9 0 9 5 16 10 16 6 0 10 -4 10 -9z m2630 -11 c0 -5 -7 -7 -15 -4 -8 4
-15 8 -15 10 0 2 7 4 15 4 8 0 15 -4 15 -10z m1250 -206 c0 -8 -5 -12 -10 -9
-6 4 -8 11 -5 16 9 14 15 11 15 -7z m-3933 -349 c27 -27 9 -35 -22 -10 -24 19
-26 24 -12 25 10 0 25 -7 34 -15z m3148 -75 c3 -5 1 -10 -4 -10 -6 0 -11 5
-11 10 0 6 2 10 4 10 3 0 8 -4 11 -10z m-3599 -27 c-10 -10 -19 5 -10 18 6 11
8 11 12 0 2 -7 1 -15 -2 -18z m3566 -13 c-12 -10 -22 -23 -22 -30 0 -6 -5 -8
-10 -5 -6 4 -8 11 -4 16 3 5 0 8 -7 7 -7 -2 -15 5 -17 15 -5 22 36 39 62 24
19 -9 19 -10 -2 -27z m1128 -81 c0 -6 -4 -7 -10 -4 -5 3 -10 11 -10 16 0 6 5
7 10 4 6 -3 10 -11 10 -16z m-60 -36 c0 -19 -33 -33 -53 -22 -22 13 -22 35 0
47 19 11 53 -5 53 -25z m-743 1 c-3 -3 -12 -4 -19 -1 -8 3 -5 6 6 6 11 1 17
-2 13 -5z m731 -65 c-2 -6 3 -14 10 -16 6 -3 12 0 12 6 0 15 30 14 31 -1 2
-17 -2 -42 -7 -47 -2 -2 -10 2 -18 8 -8 7 -20 10 -25 7 -5 -4 -16 3 -24 15 -9
12 -17 16 -20 9 -3 -6 -4 -5 -3 2 2 7 8 13 14 13 5 0 14 3 18 8 10 10 14 9 12
-4z m-3412 -477 c1 -20 -55 -62 -83 -62 -24 0 -83 28 -83 40 0 3 17 12 37 19
20 8 47 24 60 37 l23 23 23 -22 c12 -12 23 -28 23 -35z m2838 -17 c-5 -15 -3
-17 6 -8 18 17 51 -17 34 -34 -7 -7 -20 -10 -28 -7 -9 3 -23 1 -31 -6 -17 -14
-19 -7 -5 20 7 13 7 21 0 25 -5 3 -10 17 -10 31 0 22 2 23 20 12 14 -9 18 -19
14 -33z m-49 4 c-10 -15 -22 -10 -28 11 -4 17 -2 18 14 9 11 -5 17 -14 14 -20z
m-2965 2 c0 -12 -29 -23 -42 -15 -6 4 -5 10 3 15 18 11 39 11 39 0z m464 1
c10 -16 -42 -61 -64 -55 -29 8 -25 20 13 43 35 22 43 24 51 12z m2416 -21 c0
-5 -6 -12 -12 -15 -10 -5 -10 -7 0 -12 19 -9 14 -24 -8 -24 -21 0 -60 28 -60
43 0 5 6 4 14 -2 14 -12 46 -5 46 10 0 5 5 9 10 9 6 0 10 -4 10 -9z m-2930
-11 c0 -5 -2 -10 -4 -10 -3 0 -8 5 -11 10 -3 6 -1 10 4 10 6 0 11 -4 11 -10z
m45 0 c-3 -5 -12 -10 -18 -10 -7 0 -6 4 3 10 19 12 23 12 15 0z m660 -10 c0
-7 -8 -18 -18 -24 -25 -16 -44 14 -20 32 20 14 38 11 38 -8z m2000 -20 c3 -11
11 -20 17 -20 5 0 8 -7 4 -15 -4 -10 1 -15 15 -15 15 0 19 -5 16 -15 -9 -22
12 -29 32 -11 17 16 20 16 36 0 14 -14 21 -15 35 -6 13 8 20 8 22 1 2 -6 15 0
29 13 33 30 60 26 57 -10 -2 -15 -7 -30 -13 -34 -5 -4 -1 -8 10 -8 12 0 27
-13 37 -30 15 -27 15 -32 3 -36 -8 -4 -13 -9 -10 -13 2 -4 -3 -20 -11 -35 -18
-36 -18 -42 1 -26 18 15 37 9 26 -8 -5 -8 -20 -15 -35 -15 -14 -1 -26 -4 -26
-7 0 -3 -29 -5 -64 -5 -35 0 -62 3 -60 7 3 4 -9 22 -27 39 -20 20 -28 34 -21
38 6 4 10 20 9 36 -2 24 2 30 16 28 12 0 16 4 13 13 -4 11 8 14 57 16 l62 2
-57 3 c-32 2 -58 7 -58 12 0 4 -30 6 -67 5 -50 -3 -62 -1 -45 6 20 8 21 12 10
30 -7 11 -21 23 -32 26 -12 4 -15 9 -7 13 6 4 9 15 5 24 -3 9 -1 17 4 17 6 0
14 -9 17 -20z m81 -18 c0 -14 -6 -17 -24 -14 -21 4 -22 6 -8 14 9 5 14 13 11
19 -3 5 0 6 7 4 8 -3 14 -14 14 -23z m74 13 c7 -8 21 -15 32 -15 17 0 18 -3 8
-15 -16 -19 -40 -19 -40 0 0 9 -7 18 -15 21 -16 7 -21 24 -6 24 5 0 14 -7 21
-15z m256 -251 c-3 -8 -1 -14 3 -14 5 0 4 -11 -2 -24 -16 -34 -23 -25 -19 23
2 23 8 38 14 35 5 -3 7 -12 4 -20z m-543 -62 c15 -19 0 -27 -18 -8 -11 11 -14
23 -9 38 7 22 8 22 12 3 2 -11 9 -26 15 -33z m227 16 c0 -15 -15 -8 -28 12
-12 19 -11 20 8 8 11 -7 20 -16 20 -20z m-55 12 c3 -5 2 -10 -4 -10 -5 0 -13
5 -16 10 -3 6 -2 10 4 10 5 0 13 -4 16 -10z m577 -33 c7 -13 5 -17 -7 -17 -8
0 -15 5 -15 10 0 6 -7 10 -16 10 -8 0 -13 4 -10 9 9 14 37 7 48 -12z m-112 -2
c0 -8 -4 -15 -10 -15 -5 0 -7 7 -4 15 4 8 8 15 10 15 2 0 4 -7 4 -15z m-484
-27 c1 -9 -4 -22 -12 -29 -11 -9 -19 -8 -34 6 -19 17 -19 19 -2 31 22 18 44
14 48 -8z m1744 8 c0 -21 -20 -30 -33 -17 -8 8 -6 11 7 11 9 0 14 5 11 10 -3
6 -1 10 4 10 6 0 11 -6 11 -14z m35 -6 c3 -5 -1 -10 -9 -10 -9 0 -16 5 -16 10
0 6 4 10 9 10 6 0 13 -4 16 -10z m-1759 -159 c-4 -5 0 -11 6 -14 22 -8 3 -16
-21 -10 -23 6 -23 7 -6 20 22 15 28 17 21 4z m89 -31 c-3 -5 -1 -10 4 -10 6 0
11 -9 11 -20 0 -27 -19 -25 -29 3 -9 24 -6 37 10 37 6 0 7 -4 4 -10z m875 -40
c0 -5 -4 -10 -10 -10 -5 0 -10 5 -10 10 0 6 5 10 10 10 6 0 10 -4 10 -10z"/>
<path d="M8570 11071 c13 -11 29 -17 34 -14 11 8 -22 33 -43 33 -11 0 -9 -6 9
-19z"/>
<path d="M4104 6881 c-2 -2 -4 -10 -4 -17 0 -16 52 -3 58 14 3 11 -43 14 -54
3z"/>
<path d="M2180 11250 c0 -5 5 -10 11 -10 5 0 7 5 4 10 -3 6 -8 10 -11 10 -2 0
-4 -4 -4 -10z"/>
<path d="M1942 11118 c-18 -18 -15 -23 11 -23 18 0 23 5 19 18 -5 20 -13 22
-30 5z"/>
<path d="M8010 11041 c0 -32 17 -33 54 -5 24 17 17 25 -24 30 -27 3 -30 1 -30
-25z"/>
<path d="M757 10980 c9 -16 25 -30 35 -30 24 0 23 5 -9 35 -37 34 -48 32 -26
-5z"/>
<path d="M6736 10992 c-9 -15 11 -33 41 -35 23 -1 29 -6 25 -19 -2 -10 1 -18
8 -18 9 0 9 -4 -1 -17 -13 -15 -11 -16 16 -11 20 4 42 -1 68 -15 33 -19 38
-26 36 -57 -3 -60 -1 -67 16 -43 10 14 14 40 12 75 -2 47 -5 54 -20 50 -22 -6
-50 17 -43 35 8 20 -31 16 -43 -4 -10 -16 -10 -16 -11 3 0 11 6 26 13 34 10
12 9 12 -5 1 -11 -8 -18 -9 -18 -3 0 6 -13 8 -30 6 -21 -4 -32 -1 -36 10 -7
17 -20 21 -28 8z m159 -92 c3 -5 1 -10 -4 -10 -6 0 -11 5 -11 10 0 6 2 10 4
10 3 0 8 -4 11 -10z"/>
<path d="M392 10942 c-6 -14 -9 -28 -6 -31 4 -3 9 0 11 7 6 17 23 15 23 -3 0
-8 3 -16 8 -16 51 -8 60 -6 65 11 6 23 -29 53 -63 55 -19 1 -29 -5 -38 -23z"/>
<path d="M7007 10949 c4 -13 0 -19 -11 -19 -9 0 -21 -12 -26 -26 -13 -33 -13
-31 9 -37 12 -3 28 4 42 19 12 13 19 24 15 24 -4 0 -2 8 3 19 8 15 6 20 -13
29 -21 9 -23 8 -19 -9z"/>
<path d="M4448 10923 c12 -2 32 -2 45 0 12 2 2 4 -23 4 -25 0 -35 -2 -22 -4z"/>
<path d="M535 10890 c-11 -5 -32 -9 -47 -9 -31 -1 -37 -23 -14 -54 13 -16 15
-15 25 13 9 27 15 31 43 30 48 -3 52 -2 38 15 -14 17 -17 17 -45 5z"/>
<path d="M6750 10870 c0 -5 5 -12 10 -15 6 -3 10 -12 10 -18 0 -8 -3 -8 -9 2
-7 10 -13 11 -30 2 -18 -10 -19 -15 -10 -32 10 -20 10 -20 -16 -3 -20 13 -25
14 -23 3 2 -8 -3 -13 -9 -11 -7 1 -13 -2 -13 -7 0 -5 -3 -18 -6 -28 -5 -15 -4
-15 5 -3 6 8 11 11 11 7 0 -5 10 -1 21 7 12 8 28 12 36 9 12 -5 14 -1 8 15 -7
24 1 27 25 12 13 -9 13 -11 0 -19 -12 -8 -11 -11 5 -16 11 -4 30 -11 42 -17
21 -10 43 -4 43 11 0 4 -12 13 -26 20 -16 7 -24 17 -21 25 3 8 -1 17 -9 20 -8
3 -14 12 -14 20 0 7 -7 16 -15 20 -8 3 -15 1 -15 -4z"/>
<path d="M436 10810 c-17 -6 -16 -8 7 -23 19 -12 26 -13 30 -4 7 18 -16 35
-37 27z"/>
<path d="M6840 10816 c0 -2 8 -10 18 -17 15 -13 16 -12 3 4 -13 16 -21 21 -21
13z"/>
<path d="M6890 10781 c0 -5 5 -13 10 -16 6 -3 10 -2 10 4 0 5 -4 13 -10 16 -5
3 -10 2 -10 -4z"/>
<path d="M410 10729 c0 -5 5 -7 10 -4 6 3 10 8 10 11 0 2 -4 4 -10 4 -5 0 -10
-5 -10 -11z"/>
<path d="M7155 10690 c3 -5 8 -10 11 -10 2 0 4 5 4 10 0 6 -5 10 -11 10 -5 0
-7 -4 -4 -10z"/>
<path d="M1203 10675 c-9 -10 -7 -14 10 -19 27 -7 35 1 16 18 -12 12 -16 12
-26 1z"/>
<path d="M7590 10679 c0 -5 5 -7 10 -4 6 3 10 8 10 11 0 2 -4 4 -10 4 -5 0
-10 -5 -10 -11z"/>
<path d="M401 10671 c-8 -6 -9 -11 -3 -15 6 -3 14 -1 17 5 9 14 2 20 -14 10z"/>
<path d="M7160 10599 c0 -14 5 -19 15 -15 8 3 20 0 27 -7 7 -7 24 -13 38 -15
l25 -2 -25 23 c-14 13 -38 27 -53 31 -23 5 -27 3 -27 -15z"/>
<path d="M5498 10450 l-16 -29 33 4 c27 4 37 0 49 -17 9 -12 18 -19 21 -17 7
7 -18 59 -28 59 -5 0 -5 5 -2 10 3 6 1 10 -4 10 -6 0 -11 -7 -11 -15 0 -16
-12 -20 -23 -8 -4 3 -2 12 4 20 6 7 8 13 3 13 -5 0 -17 -13 -26 -30z"/>
<path d="M1435 10380 c-3 -5 1 -10 9 -10 9 0 16 5 16 10 0 6 -4 10 -9 10 -6 0
-13 -4 -16 -10z"/>
<path d="M8640 10260 c0 -5 5 -10 10 -10 6 0 10 5 10 10 0 6 -4 10 -10 10 -5
0 -10 -4 -10 -10z"/>
<path d="M1520 10220 c0 -5 7 -10 16 -10 8 0 12 5 9 10 -3 6 -10 10 -16 10 -5
0 -9 -4 -9 -10z"/>
<path d="M8642 10204 c-15 -16 -8 -34 14 -34 15 0 16 6 6 31 -6 15 -9 15 -20
3z"/>
<path d="M5462 10201 c-10 -6 -10 -10 3 -21 13 -11 15 -9 15 9 0 24 0 24 -18
12z"/>
<path d="M320 10171 c0 -5 -3 -17 -7 -27 -4 -11 -3 -15 4 -11 14 9 24 47 12
47 -5 0 -9 -4 -9 -9z"/>
<path d="M1535 10170 c3 -5 11 -10 16 -10 6 0 7 5 4 10 -3 6 -11 10 -16 10 -6
0 -7 -4 -4 -10z"/>
<path d="M8602 10141 c-1 -45 5 -50 13 -11 2 13 1 30 -4 38 -6 10 -9 1 -9 -27z"/>
<path d="M5490 10160 c0 -11 26 -37 51 -50 36 -20 21 17 -16 39 -19 11 -35 16
-35 11z"/>
<path d="M341 10090 c11 -31 29 -32 29 0 0 15 -18 30 -35 30 -2 0 1 -13 6 -30z"/>
<path d="M8626 10111 c-4 -7 -5 -15 -2 -18 9 -9 19 4 14 18 -4 11 -6 11 -12 0z"/>
<path d="M410 10045 c15 -18 7 -19 -23 -4 -18 9 -18 7 5 -15 32 -30 43 -32 52
-9 5 11 1 22 -10 30 -24 18 -39 16 -24 -2z"/>
<path d="M1295 10040 c-3 -5 -1 -10 4 -10 6 0 11 5 11 10 0 6 -2 10 -4 10 -3
0 -8 -4 -11 -10z"/>
<path d="M440 9990 c0 -7 -8 -10 -20 -7 -11 3 -18 1 -14 -4 3 -5 14 -9 25 -9
11 0 33 -10 48 -21 16 -12 34 -18 40 -15 15 10 -8 55 -28 54 -9 0 -24 3 -33 7
-12 4 -18 3 -18 -5z"/>
<path d="M1096 9918 c5 -8 2 -9 -9 -5 -10 3 -17 2 -17 -3 0 -6 14 -10 31 -10
27 0 30 2 19 15 -15 18 -34 20 -24 3z"/>
<path d="M3430 9920 c0 -5 5 -10 11 -10 5 0 7 5 4 10 -3 6 -8 10 -11 10 -2 0
-4 -4 -4 -10z"/>
<path d="M8210 9919 c0 -5 5 -7 10 -4 6 3 10 8 10 11 0 2 -4 4 -10 4 -5 0 -10
-5 -10 -11z"/>
<path d="M8190 9893 c0 -7 -6 -13 -12 -13 -18 0 -41 -51 -28 -64 7 -7 14 -4
23 9 8 10 19 15 25 11 7 -4 12 -3 12 3 0 5 -6 12 -12 14 -10 4 -10 7 -1 14 8
6 9 14 3 23 -7 10 -10 11 -10 3z m-28 -65 c-7 -7 -12 -8 -12 -2 0 14 12 26 19
19 2 -3 -1 -11 -7 -17z"/>
<path d="M1128 9873 c7 -3 16 -2 19 1 4 3 -2 6 -13 5 -11 0 -14 -3 -6 -6z"/>
<path d="M8230 9838 c0 -22 16 -24 24 -2 8 21 8 21 -9 21 -8 0 -15 -9 -15 -19z"/>
<path d="M8260 9815 c-8 -9 -8 -15 -2 -15 12 0 26 19 19 26 -2 2 -10 -2 -17
-11z"/>
<path d="M2074 9805 c3 -9 6 -21 6 -26 0 -5 7 -9 15 -9 21 0 12 44 -10 49 -13
2 -16 -1 -11 -14z"/>
<path d="M8260 9772 c0 -12 19 -26 26 -19 2 2 -2 10 -11 17 -9 8 -15 8 -15 2z"/>
<path d="M8204 9738 c-3 -4 -2 -8 3 -9 4 0 23 -2 41 -5 17 -2 32 0 32 5 0 11
-70 20 -76 9z"/>
<path d="M2620 9729 c0 -5 5 -7 10 -4 6 3 10 8 10 11 0 2 -4 4 -10 4 -5 0 -10
-5 -10 -11z"/>
<path d="M3260 9736 c0 -2 7 -6 15 -10 8 -3 15 -1 15 4 0 6 -7 10 -15 10 -8 0
-15 -2 -15 -4z"/>
<path d="M1137 9723 c-11 -18 -11 -67 0 -70 7 -3 11 10 10 36 -2 43 -3 46 -10
34z"/>
<path d="M800 9710 c0 -7 24 -20 36 -20 13 0 1 19 -16 23 -11 3 -20 2 -20 -3z"/>
<path d="M1033 9694 c-6 -13 -7 -24 -2 -24 12 0 31 38 21 44 -4 2 -12 -7 -19
-20z"/>
<path d="M2640 9699 c0 -18 20 -49 32 -49 9 0 9 3 0 12 -7 7 -12 20 -12 30 0
10 -4 18 -10 18 -5 0 -10 -5 -10 -11z"/>
<path d="M3310 9689 c0 -5 5 -7 10 -4 6 3 10 8 10 11 0 2 -4 4 -10 4 -5 0 -10
-5 -10 -11z"/>
<path d="M8150 9691 c0 -6 -10 -11 -22 -11 -17 0 -19 -3 -9 -9 16 -10 60 0 61
14 1 6 -6 11 -14 13 -9 2 -16 -1 -16 -7z"/>
<path d="M8070 9680 c0 -5 5 -10 11 -10 5 0 7 5 4 10 -3 6 -8 10 -11 10 -2 0
-4 -4 -4 -10z"/>
<path d="M6000 9660 c0 -5 5 -10 10 -10 6 0 10 5 10 10 0 6 -4 10 -10 10 -5 0
-10 -4 -10 -10z"/>
<path d="M1018 9641 c-12 -14 -13 -21 -3 -35 11 -15 13 -13 18 16 6 41 5 42
-15 19z"/>
<path d="M2712 9653 c-6 -2 -10 -9 -6 -14 8 -14 21 -11 21 6 0 8 -1 15 -1 14
-1 0 -7 -3 -14 -6z"/>
<path d="M1177 9643 c-10 -9 -9 -43 1 -43 5 0 14 -10 20 -22 6 -13 11 -17 11
-10 1 7 5 11 10 7 5 -3 2 13 -6 35 -16 39 -23 46 -36 33z"/>
<path d="M2952 9639 c2 -6 6 -10 8 -9 3 1 17 -3 33 -9 36 -14 35 -5 -3 14 -34
18 -43 19 -38 4z"/>
<path d="M2800 9626 c0 -8 5 -18 10 -21 6 -3 10 1 10 9 0 8 -4 18 -10 21 -5 3
-10 -1 -10 -9z"/>
<path d="M2865 9610 c-20 -4 -25 -9 -15 -13 33 -12 66 -16 79 -8 11 7 9 11 -7
20 -11 6 -22 10 -24 10 -2 -1 -16 -5 -33 -9z"/>
<path d="M1191 9532 c-7 -14 -6 -18 10 -18 12 0 19 7 19 18 0 10 -4 18 -10 18
-5 0 -14 -8 -19 -18z"/>
<path d="M985 9423 c-12 -29 -14 -63 -4 -63 5 0 9 6 10 13 0 6 3 24 5 40 5 31
0 36 -11 10z"/>
<path d="M1055 9370 c-4 -6 -15 -8 -26 -5 -14 5 -19 2 -18 -12 0 -10 3 -13 5
-6 3 7 11 10 18 7 7 -3 19 2 26 11 7 8 10 15 7 15 -3 0 -9 -5 -12 -10z"/>
<path d="M6405 9370 c-3 -5 -2 -10 4 -10 5 0 13 5 16 10 3 6 2 10 -4 10 -5 0
-13 -4 -16 -10z"/>
<path d="M3660 7161 c0 -5 7 -11 15 -15 9 -3 15 0 15 9 0 8 -7 15 -15 15 -8 0
-15 -4 -15 -9z"/>
<path d="M6190 7160 c0 -5 5 -10 10 -10 6 0 10 5 10 10 0 6 -4 10 -10 10 -5 0
-10 -4 -10 -10z"/>
<path d="M3620 7150 c-12 -8 -11 -10 8 -10 12 0 22 5 22 10 0 13 -11 13 -30 0z"/>
<path d="M5895 7135 c11 -8 25 -19 32 -25 7 -5 17 -10 22 -10 5 0 13 -5 17
-11 4 -8 -1 -9 -15 -4 -21 6 -21 5 -9 -15 10 -18 10 -24 1 -27 -17 -6 -16 -23
1 -23 8 0 16 7 19 14 10 25 61 46 93 37 18 -5 24 -10 16 -15 -9 -5 -8 -11 4
-23 13 -14 17 -14 25 -2 9 12 12 11 21 -2 9 -13 17 -15 40 -7 16 6 41 7 56 2
15 -4 30 -8 34 -8 14 -2 20 -16 20 -50 0 -42 13 -55 27 -27 8 13 8 28 1 46
-15 40 -12 48 13 41 19 -4 26 0 40 28 19 40 13 73 -15 82 -21 6 -41 -6 -20
-13 16 -6 15 -23 -2 -23 -8 0 -17 -7 -20 -16 -3 -9 -12 -14 -20 -11 -7 3 -18
1 -24 -5 -13 -13 -32 -2 -32 18 0 8 -7 14 -15 14 -8 0 -15 4 -15 8 0 25 -171
35 -186 11 -3 -5 0 -9 5 -9 6 0 11 -7 11 -15 0 -8 -4 -15 -10 -15 -5 0 -10 6
-10 13 0 7 -12 24 -27 37 -21 18 -30 21 -44 12 -12 -8 -20 -8 -24 -2 -3 6 -12
10 -18 10 -7 0 -3 -7 8 -15z"/>
<path d="M5987 6985 c-4 -8 -3 -16 1 -19 4 -3 9 4 9 15 2 23 -3 25 -10 4z"/>
<path d="M6090 6986 c-28 -9 -34 -15 -32 -34 3 -18 8 -21 27 -16 32 8 50 -3
35 -21 -13 -16 -6 -20 39 -20 19 0 36 6 38 13 3 6 -3 12 -14 12 -28 1 -55 26
-57 54 0 14 -1 26 -1 25 0 -1 -16 -6 -35 -13z"/>
<path d="M6206 6939 c3 -5 11 -9 19 -9 8 0 19 -8 25 -17 10 -17 11 -17 8 1 -2
12 -14 23 -31 27 -16 4 -25 3 -21 -2z"/>
<path d="M5935 6920 c3 -5 8 -10 11 -10 2 0 4 5 4 10 0 6 -5 10 -11 10 -5 0
-7 -4 -4 -10z"/>
<path d="M6017 6899 c-12 -7 -16 -17 -12 -30 5 -14 2 -17 -9 -13 -9 3 -19 -3
-27 -17 -6 -13 -22 -34 -35 -48 -17 -18 -23 -36 -22 -62 1 -20 -2 -41 -6 -47
-3 -6 3 -13 14 -17 27 -9 70 19 70 45 0 11 6 20 14 20 21 0 24 42 4 64 -16 18
-16 20 6 50 13 17 21 37 18 45 -2 8 0 11 6 7 5 -3 21 -2 34 3 22 9 22 10 -7
10 -16 0 -38 -4 -48 -10z m-27 -138 c3 -2 -3 -1 -12 2 -11 4 -21 0 -26 -10 -6
-10 -11 -12 -16 -4 -4 6 -1 17 6 25 12 13 21 11 48 -13z m-45 -50 c-3 -6 -11
-11 -17 -11 -6 0 -6 6 2 15 14 17 26 13 15 -4z"/>
<path d="M6260 6780 c0 -5 4 -10 9 -10 6 0 13 5 16 10 3 6 -1 10 -9 10 -9 0
-16 -4 -16 -10z"/>
<path d="M6380 6740 c-9 -6 -10 -10 -3 -10 6 0 15 5 18 10 8 12 4 12 -15 0z"/>
<path d="M3492 6676 c2 -19 5 -22 15 -15 6 6 9 17 6 25 -9 23 -23 16 -21 -10z"/>
<path d="M6393 6678 c-11 -19 -16 -65 -6 -53 16 18 33 65 23 65 -5 0 -12 -6
-17 -12z"/>
<path d="M0 6495 c0 -102 4 -185 9 -185 13 0 74 28 91 42 33 28 91 108 100
137 7 27 3 38 -32 91 -42 63 -95 100 -143 100 l-25 0 0 -185z"/>
<path d="M6103 6657 c-4 -8 -16 -16 -26 -20 -9 -4 -22 -18 -27 -32 -5 -14 -13
-25 -16 -25 -4 0 -4 3 -1 7 4 3 -3 11 -16 18 -19 9 -24 8 -33 -8 -10 -18 -8
-57 3 -57 2 0 14 5 25 11 15 8 19 8 14 0 -4 -6 0 -11 8 -11 9 0 16 7 16 16 0
10 6 14 18 10 68 -20 72 -20 71 10 -1 17 -3 22 -6 12 -2 -10 -9 -18 -15 -18
-6 0 -8 9 -5 20 3 11 0 20 -5 20 -6 0 -1 9 11 19 13 11 20 25 16 30 -9 15 -22
14 -32 -2z"/>
<path d="M5945 6650 c-8 -13 -1 -24 14 -19 6 3 7 10 2 18 -6 10 -10 10 -16 1z"/>
<path d="M3549 6636 c10 -12 8 -13 -11 -9 -22 6 -21 4 5 -17 23 -18 30 -20 43
-9 14 12 14 15 -6 31 -27 22 -48 24 -31 4z"/>
<path d="M6015 6640 c-3 -5 -4 -10 -1 -10 2 0 11 -3 20 -6 11 -4 16 -1 16 10
0 18 -25 22 -35 6z"/>
<path d="M5934 6611 c4 -5 0 -11 -6 -14 -7 -2 -9 -8 -5 -13 4 -5 12 -2 17 6
13 20 12 30 -1 30 -5 0 -8 -4 -5 -9z"/>
<path d="M3580 6582 c0 -6 -8 -13 -17 -15 -17 -4 -17 -5 -1 -6 9 0 34 -12 54
-26 21 -15 41 -22 46 -17 13 13 -12 61 -31 60 -9 0 -24 3 -33 7 -11 4 -18 3
-18 -3z"/>
<path d="M3682 6539 c1 -16 7 -29 13 -29 7 0 18 -7 25 -15 7 -9 22 -12 40 -9
24 5 31 2 43 -22 l15 -28 0 27 c0 16 -6 27 -14 27 -7 0 -18 10 -25 21 -9 17
-13 19 -20 8 -4 -7 -9 -11 -11 -9 -2 3 -8 14 -13 24 -6 10 -21 23 -32 27 -19
7 -22 4 -21 -22z"/>
<path d="M5623 6412 c-23 -11 -33 -23 -33 -39 0 -20 3 -21 18 -12 19 12 56 59
50 63 -1 2 -18 -3 -35 -12z"/>
<path d="M3910 6099 c0 -5 5 -7 10 -4 6 3 10 8 10 11 0 2 -4 4 -10 4 -5 0 -10
-5 -10 -11z"/>
<path d="M3942 6062 c-17 -11 -4 -45 15 -38 8 3 17 6 19 6 2 0 4 7 4 15 0 9
-6 12 -17 8 -11 -4 -14 -3 -9 5 8 14 6 15 -12 4z"/>
<path d="M3962 6004 c-8 -9 -22 -12 -34 -8 -18 5 -19 4 -7 -18 7 -12 12 -29
11 -35 -2 -7 4 -13 11 -13 9 0 19 17 25 42 13 49 12 51 -6 32z"/>
<path d="M775 5900 c-3 -5 -1 -10 4 -10 6 0 11 5 11 10 0 6 -2 10 -4 10 -3 0
-8 -4 -11 -10z"/>
<path d="M3692 5876 c-6 -22 -10 -41 -8 -43 7 -7 28 56 23 69 -2 7 -9 -5 -15
-26z"/>
<path d="M3890 5902 c0 -10 41 -35 47 -28 11 11 -7 36 -27 36 -11 0 -20 -3
-20 -8z"/>
<path d="M2980 5805 c0 -8 5 -15 10 -15 6 0 10 7 10 15 0 8 -4 15 -10 15 -5 0
-10 -7 -10 -15z"/>
<path d="M3656 5775 c-9 -26 -7 -32 5 -12 6 10 9 21 6 23 -2 3 -7 -2 -11 -11z"/>
<path d="M3895 5670 c3 -5 10 -10 16 -10 5 0 9 5 9 10 0 6 -7 10 -16 10 -8 0
-12 -4 -9 -10z"/>
<path d="M8266 5477 c3 -10 9 -15 12 -12 3 3 0 11 -7 18 -10 9 -11 8 -5 -6z"/>
<path d="M8317 5454 c3 -8 9 -12 13 -9 4 3 7 -3 6 -13 -1 -11 7 -18 23 -20 16
-3 22 0 18 10 -2 7 -9 12 -15 11 -5 -1 -8 5 -5 15 3 12 -3 17 -21 18 -17 1
-23 -2 -19 -12z"/>
<path d="M8400 5459 c0 -6 -7 -9 -15 -5 -8 3 -15 2 -15 -3 0 -10 30 -19 47
-14 7 2 9 11 6 19 -6 17 -23 19 -23 3z"/>
<path d="M8541 5418 c-13 -20 -12 -22 1 -11 8 7 18 10 22 6 4 -4 4 0 0 10 -8
21 -6 21 -23 -5z"/>
<path d="M8593 5400 c-13 -5 -23 -12 -23 -16 0 -3 7 -4 15 0 22 8 45 -22 45
-60 0 -22 4 -33 11 -29 11 8 3 62 -13 82 -5 7 -7 17 -3 23 7 12 -2 12 -32 0z"/>
<path d="M8658 5393 c7 -3 16 -2 19 1 4 3 -2 6 -13 5 -11 0 -14 -3 -6 -6z"/>
<path d="M8304 5356 c-21 -23 -25 -36 -10 -36 8 0 17 8 19 18 4 15 5 15 6 1 0
-9 8 -19 16 -23 20 -7 19 6 -3 31 -12 15 -20 17 -28 9z"/>
<path d="M5392 5232 c-29 -59 -81 -161 -117 -227 -64 -120 -74 -145 -55 -145
19 0 240 463 227 476 -2 2 -27 -45 -55 -104z"/>
<path d="M125 5290 c3 -5 8 -10 11 -10 2 0 4 5 4 10 0 6 -5 10 -11 10 -5 0 -7
-4 -4 -10z"/>
<path d="M8457 5289 c6 -6 9 -18 5 -27 -4 -11 -1 -14 11 -9 9 3 19 2 22 -3 8
-13 45 -13 45 0 0 6 0 12 0 15 0 3 -2 5 -5 5 -2 1 -20 7 -39 15 -42 18 -54 19
-39 4z"/>
<path d="M8500 5203 c15 -7 12 -21 -5 -26 -11 -4 -10 -4 2 -3 21 2 25 28 5 32
-7 1 -8 0 -2 -3z"/>
<path d="M136 5183 c-6 -14 -5 -15 5 -6 7 7 10 15 7 18 -3 3 -9 -2 -12 -12z"/>
<path d="M8600 5130 c0 -27 11 -50 23 -50 7 0 7 4 -1 12 -9 9 -7 17 9 34 l20
22 -25 0 c-18 0 -26 -6 -26 -18z"/>
<path d="M8480 5120 c0 -6 7 -10 15 -10 8 0 15 2 15 4 0 2 -7 6 -15 10 -8 3
-15 1 -15 -4z"/>
<path d="M8742 5114 c-21 -15 -31 -44 -14 -44 5 0 18 14 30 30 25 33 19 38
-16 14z"/>
<path d="M60 5110 c0 -5 5 -10 11 -10 5 0 7 5 4 10 -3 6 -8 10 -11 10 -2 0 -4
-4 -4 -10z"/>
<path d="M70 5069 c0 -5 5 -7 10 -4 6 3 10 8 10 11 0 2 -4 4 -10 4 -5 0 -10
-5 -10 -11z"/>
<path d="M12 4794 c-7 -8 -12 -41 -12 -83 0 -55 3 -70 17 -75 15 -6 15 -8 -1
-19 -18 -13 -19 -59 -2 -57 5 1 13 -4 17 -12 7 -10 9 -10 9 0 0 6 5 12 11 12
7 0 9 -9 5 -24 -5 -19 -2 -23 17 -22 15 1 23 8 25 24 4 27 28 29 35 2 3 -11
11 -20 18 -20 7 0 9 3 6 7 -4 3 2 12 13 20 24 17 26 33 4 33 -12 0 -15 6 -10
25 4 14 2 25 -3 25 -5 0 -7 9 -4 20 3 11 1 20 -5 20 -16 0 -30 -30 -25 -50 5
-19 -22 -34 -39 -23 -7 4 -8 1 -4 -6 10 -15 -25 -11 -36 4 -14 18 -8 26 12 20
14 -5 20 -2 20 9 0 9 4 16 9 16 12 0 41 28 41 39 0 5 -18 21 -41 37 -23 15
-37 30 -31 32 14 4 4 36 -16 49 -13 7 -21 7 -30 -3z"/>
<path d="M210 4785 c0 -8 2 -15 4 -15 2 0 6 7 10 15 3 8 1 15 -4 15 -6 0 -10
-7 -10 -15z"/>
<path d="M1428 4715 c-3 -28 -1 -35 11 -32 9 2 15 9 13 15 -1 7 2 22 8 32 9
17 7 20 -9 20 -14 0 -20 -9 -23 -35z"/>
<path d="M250 4684 c0 -8 5 -12 10 -9 6 3 10 10 10 16 0 5 -4 9 -10 9 -5 0
-10 -7 -10 -16z"/>
<path d="M6650 4666 c0 -2 7 -9 15 -16 12 -10 15 -10 15 4 0 9 -7 16 -15 16
-8 0 -15 -2 -15 -4z"/>
<path d="M279 4658 c-6 -25 -3 -48 8 -52 8 -3 11 -1 8 4 -3 6 -2 10 4 10 5 0
14 -7 18 -15 7 -13 11 -12 26 5 16 19 16 20 -7 20 -14 0 -32 7 -40 16 -9 8
-16 14 -17 12z"/>
<path d="M6620 4650 c-13 -8 -12 -10 3 -10 9 0 17 5 17 10 0 12 -1 12 -20 0z"/>
<path d="M1410 4642 c0 -16 28 -34 34 -23 4 6 -3 15 -14 21 -11 6 -20 7 -20 2z"/>
<path d="M1430 4571 c0 -5 5 -13 10 -16 6 -3 10 -2 10 4 0 5 -4 13 -10 16 -5
3 -10 2 -10 -4z"/>
<path d="M6578 4540 c4 -3 19 -11 35 -18 27 -12 38 0 15 15 -15 9 -62 12 -50
3z"/>
<path d="M6555 4500 c-4 -7 -2 -17 4 -23 6 -6 11 -24 11 -39 0 -33 15 -35 50
-9 20 16 22 21 11 35 -7 9 -18 16 -24 16 -6 0 -18 7 -28 16 -12 11 -19 12 -24
4z"/>
<path d="M8190 4440 c0 -5 4 -10 9 -10 5 0 16 -3 25 -6 11 -4 16 -1 16 10 0
10 -9 16 -25 16 -14 0 -25 -4 -25 -10z"/>
<path d="M8200 4409 c0 -5 -4 -8 -9 -5 -5 3 -8 -5 -7 -19 1 -30 11 -32 26 -6
13 25 13 41 0 41 -5 0 -10 -5 -10 -11z"/>
<path d="M1610 4390 c0 -5 5 -10 10 -10 6 0 10 5 10 10 0 6 -4 10 -10 10 -5 0
-10 -4 -10 -10z"/>
<path d="M4057 4360 c7 -25 23 -37 23 -17 0 8 -6 20 -14 26 -12 10 -13 8 -9
-9z"/>
<path d="M6491 4174 c0 -11 3 -14 6 -6 3 7 2 16 -1 19 -3 4 -6 -2 -5 -13z"/>
<path d="M803 4018 c-17 -18 -35 -46 -40 -62 -6 -21 -19 -33 -39 -38 -16 -5
-123 -12 -239 -16 l-210 -7 205 -6 c229 -7 260 -15 304 -72 30 -39 38 -43 116
-63 72 -18 139 -17 183 1 36 15 77 58 77 81 0 7 12 21 26 30 20 14 61 19 197
24 l172 7 -125 2 c-69 1 -156 6 -195 11 -63 9 -74 14 -105 48 -55 59 -133 92
-222 92 -71 0 -76 -2 -105 -32z"/>
<path d="M4095 3950 c-3 -5 -1 -10 4 -10 6 0 11 5 11 10 0 6 -2 10 -4 10 -3 0
-8 -4 -11 -10z"/>
<path d="M9031 3833 c-12 -13 -12 -16 0 -24 9 -6 15 -4 17 6 6 26 -2 34 -17
18z"/>
<path d="M4030 3820 c0 -5 5 -10 11 -10 5 0 7 5 4 10 -3 6 -8 10 -11 10 -2 0
-4 -4 -4 -10z"/>
<path d="M4121 3797 c-15 -19 -2 -29 15 -12 8 7 14 16 14 19 0 11 -17 6 -29
-7z"/>
<path d="M1268 3763 c-25 -29 -38 -60 -38 -92 0 -29 -2 -31 -37 -31 l-37 0 27
-28 c30 -32 35 -72 12 -112 -23 -41 -19 -125 9 -166 l24 -35 28 48 c28 46 43
81 66 151 13 36 25 39 74 16 32 -16 36 -15 54 1 42 38 20 72 -50 77 -45 3 -45
3 -48 43 -1 22 -10 64 -19 93 -18 56 -38 66 -65 35z"/>
<path d="M9011 3740 l-24 -18 22 -12 c26 -13 26 -13 35 17 9 29 -5 35 -33 13z"/>
<path d="M3807 3645 c-15 -10 -17 -18 -8 -32 10 -17 10 -16 11 4 0 12 8 27 18
32 9 6 13 10 7 10 -5 0 -18 -6 -28 -14z"/>
<path d="M3520 3593 c0 -24 16 -48 23 -36 8 13 -3 53 -14 53 -5 0 -9 -8 -9
-17z"/>
<path d="M3566 3594 c-6 -16 9 -44 24 -44 6 0 7 21 1 53 -2 13 -19 7 -25 -9z"/>
<path d="M3441 3581 c-10 -6 -10 -10 -1 -16 13 -8 24 -1 19 14 -3 6 -10 7 -18
2z"/>
<path d="M6972 3578 c3 -7 15 -14 29 -16 24 -4 24 -3 4 12 -24 19 -38 20 -33
4z"/>
<path d="M7253 3539 c-6 -6 -18 -12 -28 -13 -10 -1 -20 -13 -22 -25 -3 -20 -1
-21 12 -8 8 9 24 13 35 10 13 -3 22 1 26 12 8 21 -8 39 -23 24z"/>
<path d="M8492 3385 c-14 -30 -3 -33 21 -5 21 24 21 30 4 30 -8 0 -19 -11 -25
-25z"/>
<path d="M7042 3319 c-7 -11 -11 -24 -8 -27 10 -9 28 15 24 32 -2 14 -5 13
-16 -5z"/>
<path d="M6705 3290 c3 -5 8 -10 11 -10 2 0 4 5 4 10 0 6 -5 10 -11 10 -5 0
-7 -4 -4 -10z"/>
<path d="M1180 3246 c0 -44 -1 -46 -30 -46 -34 0 -39 -14 -10 -30 27 -15 25
-52 -5 -98 -20 -30 -26 -55 -31 -134 -5 -73 -4 -98 5 -98 6 0 15 8 18 18 4 9
26 37 50 61 24 24 43 49 43 55 0 6 9 22 20 36 11 14 20 35 20 48 0 27 18 28
83 5 37 -13 50 -14 59 -5 20 20 -3 45 -58 63 -45 14 -49 19 -52 49 -4 33 -64
115 -76 103 -3 -3 -12 0 -21 7 -13 11 -15 7 -15 -34z"/>
<path d="M7215 3210 c3 -5 8 -10 11 -10 2 0 4 5 4 10 0 6 -5 10 -11 10 -5 0
-7 -4 -4 -10z"/>
<path d="M787 3171 c-7 -19 -18 -31 -29 -31 -19 0 -24 -15 -8 -25 16 -10 11
-54 -10 -83 -23 -32 -40 -162 -21 -162 20 0 85 74 111 125 14 28 26 52 27 54
1 2 18 -8 37 -23 32 -24 36 -25 51 -10 9 9 15 26 13 38 -2 16 -12 22 -42 26
-35 5 -40 9 -55 49 -9 24 -26 50 -39 59 -22 14 -23 13 -35 -17z"/>
<path d="M6507 3161 c-19 -33 -22 -61 -6 -61 6 0 9 6 6 14 -10 25 45 28 66 4
10 -11 20 -19 22 -16 7 6 -18 58 -28 58 -5 0 -5 5 -2 10 3 6 2 10 -4 10 -5 0
-15 2 -23 5 -8 3 -21 -7 -31 -24z m41 -6 c-3 -3 -9 2 -12 12 -6 14 -5 15 5 6
7 -7 10 -15 7 -18z"/>
<path d="M2318 3141 c-35 -22 -47 -37 -50 -58 -2 -22 -9 -29 -32 -33 -26 -5
-27 -6 -13 -19 21 -17 22 -45 1 -62 -20 -17 -15 -77 12 -133 27 -57 44 -58 44
-2 0 47 32 116 54 116 7 0 23 -11 36 -25 25 -27 40 -25 40 6 0 10 5 19 10 19
6 0 10 9 10 20 0 17 -7 20 -40 20 -40 0 -40 0 -40 38 0 27 9 50 30 78 16 21
30 45 30 52 0 21 -44 13 -92 -17z"/>
<path d="M6880 3101 c0 -5 5 -13 10 -16 6 -3 10 -2 10 4 0 5 -4 13 -10 16 -5
3 -10 2 -10 -4z"/>
<path d="M3540 2610 c0 -11 5 -20 10 -20 6 0 10 9 10 20 0 11 -4 20 -10 20 -5
0 -10 -9 -10 -20z"/>
<path d="M3543 2564 c-3 -8 -1 -20 4 -25 7 -7 11 -2 11 15 0 29 -6 33 -15 10z"/>
<path d="M7240 2540 c0 -6 7 -10 15 -10 8 0 15 2 15 4 0 2 -7 6 -15 10 -8 3
-15 1 -15 -4z"/>
<path d="M3535 2454 c-1 -41 3 -74 7 -74 9 0 11 12 12 87 1 29 -3 54 -9 56 -6
3 -10 -23 -10 -69z"/>
<path d="M7860 2491 c0 -5 7 -11 15 -15 9 -3 15 0 15 9 0 8 -7 15 -15 15 -8 0
-15 -4 -15 -9z"/>
<path d="M2482 2326 c-7 -35 -12 -80 -12 -101 0 -29 -4 -38 -20 -42 l-21 -6
21 -14 c11 -8 20 -25 20 -41 0 -55 24 -132 41 -132 16 0 49 77 49 114 0 20 27
20 60 1 28 -15 50 -4 50 24 0 30 -21 41 -65 34 l-42 -5 -6 68 c-6 75 -35 164
-52 164 -7 0 -17 -29 -23 -64z"/>
<path d="M3533 2350 c1 -11 5 -20 9 -20 11 0 10 28 -1 35 -6 3 -9 -4 -8 -15z"/>
<path d="M7437 2327 c-3 -9 1 -18 9 -21 16 -6 18 2 5 22 -7 11 -9 11 -14 -1z"/>
<path d="M3637 2280 c-25 -28 -47 -61 -49 -73 -2 -14 -10 -22 -23 -22 -11 0
-19 6 -17 13 1 6 -2 12 -8 12 -5 0 -10 -7 -10 -15 0 -8 -11 -17 -25 -21 -21
-5 -23 -8 -10 -21 27 -27 17 -59 -17 -54 -14 2 -88 -76 -88 -92 0 -13 10 -17
45 -17 31 0 47 -5 51 -14 9 -22 -27 -64 -61 -72 -42 -9 -107 -56 -144 -103
-17 -21 -31 -41 -31 -44 0 -2 -7 -22 -16 -43 -16 -37 -17 -38 -25 -16 -7 18
-16 22 -48 22 -22 0 -46 3 -55 6 -25 10 -19 60 14 121 l31 56 -39 -6 c-22 -2
-60 -17 -86 -32 -40 -24 -46 -31 -46 -61 0 -31 -3 -34 -30 -34 -37 0 -38 -6
-5 -32 26 -20 35 -71 15 -83 -15 -9 -12 -43 7 -73 23 -35 86 -102 97 -102 5 0
6 30 2 69 -4 43 -2 72 4 76 5 3 10 15 10 26 0 31 37 23 78 -17 l37 -36 -2
-272 c-3 -320 -6 -353 -34 -361 -29 -10 -20 -39 14 -43 22 -3 27 -8 27 -31 0
-23 6 -30 28 -35 15 -4 147 -10 294 -13 l266 -5 4 28 c2 23 9 30 33 34 40 7
46 37 10 46 l-27 7 7 291 c6 273 14 346 37 346 5 0 8 5 8 10 0 6 -9 10 -20 10
-16 0 -20 7 -20 35 0 84 -88 207 -175 245 -22 10 -48 27 -59 38 -16 19 -17 25
-6 52 9 22 10 34 1 43 -8 11 -5 19 12 34 39 35 46 36 78 4 37 -37 61 -39 83
-6 24 37 20 53 -16 63 -40 10 -47 38 -24 87 9 18 16 54 16 79 0 42 -2 46 -24
46 -16 0 -39 -16 -69 -50z m-213 -469 c-13 -33 -27 -87 -30 -120 -6 -50 -10
-61 -25 -61 -23 0 -23 -5 -3 79 12 57 63 161 78 161 2 0 -7 -27 -20 -59z m35
-8 c-11 -37 -19 -81 -19 -98 0 -46 -11 -75 -28 -75 -12 0 -14 10 -9 59 6 56
52 181 67 181 4 0 -1 -30 -11 -67z m37 -10 c-11 -138 -16 -163 -32 -163 -9 0
-14 11 -14 34 0 38 26 181 35 196 14 22 16 6 11 -67z m34 -43 c0 -102 -2 -120
-16 -120 -13 0 -14 13 -9 88 13 187 25 203 25 32z m86 104 c-6 16 -4 17 9 6 8
-7 15 -9 15 -4 1 5 15 -7 32 -26 20 -23 29 -28 24 -15 l-6 20 16 -20 c8 -11
19 -19 24 -18 5 2 6 -5 3 -14 -4 -10 -2 -14 5 -9 6 3 14 1 18 -5 4 -8 3 -9 -4
-5 -15 9 -15 11 3 -48 14 -47 20 -105 10 -94 -3 2 -9 28 -15 57 -9 49 -39 126
-46 118 -2 -1 3 -21 10 -42 19 -55 29 -135 18 -135 -5 0 -12 25 -15 56 -5 49
-53 172 -63 162 -2 -3 5 -28 16 -56 11 -29 20 -63 20 -76 0 -14 5 -26 11 -28
12 -4 1 -58 -12 -58 -5 0 -10 21 -11 48 l-1 47 -7 -45 c-7 -39 -7 -37 -5 19 2
46 -2 77 -16 109 -25 58 -33 49 -16 -18 9 -33 17 -48 21 -39 3 7 4 3 1 -11 -2
-14 -5 -45 -6 -70 l-2 -45 -7 45 -7 45 -1 -42 c-3 -69 -22 -49 -24 25 l-2 67
-5 -65 -5 -65 -6 65 -7 65 -1 -62 c-1 -35 -6 -63 -12 -63 -6 0 -10 28 -10 63
0 34 -2 87 -5 117 -2 30 -2 46 1 36 5 -15 8 -16 15 -5 6 9 8 1 5 -26 -2 -22
-1 -30 1 -17 7 34 20 26 16 -10 l-3 -33 10 33 c7 22 7 38 0 51 -15 29 -12 37
6 15 15 -18 15 -18 10 0z m-240 -61 c-8 -17 -20 -60 -26 -96 -8 -43 -17 -67
-25 -67 -10 0 -12 10 -8 38 6 42 60 168 69 159 3 -3 -1 -18 -10 -34z m-50 -41
c-7 -20 -17 -56 -21 -80 -4 -23 -11 -42 -17 -42 -14 0 -2 63 22 118 23 52 34
55 16 4z m-41 -27 c-8 -22 -14 -52 -15 -67 0 -16 -5 -28 -10 -28 -6 0 -8 12
-4 28 8 38 35 114 40 110 2 -2 -3 -22 -11 -43z m502 -67 c-3 -7 -5 -2 -5 12 0
14 2 19 5 13 2 -7 2 -19 0 -25z m-536 -369 c-12 -30 -15 127 -3 222 6 57 7 50
10 -67 1 -72 -2 -142 -7 -155z m43 139 c-4 -79 -10 -147 -15 -153 -5 -5 -9 53
-9 136 0 80 3 149 7 152 19 20 22 -6 17 -135z m42 90 c-3 -29 -6 -97 -6 -150
0 -80 -3 -98 -15 -98 -17 0 -19 55 -9 208 6 72 10 92 22 92 12 0 14 -10 8 -52z
m44 -45 c0 -138 -9 -203 -28 -203 -13 0 -14 15 -9 107 4 58 7 126 7 150 0 32
4 43 15 43 12 0 15 -17 15 -97z m105 45 c4 -24 5 -65 3 -93 -4 -50 -4 -50 -8
15 -3 53 -5 44 -10 -55 l-6 -120 -2 148 c-1 86 2 147 7 147 6 0 13 -19 16 -42z
m46 15 l1 -28 8 30 c7 26 8 23 10 -25 l3 -55 7 55 c5 41 7 22 8 -77 2 -159
-11 -209 -19 -73 l-5 95 -4 -95 -4 -95 -6 120 -6 120 -2 -117 c-2 -102 -4
-118 -18 -118 -14 0 -16 8 -10 53 3 28 6 94 6 145 0 75 3 92 15 92 9 0 15 -10
16 -27z m129 -78 l4 110 6 -140 6 -140 2 138 c1 95 5 137 14 137 8 0 9 -29 5
-107 -4 -58 -7 -125 -7 -147 0 -35 -3 -42 -20 -42 -16 0 -20 7 -21 36 l-2 35
-7 -40 c-10 -56 -12 156 -2 221 6 43 8 36 13 -61 l5 -110 4 110z m79 43 c-1
-35 -4 -103 -8 -153 -8 -86 -8 -83 -9 63 -1 96 2 152 8 152 6 0 10 -27 9 -62z
m23 -158 l-9 -85 -2 115 c0 63 3 133 7 155 6 36 7 34 10 -30 1 -38 -1 -108 -6
-155z m-365 -12 c-2 -35 -3 -9 -3 57 0 66 1 94 3 63 2 -32 2 -86 0 -120z m310
-40 c-2 -18 -4 -6 -4 27 0 33 2 48 4 33 2 -15 2 -42 0 -60z m-467 -312 c-12
-12 -14 113 -2 219 6 63 7 56 10 -69 2 -86 -1 -143 -8 -150z m47 217 c-4 -38
-7 -103 -7 -145 0 -45 -4 -78 -10 -78 -11 0 -14 247 -4 274 3 9 11 16 17 16 6
0 8 -23 4 -67z m37 29 c-4 -259 -4 -252 -20 -252 -15 0 -16 9 -11 68 4 37 7
102 7 145 0 59 3 78 13 75 6 -3 12 -19 11 -36z m46 -14 c0 -24 -3 -87 -7 -140
-5 -77 -9 -98 -21 -98 -12 0 -13 9 -8 46 3 26 6 89 6 140 0 77 3 94 15 94 11
0 15 -11 15 -42z m21 -4 c-5 -21 -9 -30 -10 -19 -1 24 10 67 15 62 3 -2 0 -22
-5 -43z m78 -56 c0 -57 -4 -121 -8 -143 -6 -29 -9 -1 -10 103 -1 89 3 142 9
142 6 0 10 -40 9 -102z m51 8 c0 -51 2 -115 5 -142 4 -35 3 -43 -4 -29 -8 17
-10 18 -10 3 -1 -10 -7 -18 -13 -18 -10 0 -12 33 -10 140 2 114 6 140 18 140
11 0 14 -19 14 -94z m35 -184 c-12 -12 -16 10 -19 104 -3 80 -2 86 3 34 7 -64
7 -64 11 40 l4 105 3 -139 c2 -76 1 -141 -2 -144z m82 171 c-2 -21 -4 -4 -4
37 0 41 2 58 4 38 2 -21 2 -55 0 -75z m-100 65 c-3 -7 -5 -2 -5 12 0 14 2 19
5 13 2 -7 2 -19 0 -25z m154 20 c0 -10 2 -10 6 0 2 6 11 12 18 12 9 0 15 -22
19 -70 3 -38 9 -103 12 -142 3 -40 3 -70 -1 -66 -4 4 -11 51 -15 105 l-7 98
-3 -105 -4 -105 -6 85 -6 85 -4 -85 -4 -85 -6 115 -6 115 -4 -115 -4 -115 -6
140 -6 140 -2 -137 c-1 -84 -6 -138 -12 -138 -12 0 -12 29 -3 173 5 95 8 107
25 107 10 0 18 -6 19 -12z m66 -80 c-2 -18 -4 -4 -4 32 0 36 2 50 4 33 2 -18
2 -48 0 -65z m-130 -160 c-2 -18 -4 -6 -4 27 0 33 2 48 4 33 2 -15 2 -42 0
-60z m-240 0 c-2 -13 -4 -5 -4 17 -1 22 1 32 4 23 2 -10 2 -28 0 -40z"/>
<path d="M3611 1784 c0 -11 3 -14 6 -6 3 7 2 16 -1 19 -3 4 -6 -2 -5 -13z"/>
<path d="M3622 1735 c0 -16 2 -22 5 -12 2 9 2 23 0 30 -3 6 -5 -1 -5 -18z"/>
<path d="M3530 2290 c0 -11 5 -20 10 -20 6 0 10 9 10 20 0 11 -4 20 -10 20 -5
0 -10 -9 -10 -20z"/>
<path d="M7526 2265 c4 -8 12 -15 20 -15 8 0 11 6 8 15 -4 8 -12 15 -20 15 -8
0 -11 -6 -8 -15z"/>
<path d="M3530 2240 c0 -11 5 -20 10 -20 6 0 10 9 10 20 0 11 -4 20 -10 20 -5
0 -10 -9 -10 -20z"/>
<path d="M5136 2115 c-19 -17 -26 -34 -26 -60 0 -35 0 -35 -45 -35 -25 0 -45
-2 -45 -5 0 -3 12 -17 28 -30 26 -22 26 -25 14 -57 -7 -18 -15 -44 -18 -57 -3
-13 -11 -39 -19 -59 -16 -36 -20 -122 -7 -122 13 0 96 91 125 138 15 23 30 56
34 72 7 37 13 37 43 5 36 -38 70 -30 86 19 8 21 11 43 8 48 -4 6 -27 8 -54 5
l-48 -6 5 58 c4 45 2 64 -12 84 -21 33 -35 34 -69 2z"/>
<path d="M4242 1698 c-7 -30 -12 -33 -51 -36 -42 -3 -43 -4 -22 -18 27 -19 27
-62 1 -115 -17 -33 -20 -55 -18 -127 l3 -87 35 37 c38 40 111 172 110 201 0
25 33 21 60 -8 13 -14 29 -25 36 -25 18 0 44 40 44 66 0 18 -8 22 -50 28 -49
6 -50 8 -50 40 0 38 -34 76 -68 76 -16 0 -24 -8 -30 -32z"/>
<path d="M1260 1283 c-33 -6 -50 -21 -50 -44 0 -11 -7 -19 -15 -19 -21 0 -19
-13 5 -35 24 -21 26 -58 5 -75 -25 -21 -17 -42 36 -93 58 -56 69 -52 69 24 0
25 5 50 12 57 16 16 50 15 74 -3 10 -8 29 -15 42 -15 20 0 23 4 20 28 -3 23
-11 30 -58 45 -86 29 -99 50 -60 100 11 14 20 28 20 31 0 7 -61 6 -100 -1z"/>
<path d="M356 1071 c-27 -53 -31 -90 -11 -133 5 -14 2 -18 -14 -18 -28 0 -27
-13 2 -25 14 -7 23 -20 25 -40 4 -37 132 -173 132 -140 0 10 -7 26 -16 36 -9
10 -19 39 -22 64 l-5 46 39 -7 c22 -3 41 -7 44 -8 3 0 6 2 8 7 6 18 1 27 -16
27 -10 0 -35 9 -57 20 -35 18 -41 26 -53 78 -7 31 -16 77 -20 102 l-8 45 -28
-54z"/>
<path d="M5800 1042 c0 -4 10 -12 22 -17 29 -13 33 -37 14 -77 -19 -37 -20
-111 -3 -152 l13 -29 26 40 c14 21 29 54 33 73 13 63 33 90 64 90 21 0 30 -6
34 -21 6 -24 34 -23 50 2 18 29 1 49 -42 49 -22 0 -42 4 -46 9 -12 21 -71 41
-117 41 -26 0 -48 -3 -48 -8z"/>
<path d="M1326 962 c-3 -6 -1 -14 5 -17 14 -9 20 -2 10 14 -6 8 -11 9 -15 3z"/>
<path d="M6619 523 c-11 -27 -24 -58 -29 -70 -6 -15 -18 -23 -35 -23 -29 0
-32 -8 -9 -25 15 -11 13 -16 -18 -51 -44 -49 -92 -138 -77 -143 6 -2 30 15 53
38 23 22 48 41 56 41 8 0 24 14 35 30 24 36 70 39 70 5 0 -31 39 -31 53 0 19
42 15 53 -20 57 -27 2 -32 7 -30 23 2 11 6 53 9 93 5 69 4 72 -16 72 -17 0
-27 -12 -42 -47z"/>
<path d="M7327 502 c-9 -23 -17 -67 -17 -97 0 -42 -3 -55 -15 -55 -19 0 -20
-19 -1 -26 8 -3 22 -24 31 -46 15 -39 135 -171 135 -149 0 6 -9 28 -20 48 -34
63 -22 139 16 104 18 -16 64 -22 64 -8 0 18 -21 37 -40 37 -23 0 -81 30 -84
44 -2 6 -13 40 -24 76 -12 36 -22 76 -24 90 -3 22 -5 20 -21 -18z"/>
<path d="M8225 526 c-31 -10 -40 -18 -40 -36 0 -14 -8 -26 -19 -30 -18 -6 -18
-7 4 -23 23 -16 23 -22 4 -100 -6 -24 0 -34 39 -72 43 -41 87 -72 87 -61 0 2
-7 12 -16 20 -32 32 8 166 50 166 7 0 25 -13 41 -30 33 -34 65 -40 65 -11 0
11 -7 26 -15 34 -16 16 -88 32 -103 23 -6 -3 -15 1 -22 9 -11 13 -10 24 0 56
8 23 20 44 28 46 11 5 11 7 0 14 -18 12 -55 10 -103 -5z"/>
<path d="M1355 248 c-17 -18 -41 -55 -55 -81 l-25 -48 -42 6 c-28 4 -43 2 -43
-5 0 -6 7 -13 15 -16 28 -11 16 -43 -24 -64 -66 -33 -60 -40 34 -40 67 0 87 3
91 15 4 8 14 15 24 15 10 0 23 -7 30 -15 17 -21 80 -19 96 2 24 32 17 43 -31
43 -41 0 -45 2 -45 25 0 14 7 37 16 51 10 15 17 47 18 82 1 69 -16 78 -59 30z"/>
<path d="M1924 104 c-12 -28 -20 -35 -35 -31 -23 6 -23 6 -2 -38 l17 -35 108
0 c61 0 108 4 108 9 0 6 -21 11 -47 13 -48 3 -48 3 -45 37 4 40 -29 81 -65 81
-18 0 -28 -9 -39 -36z"/>
</g>
</svg>
