<?xml version="1.0" standalone="no"?>
<!DOCTYPE svg PUBLIC "-//W3C//DTD SVG 20010904//EN"
 "http://www.w3.org/TR/2001/REC-SVG-20010904/DTD/svg10.dtd">
<svg version="1.0" xmlns="http://www.w3.org/2000/svg"
 width="1206.000000pt" height="1280.000000pt" viewBox="0 0 1206.000000 1280.000000"
 preserveAspectRatio="xMidYMid meet">
<metadata>
Created by potrace 1.15, written by Peter Selinger 2001-2017
</metadata>
<g transform="translate(0.000000,1280.000000) scale(0.100000,-0.100000)"
fill="#000000" stroke="none">
<path d="M5360 12769 c-636 -119 -861 -172 -1150 -269 -328 -109 -543 -203
-998 -436 l-304 -155 -436 -350 c-426 -342 -440 -355 -580 -512 -411 -463
-617 -737 -969 -1289 -64 -101 -122 -192 -129 -203 -12 -18 -10 -28 18 -80
l31 -60 -31 29 c-17 16 -29 33 -26 37 3 5 -2 6 -10 3 -35 -13 -269 -566 -391
-925 -54 -156 -127 -414 -129 -451 0 -10 -3 -18 -6 -18 -6 0 -9 -23 -11 -67
-1 -13 -6 -20 -11 -17 -6 4 -8 -1 -4 -14 4 -11 2 -23 -4 -27 -6 -4 -8 -16 -4
-27 4 -14 3 -18 -5 -13 -8 5 -10 -1 -5 -19 4 -17 2 -26 -5 -26 -7 0 -9 -10 -5
-26 5 -18 3 -25 -3 -21 -7 4 -11 -4 -12 -18 -1 -14 -1 -36 -2 -50 -1 -14 -4
-25 -8 -25 -7 0 -9 -12 -12 -70 -1 -16 -5 -30 -8 -30 -6 0 -8 -12 -12 -80 -1
-16 -5 -30 -8 -30 -6 0 -9 -31 -12 -125 -1 -50 -2 -54 -8 -25 -5 26 -11 -2
-25 -117 -10 -83 -15 -156 -12 -162 4 -6 -12 -39 -34 -75 l-41 -64 21 -554
c11 -304 23 -634 26 -733 5 -162 11 -205 55 -425 99 -493 190 -812 399 -1400
l101 -285 302 -515 301 -515 246 -280 c135 -154 266 -305 291 -335 24 -30 70
-82 102 -115 31 -33 57 -68 57 -78 0 -10 4 -16 9 -13 5 4 35 -23 68 -59 32
-35 223 -196 425 -357 l368 -294 532 -291 533 -291 230 -75 c417 -136 691
-209 1083 -286 l247 -49 585 -7 585 -6 490 91 490 90 265 97 c793 288 1183
504 1936 1070 l210 158 400 433 c375 408 404 442 488 575 369 588 538 906 708
1327 62 153 156 402 169 450 6 19 55 177 109 350 87 280 100 333 119 475 12
88 31 194 42 237 10 42 19 109 19 150 0 40 10 139 22 218 20 135 21 178 19
650 -2 438 -4 521 -21 630 -10 69 -21 195 -24 281 -4 120 -11 181 -30 260 -14
57 -77 316 -141 574 l-115 470 -121 275 c-261 591 -416 884 -735 1391 l-129
204 -403 430 c-316 338 -423 446 -500 503 -855 646 -1099 781 -2073 1146
l-256 95 -532 86 -533 85 -462 -1 -461 -1 -155 -29z m770 -80 l0 -52 -78 5
c-77 6 -158 30 -148 46 2 4 0 14 -6 22 -8 12 -9 12 -4 -2 8 -27 -9 -21 -22 7
l-12 25 135 0 135 0 0 -51z m-125 -149 l29 -30 -64 0 -64 0 29 30 c16 17 32
30 35 30 3 0 19 -13 35 -30z m123 -8 c3 -17 -2 -22 -17 -22 -14 0 -21 6 -21
18 0 38 33 41 38 4z m-280 -60 c2 -14 -2 -22 -12 -22 -19 0 -29 17 -22 36 8
22 30 12 34 -14z m1798 -167 l59 -24 -46 -1 c-25 0 -68 -3 -94 -7 l-48 -6 28
31 c16 18 31 32 35 32 4 0 33 -11 66 -25z m274 -178 l0 -93 -62 7 c-56 7 -164
33 -296 71 l-42 12 122 28 c173 38 164 40 163 -32 0 -33 3 -60 7 -60 4 0 15
14 23 30 9 17 20 28 25 25 5 -3 12 0 16 6 4 8 3 9 -4 5 -17 -10 -15 7 4 30 14
17 15 17 10 1 -4 -11 -2 -16 5 -12 6 4 8 14 5 22 -6 13 9 53 19 53 3 0 5 -42
5 -93z m-622 51 c-2 -13 -10 -23 -18 -23 -8 0 -16 10 -18 23 -3 17 2 22 18 22
16 0 21 -5 18 -22z m840 -121 c2 -11 -3 -17 -17 -17 -23 0 -35 15 -26 31 10
15 39 6 43 -14z m-1435 -839 c32 -44 40 -68 22 -68 -17 0 -65 61 -65 83 0 26
17 20 43 -15z m1044 -574 c3 -8 1 -20 -6 -27 -14 -14 -47 15 -37 32 10 16 36
13 43 -5z m150 -469 l31 -35 -59 0 -60 0 28 35 c15 19 28 35 29 35 0 0 14 -16
31 -35z m-42 -130 c0 -11 -8 -21 -17 -23 -14 -3 -18 3 -18 23 0 20 4 26 18 23
9 -2 17 -12 17 -23z m-220 -60 c0 -11 -7 -21 -16 -23 -18 -3 -33 23 -23 39 10
17 39 5 39 -16z m279 -44 c9 -14 -4 -41 -19 -41 -18 0 -28 17 -21 35 6 17 32
20 40 6z m786 -16 c0 -42 -25 -89 -63 -118 -20 -15 -37 -27 -40 -27 -2 0 -1
22 3 50 6 48 39 100 63 100 6 0 -2 -11 -17 -25 -14 -13 -26 -27 -26 -31 0 -9
55 46 56 57 3 17 4 19 14 19 6 0 10 -11 10 -25z m104 -66 c3 -17 6 -56 6 -85
l0 -54 -49 0 -50 0 18 53 c23 67 49 117 60 117 5 0 11 -14 15 -31z m-5740 -38
c9 -14 -4 -41 -19 -41 -18 0 -28 17 -21 35 6 17 32 20 40 6z m5294 -13 c-2
-13 -10 -23 -18 -23 -8 0 -16 10 -18 23 -3 17 2 22 18 22 16 0 21 -5 18 -22z
m-280 -60 c-2 -13 -10 -23 -18 -23 -8 0 -16 10 -18 23 -3 17 2 22 18 22 16 0
21 -5 18 -22z m390 0 c-2 -13 -10 -23 -18 -23 -8 0 -16 10 -18 23 -3 17 2 22
18 22 16 0 21 -5 18 -22z m-594 -71 c27 -36 35 -72 14 -65 -16 6 -58 67 -58
84 0 23 18 15 44 -19z m376 -46 c0 -24 -25 -34 -40 -16 -15 18 -5 35 21 35 12
0 19 -7 19 -19z m130 -37 c17 -31 53 -103 80 -160 l49 -104 -125 -63 -124 -64
0 27 c0 36 42 73 120 106 36 15 67 29 68 30 2 1 -14 19 -36 39 -45 40 -69 98
-79 188 -8 73 6 74 47 1z m-5370 10 c0 -28 -8 -44 -35 -71 -33 -33 -70 -42
-70 -16 0 6 -4 15 -9 20 -5 5 -6 2 -1 -6 5 -9 3 -12 -6 -9 -8 3 -14 10 -14 16
0 5 -4 14 -9 19 -5 5 -6 3 -2 -4 10 -18 2 -16 -36 7 l-32 19 28 11 c15 5 38
10 50 10 12 0 26 3 30 8 6 6 75 28 99 31 4 1 7 -15 7 -35z m5244 -141 c-9 -7
-29 -10 -44 -6 -16 3 -36 0 -47 -6 -10 -6 -13 -11 -7 -11 27 0 7 -33 -35 -57
-60 -35 -59 -33 -38 -44 9 -6 15 -14 12 -19 -3 -5 0 -12 6 -16 8 -5 9 -3 4 6
-5 8 -3 11 6 8 8 -3 14 -9 14 -14 0 -19 18 -35 32 -30 8 3 24 -1 36 -10 21
-15 20 -15 -18 -9 -48 8 -154 41 -175 55 -12 9 -3 22 52 75 69 66 119 90 187
90 27 0 29 -2 15 -12z m460 -105 c-12 -62 -28 -126 -34 -143 -11 -28 -12 -29
-22 -11 -14 24 -3 154 16 200 10 25 49 66 61 66 1 0 -9 -51 -21 -112z m-509
76 c-10 -8 -22 -14 -25 -14 -4 0 -7 6 -7 14 0 8 11 14 26 14 23 0 24 -1 6 -14z
m-291 -90 c7 -19 -1 -34 -19 -34 -18 0 -28 17 -21 35 7 20 32 19 40 -1z m894
-7 c4 -20 -25 -34 -40 -19 -15 15 -1 44 19 40 10 -2 19 -11 21 -21z m-653 -47
c3 -5 2 -10 -4 -10 -5 0 -13 5 -16 10 -3 6 -2 10 4 10 5 0 13 -4 16 -10z m25
-252 c0 -11 -5 -16 -10 -13 -6 4 -8 10 -5 15 3 5 -3 15 -13 22 -10 7 -21 20
-25 28 -4 12 -6 12 -6 -2 -1 -10 8 -22 20 -28 11 -7 18 -14 15 -17 -3 -3 -17
2 -32 11 -14 10 -27 16 -30 14 -2 -2 -12 -40 -22 -83 l-19 -79 -6 64 c-4 34
-7 99 -7 143 l0 79 70 -68 c39 -37 70 -76 70 -86z m-7345 -3 c0 -11 -7 -21
-16 -23 -18 -3 -33 23 -23 39 10 17 39 5 39 -16z m-179 -62 c7 -10 13 -22 13
-28 0 -5 -6 -2 -14 8 -13 18 -14 18 -24 -2 -14 -25 -14 -42 0 -18 8 14 14 16
25 6 8 -6 14 -8 14 -3 1 12 40 -39 40 -51 0 -5 -10 1 -21 15 l-21 25 14 -25
c9 -14 21 -25 27 -25 19 0 51 -48 50 -75 0 -14 -10 -79 -23 -144 l-22 -120
-22 38 c-13 21 -21 41 -18 43 2 3 11 -8 19 -23 l14 -27 7 37 c4 21 5 41 2 44
-3 3 -6 -4 -6 -16 0 -23 -14 -29 -25 -12 -4 6 -10 8 -14 5 -9 -5 -39 25 -40
40 0 6 -8 11 -18 12 -15 2 -15 1 2 -6 18 -8 18 -10 3 -12 -34 -3 -36 -4 -45
-13 -5 -5 -2 -6 6 -1 18 10 18 10 -64 -143 -38 -72 -74 -128 -79 -125 -5 3 -6
1 -3 -4 4 -6 0 -26 -8 -44 l-15 -34 6 45 c11 77 41 201 73 295 32 93 142 355
150 355 2 0 10 -8 17 -17z m7296 -160 c15 -15 28 -29 28 -32 0 -3 -26 -6 -59
-6 l-58 0 25 33 c13 17 27 32 30 32 3 0 19 -12 34 -27z m-2934 -366 c4 -20
-25 -34 -39 -20 -14 14 1 45 20 41 9 -2 17 -11 19 -21z m-4405 -109 c6 -19 -3
-38 -18 -38 -18 0 -28 17 -21 35 7 18 33 20 39 3z m227 -153 c0 -167 -33 -348
-78 -433 -18 -33 -18 -31 -19 200 0 128 -3 242 -6 253 -5 16 3 27 41 52 26 17
50 32 55 32 4 1 7 -46 7 -104z m9804 96 c9 -14 -4 -41 -19 -41 -18 0 -28 17
-21 35 6 17 32 20 40 6z m-10014 -122 l22 -71 -38 -39 c-20 -21 -41 -36 -44
-34 -4 3 -14 -3 -21 -13 -13 -15 -12 -16 4 -3 23 18 22 5 -3 -26 -11 -14 -27
-48 -35 -76 -16 -54 -20 -147 -7 -147 5 0 9 -7 9 -15 0 -21 -1 -20 -63 28 -54
42 -54 42 -50 87 5 44 51 312 61 358 5 20 11 22 74 22 l69 0 22 -71z m3486
-18 c15 -30 4 -62 -25 -73 -29 -10 -74 31 -64 59 17 50 68 58 89 14z m-770
-42 c3 -6 0 -17 -7 -25 -18 -17 -44 -2 -36 20 7 18 33 21 43 5z m4062 -11 c-2
-13 -10 -23 -18 -23 -8 0 -16 10 -18 23 -3 17 2 22 18 22 16 0 21 -5 18 -22z
m-177 -123 l-31 -36 0 71 0 71 31 -36 31 -35 -31 -35z m-109 3 l-32 -33 0 65
0 65 32 -33 33 -32 -33 -32z m-6786 71 c3 -6 0 -17 -7 -25 -18 -17 -44 -2 -36
20 7 18 33 21 43 5z m7192 -1 c21 -21 13 -32 -10 -12 l-23 19 19 -22 c10 -13
22 -20 26 -18 5 3 17 -10 27 -28 l19 -32 -53 0 -53 0 0 46 c0 25 3 49 7 52 10
11 28 8 41 -5z m-506 -86 l-4 -58 64 -18 c177 -49 168 -44 168 -79 0 -74 -21
-93 -73 -66 -33 17 -67 51 -61 61 3 5 0 7 -8 6 -7 -2 -12 3 -10 10 1 8 -1 11
-6 8 -5 -3 -37 24 -72 59 l-64 65 34 35 c19 19 34 35 34 35 1 0 0 -26 -2 -58z
m3902 7 c-3 -5 -14 -9 -25 -9 -21 0 -27 35 -6 43 14 5 39 -22 31 -34z m-278
-58 c-10 -16 -36 -13 -43 5 -8 22 18 37 36 20 7 -8 10 -19 7 -25z m114 13 c0
-19 -28 -30 -42 -16 -8 8 -8 15 1 26 14 17 41 10 41 -10z m-6524 -313 c-10
-15 -58 -14 -79 2 -11 8 -25 55 -42 147 -14 74 -27 146 -31 160 -3 14 32 -48
77 -137 45 -88 78 -166 75 -172z m-1286 264 c13 -16 6 -35 -15 -35 -18 0 -28
17 -21 35 7 19 20 19 36 0z m-2288 -85 c15 -27 25 -56 22 -64 -3 -8 -1 -17 5
-21 7 -4 9 1 5 12 -5 16 -4 16 10 -2 17 -20 16 -40 -1 -40 -6 0 -15 -4 -20 -9
-5 -5 -2 -6 6 -1 9 5 12 3 9 -6 -3 -8 -10 -14 -16 -14 -5 0 -14 -4 -19 -9 -5
-5 -2 -6 6 -1 9 5 12 3 9 -6 -3 -8 -10 -14 -16 -14 -5 0 -14 -4 -19 -9 -5 -5
-2 -6 6 -1 9 5 12 3 9 -6 -3 -8 -10 -13 -16 -12 -5 1 -16 -5 -24 -15 -12 -15
-11 -16 5 -3 9 7 17 9 17 3 0 -12 -25 -34 -32 -27 -3 3 -11 -3 -19 -12 -13
-16 -12 -17 4 -4 25 20 21 -2 -5 -25 -12 -10 -18 -13 -14 -6 11 19 1 14 -20
-10 -15 -19 -16 -20 -1 -9 9 7 17 9 17 4 0 -13 -35 -45 -42 -38 -3 3 -13 -5
-24 -17 l-19 -23 23 19 c38 33 24 7 -34 -62 -49 -57 -56 -62 -50 -37 3 17 13
82 21 145 8 63 18 130 21 148 l5 32 66 0 c54 0 63 2 54 13 -6 8 -9 16 -6 19 3
3 -5 13 -17 24 -18 15 -20 16 -9 2 19 -26 -2 -22 -25 4 -12 13 -13 18 -4 13
12 -7 13 -6 4 6 -14 19 -12 41 5 47 9 3 11 0 6 -9 -5 -8 -4 -11 1 -6 5 5 9 14
9 20 0 5 6 12 14 15 9 3 11 0 6 -9 -5 -8 -4 -11 1 -6 5 5 9 13 9 17 0 9 35 39
45 40 3 0 17 -23 32 -50z m2456 12 c3 -17 -2 -22 -17 -22 -14 0 -21 6 -21 18
0 38 33 41 38 4z m7082 -1 c0 -13 -72 -71 -87 -71 -22 0 -14 21 18 51 30 28
69 39 69 20z m-6254 -142 l-25 -64 0 77 c-1 42 -4 85 -7 95 -5 12 3 8 25 -13
l32 -30 -25 -65z m2742 88 c4 -21 -25 -34 -40 -19 -8 8 -8 16 2 27 16 19 34
15 38 -8z m-1961 -148 l-25 -64 -3 92 -4 93 28 -28 28 -28 -24 -65z m-1773 95
c7 -19 -1 -34 -19 -34 -18 0 -28 17 -21 35 7 20 32 19 40 -1z m164 -12 c2 -14
-2 -22 -12 -22 -19 0 -29 17 -22 36 8 22 30 12 34 -14z m7922 -27 l0 -55 -34
0 c-68 0 -81 17 -44 57 22 24 45 32 32 11 -4 -7 -3 -8 5 -4 6 4 9 11 6 16 -4
7 19 28 33 30 1 0 2 -25 2 -55z m-4742 -28 c4 -21 -27 -35 -38 -17 -12 19 0
42 19 38 9 -2 17 -11 19 -21z m4012 -72 c0 -72 -1 -75 -24 -75 -45 0 -84 45
-110 128 -7 21 -5 22 63 22 l71 0 0 -75z m-6267 12 c-3 -5 -1 -7 4 -4 6 4 18
-2 27 -11 15 -17 13 -21 -19 -52 l-35 -34 0 68 c0 60 2 67 15 56 8 -7 12 -17
8 -23z m-979 -46 c9 -14 -4 -41 -19 -41 -18 0 -28 17 -21 35 6 17 32 20 40 6z
m111 -16 c0 -11 -7 -21 -16 -23 -18 -3 -33 23 -23 39 10 17 39 5 39 -16z
m1533 -51 l92 -7 1 -71 c0 -50 8 -96 28 -154 l27 -82 -35 -10 c-20 -5 -66 -18
-102 -29 l-67 -19 -48 27 c-27 15 -96 54 -152 85 l-104 58 28 29 c15 15 30 26
34 24 4 -3 16 5 26 18 l19 22 -22 -19 c-13 -11 -23 -15 -23 -9 0 12 45 55 52
48 2 -3 15 7 29 22 22 25 22 26 2 9 -33 -28 -28 -9 10 35 29 35 36 38 72 34
22 -2 82 -7 133 -11z m5379 0 c3 -8 1 -20 -6 -27 -14 -14 -47 15 -37 32 10 16
36 13 43 -5z m169 -55 c3 -6 0 -17 -7 -25 -18 -17 -44 -2 -36 20 7 18 33 21
43 5z m-10071 -180 c39 -10 100 -26 137 -36 55 -13 66 -19 57 -30 -14 -17 -33
-17 -23 0 4 7 3 9 -2 4 -5 -5 -9 -12 -9 -15 0 -13 -16 -32 -27 -32 -7 0 -6 6
2 15 20 24 5 18 -16 -7 -12 -13 -13 -18 -4 -13 30 18 -8 -20 -54 -53 -43 -31
-45 -32 -56 -13 -13 26 -13 34 2 25 7 -4 8 -3 4 5 -4 6 -11 9 -16 6 -5 -3 -19
12 -31 34 -13 24 -29 39 -39 38 -10 0 -16 -6 -13 -13 2 -7 -1 -15 -8 -20 -9
-5 -10 4 -5 42 4 27 10 81 14 119 l7 70 5 -54 5 -54 70 -18z m2770 51 c0 -8
-10 -16 -22 -18 -18 -3 -23 2 -23 18 0 16 5 21 23 18 12 -2 22 -10 22 -18z
m825 -125 l-35 -35 0 70 0 70 35 -35 35 -35 -35 -35z m6805 -171 c0 -10 -8
-20 -17 -22 -18 -3 -26 27 -11 42 12 11 28 0 28 -20z m-9840 -17 c26 -22 36
-38 30 -46 -6 -11 -124 -71 -139 -71 -4 0 3 19 43 123 6 15 14 27 19 27 5 0
26 -15 47 -33z m7005 -35 c0 -17 -33 -53 -62 -68 -58 -30 -48 12 12 54 34 23
50 28 50 14z m645 -22 c42 -17 69 -35 67 -42 -8 -31 -53 -87 -66 -82 -11 4
-81 154 -73 154 2 0 34 -13 72 -30z m-8274 -75 c0 -3 -11 -20 -25 -36 l-26
-31 0 67 0 67 26 -31 c14 -16 25 -33 25 -36z m3999 30 c0 -25 -23 -35 -35 -15
-10 16 2 40 20 40 9 0 15 -9 15 -25z m118 -118 c4 -20 -25 -34 -40 -19 -15 15
-1 44 19 40 10 -2 19 -11 21 -21z m4122 -235 c0 -24 -8 -32 -26 -25 -22 8 -17
43 6 43 13 0 20 -7 20 -18z m-2004 -191 c-4 -6 -16 -11 -27 -11 -21 0 -27 35
-6 43 16 6 41 -18 33 -32z m4622 11 c3 -17 -2 -22 -17 -22 -14 0 -21 6 -21 18
0 38 33 41 38 4z m-6468 -47 c13 -16 6 -35 -15 -35 -18 0 -28 17 -21 35 7 19
20 19 36 0z m-3631 -247 l24 -28 -63 0 -64 0 34 35 c19 19 37 32 40 28 3 -5
16 -20 29 -35z m6029 -120 c-2 -13 -10 -23 -18 -23 -8 0 -16 10 -18 23 -3 17
2 22 18 22 16 0 21 -5 18 -22z m112 3 c0 -11 -5 -23 -11 -27 -15 -9 -33 12
-26 30 9 23 37 20 37 -3z m560 -301 c0 -13 -7 -20 -20 -20 -13 0 -20 7 -20 20
0 13 7 20 20 20 13 0 20 -7 20 -20z m56 -189 c-10 -16 -36 -13 -43 5 -8 22 18
37 36 20 7 -8 10 -19 7 -25z m2 -104 c4 -20 -25 -34 -40 -19 -15 15 -1 44 19
40 10 -2 19 -11 21 -21z m610 0 c4 -22 -27 -35 -38 -16 -10 15 7 42 24 36 6
-2 12 -11 14 -20z m-7578 -356 c0 -26 -17 -36 -35 -21 -18 15 -8 40 16 40 12
0 19 -7 19 -19z m7688 -350 c-13 -14 -26 -30 -29 -35 -4 -4 -9 21 -11 57 l-3
66 32 -31 33 -32 -22 -25z m1230 56 c4 -21 -25 -34 -40 -19 -8 8 -8 16 2 27
16 19 34 15 38 -8z m-2552 -215 c1 -2 23 10 48 27 52 36 61 38 46 11 -6 -11
-15 -18 -19 -16 -4 3 -17 -2 -27 -12 -41 -37 -118 -56 -126 -30 -3 7 -7 6 -11
-5 -14 -36 96 -16 141 25 12 12 22 17 22 10 0 -25 -64 -56 -123 -60 -52 -4
-59 -2 -54 11 3 9 18 51 34 94 l27 78 20 -65 c10 -36 20 -67 22 -68z m1114
-39 c0 -2 -6 -1 -12 3 -7 4 -6 -1 3 -12 9 -10 19 -26 22 -34 5 -13 6 -13 6 1
1 8 -4 20 -11 27 -7 7 -8 12 -2 12 30 0 32 -24 9 -89 -25 -67 -45 -91 -77 -91
-15 0 -216 75 -225 84 -2 1 51 18 117 36 66 18 120 35 120 38 0 3 -17 35 -37
71 l-37 66 62 -53 c34 -30 62 -56 62 -59z m153 25 c6 -19 -3 -38 -18 -38 -18
0 -28 17 -21 35 7 18 33 20 39 3z m-166 -304 c8 -22 -18 -37 -36 -20 -7 8 -10
19 -7 25 10 16 36 13 43 -5z m-447 -210 l0 -115 -42 3 c-42 3 -43 4 -46 40 -2
20 4 51 14 70 18 37 68 118 72 118 1 0 2 -52 2 -116z m382 -96 l-32 -33 0 65
0 65 32 -33 33 -32 -33 -32z m-274 4 c3 -17 -2 -22 -17 -22 -14 0 -21 6 -21
18 0 38 33 41 38 4z m-223 -118 c0 -10 -8 -20 -17 -22 -18 -3 -26 27 -11 42
12 11 28 0 28 -20z m1050 -114 l29 -30 -64 0 -64 0 29 30 c16 17 32 30 35 30
3 0 19 -13 35 -30z m-297 -133 c13 -78 25 -151 28 -163 5 -17 -4 -24 -65 -48
-39 -15 -74 -26 -79 -24 -4 1 -29 27 -56 56 l-49 52 26 107 c15 58 28 107 29
108 13 8 125 54 133 54 6 1 21 -62 33 -142z m-1420 11 c-2 -13 -10 -23 -18
-23 -8 0 -16 10 -18 23 -3 17 2 22 18 22 16 0 21 -5 18 -22z m-3398 -177 c0
-22 -15 -35 -29 -27 -13 9 -1 46 15 46 8 0 14 -9 14 -19z m5018 -68 c4 -28
-34 -116 -47 -109 -5 4 -13 1 -17 -5 -4 -8 -3 -9 4 -5 17 10 15 -6 -4 -32 -8
-12 -19 -20 -24 -17 -5 3 -12 0 -16 -6 -5 -8 -3 -9 6 -4 8 5 11 3 8 -6 -3 -8
-10 -13 -16 -12 -5 1 -16 -5 -24 -15 -12 -15 -11 -16 5 -3 9 7 17 9 17 3 0
-12 -25 -34 -32 -27 -3 3 -11 -3 -19 -12 -13 -16 -12 -17 4 -4 25 20 21 5 -10
-34 -21 -26 -30 -31 -40 -23 -7 6 -13 15 -13 20 0 6 5 6 14 -1 10 -9 17 -7 27
6 13 16 12 17 -3 5 -11 -9 -18 -10 -23 -2 -3 6 -10 8 -15 5 -9 -6 -60 55 -60
71 0 5 12 -4 26 -21 l26 -30 -22 33 c-12 18 -25 30 -30 27 -5 -3 -16 8 -25 24
-17 34 -19 51 -5 51 5 0 7 -6 4 -13 -2 -7 3 -21 11 -32 16 -20 16 -20 6 1 -16
33 -7 54 35 79 44 27 59 31 48 13 -4 -8 -3 -10 2 -5 5 5 9 13 9 19 0 15 146
89 170 86 12 -2 21 -12 23 -25z m-390 -166 c4 -21 -25 -34 -40 -19 -8 8 -8 16
2 27 16 19 34 15 38 -8z m-110 -120 c4 -20 -25 -34 -40 -19 -15 15 -1 44 19
40 10 -2 19 -11 21 -21z m-4321 -89 c37 -36 45 -62 11 -32 l-23 19 19 -22 c10
-13 22 -20 26 -18 4 3 20 -11 34 -30 l27 -35 -42 0 -41 0 34 -42 c53 -66 88
-125 88 -150 -2 -66 -169 209 -186 305 -8 47 8 49 53 5z m2701 -270 c-2 -13
-10 -23 -18 -23 -8 0 -16 10 -18 23 -3 17 2 22 18 22 16 0 21 -5 18 -22z
m-722 -49 c3 -6 0 -17 -7 -25 -18 -17 -44 -2 -36 20 7 18 33 21 43 5z m2602
-62 l32 -33 -65 0 -65 0 32 33 c18 18 32 33 33 33 1 0 15 -15 33 -33z m-4396
-129 l-32 -33 0 65 0 65 32 -33 33 -32 -33 -32z m1333 52 c-9 -17 -20 -28 -25
-25 -5 3 -12 0 -16 -6 -4 -8 -3 -9 5 -5 8 6 10 1 6 -17 -6 -24 -3 -26 69 -43
42 -10 74 -20 71 -22 -3 -3 -46 -8 -96 -11 l-91 -6 -57 -125 -56 -125 -3 68
-3 67 -89 0 c-50 0 -90 -3 -90 -7 0 -3 14 -30 30 -60 l30 -53 -24 0 c-29 0
-30 4 -51 179 -11 100 -12 137 -4 147 14 17 33 19 23 2 -4 -7 -3 -8 5 -4 6 4
9 11 6 16 -3 5 5 14 17 21 49 26 118 37 236 38 l123 1 -16 -30z m125 10 c0
-13 -7 -20 -20 -20 -13 0 -20 7 -20 20 0 13 7 20 20 20 13 0 20 -7 20 -20z
m-950 -60 c0 -13 -7 -20 -20 -20 -13 0 -20 7 -20 20 0 13 7 20 20 20 13 0 20
-7 20 -20z m99 -122 l-1 -133 -21 63 c-11 34 -23 62 -26 62 -3 0 -24 -32 -46
-72 -41 -72 -57 -72 -35 0 17 52 59 124 70 117 5 -3 12 0 16 6 5 8 3 9 -6 4
-8 -5 -11 -3 -8 5 2 7 12 14 21 16 15 2 17 -6 15 -56 -1 -33 1 -62 5 -66 4 -4
7 30 7 76 0 76 -1 82 -15 64 -21 -27 -19 -8 3 21 9 14 18 25 20 25 1 0 2 -60
1 -132z m96 72 c-3 -5 0 -12 6 -16 8 -4 9 -3 5 4 -11 18 2 15 40 -9 l33 -20
-24 -64 c-35 -93 -45 -109 -58 -96 -16 16 -23 226 -8 217 6 -4 9 -11 6 -16z
m423 -363 c4 -20 -25 -34 -40 -19 -15 15 -1 44 19 40 10 -2 19 -11 21 -21z
m-840 -179 c-2 -13 -10 -23 -18 -23 -8 0 -16 10 -18 23 -3 17 2 22 18 22 16 0
21 -5 18 -22z m210 10 c19 -19 14 -65 -9 -81 -27 -20 -58 -10 -70 21 -19 49
43 96 79 60z m-490 -70 c-2 -13 -10 -23 -18 -23 -8 0 -16 10 -18 23 -3 17 2
22 18 22 16 0 21 -5 18 -22z m-52 -127 c-9 -14 -33 -14 -41 -1 -4 6 -1 18 6
26 11 13 14 13 27 0 8 -8 11 -19 8 -25z m-58 -109 c3 -17 -2 -22 -17 -22 -14
0 -21 6 -21 18 0 38 33 41 38 4z m225 -586 c7 -18 -1 -26 -25 -26 -11 0 -18 7
-18 20 0 23 35 28 43 6z m0 -192 c-8 -21 -43 -18 -43 5 0 11 6 21 13 24 17 6
37 -12 30 -29z"/>
<path d="M6110 12691 c0 -25 -5 -30 -27 -34 -26 -4 -26 -4 5 -6 30 -1 32 1 32
34 0 19 -2 35 -5 35 -3 0 -5 -13 -5 -29z"/>
<path d="M5955 12670 c11 -5 29 -8 40 -8 16 0 15 2 -5 8 -34 11 -60 11 -35 0z"/>
<path d="M5958 12523 c12 -2 30 -2 40 0 9 3 -1 5 -23 4 -22 0 -30 -2 -17 -4z"/>
<path d="M6100 12536 c0 -9 5 -16 10 -16 6 0 10 4 10 9 0 6 -4 13 -10 16 -5 3
-10 -1 -10 -9z"/>
<path d="M5826 12481 c-4 -7 -5 -15 -2 -18 9 -9 19 4 14 18 -4 11 -6 11 -12 0z"/>
<path d="M7567 12302 c-15 -16 -13 -17 31 -13 26 2 40 6 32 9 -8 2 -22 8 -31
13 -11 6 -22 3 -32 -9z"/>
<path d="M7780 12126 c0 -34 -4 -45 -17 -48 -15 -3 -14 -5 5 -10 21 -6 22 -3
22 48 0 30 -2 54 -5 54 -3 0 -5 -20 -5 -44z"/>
<path d="M7700 12150 c-20 -6 -21 -8 -5 -8 11 0 29 3 40 8 25 11 -1 11 -35 0z"/>
<path d="M7638 12133 c7 -3 16 -2 19 1 4 3 -2 6 -13 5 -11 0 -14 -3 -6 -6z"/>
<path d="M7600 12115 c47 -18 58 -18 34 0 -10 8 -30 14 -44 14 -22 0 -21 -2
10 -14z"/>
<path d="M7685 12090 c11 -5 27 -9 35 -9 9 0 8 4 -5 9 -11 5 -27 9 -35 9 -9 0
-8 -4 5 -9z"/>
<path d="M7863 12053 c9 -2 23 -2 30 0 6 3 -1 5 -18 5 -16 0 -22 -2 -12 -5z"/>
<path d="M7270 12180 c0 -5 5 -10 10 -10 6 0 10 5 10 10 0 6 -4 10 -10 10 -5
0 -10 -4 -10 -10z"/>
<path d="M8110 12060 c0 -5 5 -10 10 -10 6 0 10 5 10 10 0 6 -4 10 -10 10 -5
0 -10 -4 -10 -10z"/>
<path d="M6670 11232 c0 -4 11 -23 25 -42 30 -41 33 -30 4 16 -21 34 -29 41
-29 26z"/>
<path d="M7723 10635 c0 -8 4 -12 9 -9 4 3 8 9 8 15 0 5 -4 9 -8 9 -5 0 -9 -7
-9 -15z"/>
<path d="M7845 10170 c-18 -20 -17 -20 20 -20 37 0 38 0 20 20 -10 11 -19 20
-20 20 -1 0 -10 -9 -20 -20z m30 0 c3 -5 -1 -10 -10 -10 -9 0 -13 5 -10 10 3
6 8 10 10 10 2 0 7 -4 10 -10z"/>
<path d="M7830 10044 c0 -8 5 -12 10 -9 6 4 8 11 5 16 -9 14 -15 11 -15 -7z"/>
<path d="M7606 9991 c-4 -5 -2 -12 3 -15 5 -4 12 -2 15 3 4 5 2 12 -3 15 -5 4
-12 2 -15 -3z"/>
<path d="M7880 9931 c0 -6 4 -12 8 -15 5 -3 9 1 9 9 0 8 -4 15 -9 15 -4 0 -8
-4 -8 -9z"/>
<path d="M8670 9881 c0 -4 -10 -21 -22 -37 l-22 -28 -7 25 c-7 24 -7 24 -8 -3
-1 -36 11 -35 43 3 24 28 33 49 21 49 -3 0 -5 -4 -5 -9z"/>
<path d="M8762 9822 c-13 -30 -21 -56 -19 -59 3 -2 10 11 17 31 6 19 16 36 22
38 6 2 9 13 6 23 -2 14 -10 5 -26 -33z"/>
<path d="M8793 9775 c0 -27 2 -38 4 -22 2 15 2 37 0 50 -2 12 -4 0 -4 -28z"/>
<path d="M3035 9811 c-3 -5 -1 -12 5 -16 5 -3 10 1 10 9 0 18 -6 21 -15 7z"/>
<path d="M8330 9810 c0 -5 5 -10 10 -10 6 0 10 5 10 10 0 6 -4 10 -10 10 -5 0
-10 -4 -10 -10z"/>
<path d="M8050 9750 c0 -5 5 -10 10 -10 6 0 10 5 10 10 0 6 -4 10 -10 10 -5 0
-10 -4 -10 -10z"/>
<path d="M8440 9750 c0 -5 5 -10 10 -10 6 0 10 5 10 10 0 6 -4 10 -10 10 -5 0
-10 -4 -10 -10z"/>
<path d="M7840 9696 c0 -10 40 -76 46 -76 10 0 2 19 -21 50 -14 19 -25 30 -25
26z"/>
<path d="M8220 9630 c0 -5 5 -10 10 -10 6 0 10 5 10 10 0 6 -4 10 -10 10 -5 0
-10 -4 -10 -10z"/>
<path d="M8342 9610 c0 -14 4 -36 8 -50 8 -25 8 -25 9 -2 1 13 5 20 11 17 6
-3 7 1 3 10 -4 13 -8 14 -14 4 -5 -8 -9 -2 -12 17 -3 24 -4 25 -5 4z"/>
<path d="M8380 9551 c0 -6 4 -13 10 -16 6 -3 7 1 4 9 -7 18 -14 21 -14 7z"/>
<path d="M8400 9511 c0 -6 4 -13 10 -16 6 -3 7 1 4 9 -7 18 -14 21 -14 7z"/>
<path d="M8420 9471 c0 -6 4 -13 10 -16 6 -3 7 1 4 9 -7 18 -14 21 -14 7z"/>
<path d="M8390 9441 c5 -11 15 -23 21 -27 6 -3 3 5 -6 20 -20 30 -30 35 -15 7z"/>
<path d="M8446 9421 c5 -17 3 -21 -6 -16 -9 5 -11 4 -6 -4 4 -6 12 -9 17 -6 5
4 9 -3 9 -14 0 -11 -8 -25 -17 -30 -10 -6 -13 -10 -8 -10 6 0 18 5 27 12 15
12 15 16 -3 53 -10 21 -16 28 -13 15z"/>
<path d="M8478 9341 c-5 -14 -188 -102 -198 -96 -6 4 -10 -1 -10 -9 0 -12 27
-3 110 39 61 30 110 60 110 65 0 12 -7 13 -12 1z"/>
<path d="M8350 9310 c-9 -6 -10 -10 -3 -10 6 0 15 5 18 10 8 12 4 12 -15 0z"/>
<path d="M2960 9614 l-35 -14 33 6 c27 5 32 2 32 -13 0 -10 -7 -30 -16 -43
l-16 -25 21 24 c12 13 21 36 21 52 0 16 -1 29 -2 28 -2 0 -19 -7 -38 -15z"/>
<path d="M2820 9576 c0 -2 7 -7 16 -10 8 -3 12 -2 9 4 -6 10 -25 14 -25 6z"/>
<path d="M8056 9371 l-48 -49 23 -12 c21 -10 22 -9 7 3 -16 13 -15 16 11 41
16 16 33 28 38 27 4 -1 8 2 8 7 0 4 4 13 8 20 15 23 2 12 -47 -37z"/>
<path d="M8080 9290 c8 -5 20 -10 25 -10 6 0 3 5 -5 10 -8 5 -19 10 -25 10 -5
0 -3 -5 5 -10z"/>
<path d="M8697 9428 c-2 -7 -1 -22 3 -33 6 -17 8 -15 12 13 4 31 -5 45 -15 20z"/>
<path d="M8667 9325 c-10 -61 -9 -123 3 -105 5 8 7 33 5 55 -4 27 -3 34 3 20
8 -16 10 -15 15 15 4 18 5 35 2 38 -3 3 -5 -3 -6 -14 -1 -14 -3 -13 -8 6 -7
23 -8 21 -14 -15z"/>
<path d="M7887 9343 c-10 -9 -9 -23 1 -23 5 0 9 7 9 15 0 17 -1 18 -10 8z"/>
<path d="M8776 9341 c-4 -5 -2 -12 3 -15 5 -4 12 -2 15 3 4 5 2 12 -3 15 -5 4
-12 2 -15 -3z"/>
<path d="M8051 9133 c1 -18 3 -22 6 -10 4 15 7 16 21 5 12 -9 12 -6 -2 10 -24
28 -26 28 -25 -5z"/>
<path d="M8100 9110 c0 -5 5 -10 11 -10 5 0 7 5 4 10 -3 6 -8 10 -11 10 -2 0
-4 -4 -4 -10z"/>
<path d="M8066 9055 c-3 -9 -6 -24 -5 -33 0 -9 5 -4 10 12 9 32 6 48 -5 21z"/>
<path d="M806 9041 c-4 -5 -2 -12 3 -15 5 -4 12 -2 15 3 4 5 2 12 -3 15 -5 4
-12 2 -15 -3z"/>
<path d="M606 8893 c-6 -14 -5 -15 5 -6 7 7 10 15 7 18 -3 3 -9 -2 -12 -12z"/>
<path d="M586 8855 c-9 -26 -7 -32 5 -12 6 10 9 21 6 23 -2 3 -7 -2 -11 -11z"/>
<path d="M566 8803 c-6 -14 -5 -15 5 -6 7 7 10 15 7 18 -3 3 -9 -2 -12 -12z"/>
<path d="M741 8804 c0 -11 3 -14 6 -6 3 7 2 16 -1 19 -3 4 -6 -2 -5 -13z"/>
<path d="M546 8753 c-6 -14 -5 -15 5 -6 7 7 10 15 7 18 -3 3 -9 -2 -12 -12z"/>
<path d="M725 8720 c-4 -23 -5 -43 -2 -46 2 -3 7 14 11 37 4 23 5 44 2 46 -2
2 -7 -14 -11 -37z"/>
<path d="M506 8655 c-9 -26 -7 -32 5 -12 6 10 9 21 6 23 -2 3 -7 -2 -11 -11z"/>
<path d="M491 8613 c-1 -6 -4 -20 -7 -30 -5 -17 -5 -17 6 0 6 10 9 23 6 30 -3
9 -5 9 -5 0z"/>
<path d="M540 8590 c-6 -11 -8 -20 -6 -20 3 0 10 9 16 20 6 11 8 20 6 20 -3 0
-10 -9 -16 -20z"/>
<path d="M466 8524 c-4 -14 -5 -28 -3 -31 3 -2 8 8 11 23 4 14 5 28 3 31 -3 2
-8 -8 -11 -23z"/>
<path d="M505 8529 c-4 -6 -5 -12 -2 -15 2 -3 7 2 10 11 7 17 1 20 -8 4z"/>
<path d="M478 8475 c-7 -16 -14 -21 -18 -14 -4 6 -11 -6 -14 -26 -4 -20 -6
-39 -4 -41 2 -2 16 21 31 51 15 30 24 55 22 55 -3 0 -11 -11 -17 -25z"/>
<path d="M7900 8805 c-11 -13 -8 -15 20 -15 28 0 31 2 20 15 -7 8 -16 15 -20
15 -4 0 -13 -7 -20 -15z"/>
<path d="M4990 8444 c0 -8 5 -12 10 -9 6 4 8 11 5 16 -9 14 -15 11 -15 -7z"/>
<path d="M580 8331 c0 -6 4 -12 8 -15 5 -3 9 1 9 9 0 8 -4 15 -9 15 -4 0 -8
-4 -8 -9z"/>
<path d="M783 8247 c-30 -20 -33 -26 -31 -72 l2 -50 3 48 c4 41 9 50 41 72 20
14 32 25 27 24 -6 0 -25 -10 -42 -22z"/>
<path d="M805 7995 c-3 -31 -5 -59 -2 -61 3 -3 8 20 12 51 3 31 5 59 2 61 -3
3 -8 -20 -12 -51z"/>
<path d="M764 7955 c0 -49 1 -71 3 -48 2 23 2 64 0 90 -2 26 -3 8 -3 -42z"/>
<path d="M791 7894 c0 -11 3 -14 6 -6 3 7 2 16 -1 19 -3 4 -6 -2 -5 -13z"/>
<path d="M766 7815 c-9 -26 -7 -32 5 -12 6 10 9 21 6 23 -2 3 -7 -2 -11 -11z"/>
<path d="M10615 8271 c-3 -5 -1 -12 5 -16 5 -3 10 1 10 9 0 18 -6 21 -15 7z"/>
<path d="M508 8213 c17 -2 47 -2 65 0 17 2 3 4 -33 4 -36 0 -50 -2 -32 -4z"/>
<path d="M466 8149 c-4 -23 -5 -44 -2 -46 2 -2 7 14 11 37 4 23 5 43 2 46 -2
3 -7 -14 -11 -37z"/>
<path d="M600 8185 c0 -5 5 -17 10 -25 5 -8 10 -10 10 -5 0 6 -5 17 -10 25 -5
8 -10 11 -10 5z"/>
<path d="M609 8073 l-24 -28 28 24 c15 14 27 26 27 28 0 8 -8 1 -31 -24z"/>
<path d="M446 8034 c-4 -20 -5 -38 -3 -40 3 -3 8 11 11 32 4 20 5 38 3 40 -3
3 -8 -11 -11 -32z"/>
<path d="M515 7949 c-9 -17 -15 -33 -13 -35 3 -2 12 12 21 31 21 43 13 47 -8
4z"/>
<path d="M426 7919 c-4 -23 -5 -44 -2 -46 2 -2 7 14 11 37 4 23 5 43 2 46 -2
3 -7 -14 -11 -37z"/>
<path d="M486 7878 c-3 -13 -6 -43 -6 -67 0 -40 -1 -42 -17 -30 -13 10 -13 8
2 -10 l20 -23 6 73 c7 79 5 94 -5 57z"/>
<path d="M411 7834 c0 -12 7 -28 17 -35 15 -12 16 -12 6 1 -7 8 -14 24 -17 35
-4 19 -5 19 -6 -1z"/>
<path d="M4047 8154 c-4 -4 -7 -14 -7 -23 1 -14 2 -13 11 2 5 9 19 17 29 17
15 0 20 -7 20 -29 0 -16 -5 -32 -10 -34 -6 -3 -5 -4 2 -3 8 2 13 17 13 37 0
29 -4 34 -25 37 -14 2 -29 0 -33 -4z"/>
<path d="M4040 8101 c0 -10 19 -25 25 -20 1 2 -3 10 -11 17 -8 7 -14 8 -14 3z"/>
<path d="M3310 8090 c0 -5 5 -10 10 -10 6 0 10 5 10 10 0 6 -4 10 -10 10 -5 0
-10 -4 -10 -10z"/>
<path d="M7380 8090 c0 -5 5 -10 10 -10 6 0 10 5 10 10 0 6 -4 10 -10 10 -5 0
-10 -4 -10 -10z"/>
<path d="M7224 8023 c19 -22 19 -24 0 -45 l-18 -23 24 23 24 22 -24 23 -24 22
18 -22z"/>
<path d="M7103 8000 c0 -25 2 -35 4 -22 2 12 2 32 0 45 -2 12 -4 2 -4 -23z"/>
<path d="M300 8029 c0 -5 5 -7 10 -4 6 3 10 8 10 11 0 2 -4 4 -10 4 -5 0 -10
-5 -10 -11z"/>
<path d="M7491 7988 c-1 -26 2 -28 37 -26 36 1 36 1 5 5 -23 3 -33 10 -36 26
-4 18 -5 17 -6 -5z"/>
<path d="M6990 7954 c-11 -12 -10 -18 3 -32 16 -15 17 -14 17 16 0 36 -2 38
-20 16z"/>
<path d="M7038 7868 c5 -5 16 -8 23 -6 8 3 3 7 -10 11 -17 4 -21 3 -13 -5z"/>
<path d="M7100 7850 c8 -5 22 -9 30 -9 10 0 8 3 -5 9 -27 12 -43 12 -25 0z"/>
<path d="M7198 7823 c7 -3 16 -2 19 1 4 3 -2 6 -13 5 -11 0 -14 -3 -6 -6z"/>
<path d="M7227 7801 c-4 -17 -3 -21 5 -13 5 5 8 16 6 23 -3 8 -7 3 -11 -10z"/>
<path d="M7169 7750 c31 -26 57 -26 64 3 6 22 6 22 -9 2 -14 -19 -16 -19 -47
-2 l-32 17 24 -20z"/>
<path d="M10890 7970 c0 -5 5 -10 10 -10 6 0 10 5 10 10 0 6 -4 10 -10 10 -5
0 -10 -4 -10 -10z"/>
<path d="M10610 7910 c0 -5 5 -10 10 -10 6 0 10 5 10 10 0 6 -4 10 -10 10 -5
0 -10 -4 -10 -10z"/>
<path d="M10730 7910 c0 -5 5 -10 10 -10 6 0 10 5 10 10 0 6 -4 10 -10 10 -5
0 -10 -4 -10 -10z"/>
<path d="M4121 7800 c1 -14 4 -36 8 -50 l7 -25 6 27 c3 17 1 25 -5 21 -6 -4
-8 0 -5 9 4 8 2 21 -3 29 -6 10 -8 7 -8 -11z"/>
<path d="M4145 7665 c5 -43 26 -66 59 -64 14 1 11 4 -11 10 -27 8 -34 16 -42
52 l-11 42 5 -40z"/>
<path d="M4200 7655 c0 -5 5 -17 10 -25 5 -8 10 -10 10 -5 0 6 -5 17 -10 25
-5 8 -10 11 -10 5z"/>
<path d="M2920 7850 c0 -5 5 -10 11 -10 5 0 7 5 4 10 -3 6 -8 10 -11 10 -2 0
-4 -4 -4 -10z"/>
<path d="M604 7799 c-5 -8 -3 -9 6 -4 8 5 20 -1 33 -16 l19 -24 -14 24 c-17
29 -33 37 -44 20z"/>
<path d="M480 7622 c0 -4 19 -6 43 -4 70 5 76 10 15 11 -32 0 -58 -2 -58 -7z"/>
<path d="M466 7529 c-4 -28 -5 -53 -3 -56 3 -2 8 19 12 47 4 28 5 53 2 56 -2
3 -7 -19 -11 -47z"/>
<path d="M447 7386 c-4 -27 -6 -50 -5 -51 2 -1 14 12 28 29 13 17 17 25 8 18
-15 -12 -17 -10 -20 20 -3 30 -4 28 -11 -16z"/>
<path d="M3090 7790 c0 -5 5 -10 10 -10 6 0 10 5 10 10 0 6 -4 10 -10 10 -5 0
-10 -4 -10 -10z"/>
<path d="M10144 7766 c-16 -14 -23 -26 -16 -26 7 0 15 7 18 15 4 8 10 13 14
10 10 -6 25 14 17 21 -3 3 -18 -6 -33 -20z"/>
<path d="M3931 7689 c0 -24 3 -37 6 -29 3 8 9 22 14 31 6 11 4 21 -6 29 -13
11 -15 6 -14 -31z"/>
<path d="M6663 7735 c0 -8 4 -15 9 -15 4 0 8 4 8 9 0 6 -4 12 -8 15 -5 3 -9
-1 -9 -9z"/>
<path d="M4711 7629 c0 -24 3 -37 6 -29 3 8 9 22 14 31 6 11 4 21 -6 29 -13
11 -15 6 -14 -31z"/>
<path d="M2927 7683 c-10 -9 -9 -23 1 -23 5 0 9 7 9 15 0 17 -1 18 -10 8z"/>
<path d="M3090 7675 c0 -8 5 -15 10 -15 6 0 10 7 10 15 0 8 -4 15 -10 15 -5 0
-10 -7 -10 -15z"/>
<path d="M10959 7607 c5 -5 24 -7 42 -5 33 3 33 4 -8 8 -23 3 -39 2 -34 -3z"/>
<path d="M6270 7614 c0 -8 5 -12 10 -9 6 4 8 11 5 16 -9 14 -15 11 -15 -7z"/>
<path d="M10191 7593 c0 -11 3 -13 6 -5 3 7 23 12 49 12 l44 0 0 -55 c0 -32
-4 -55 -11 -55 -22 0 -47 21 -59 50 -7 17 -15 29 -17 26 -8 -8 27 -65 46 -76
43 -23 51 -14 51 55 l0 65 -55 0 c-46 0 -55 -3 -54 -17z"/>
<path d="M4049 7513 c-13 -16 -12 -17 4 -4 16 13 21 21 13 21 -2 0 -10 -8 -17
-17z"/>
<path d="M3035 7501 c-3 -5 -1 -12 5 -16 5 -3 10 1 10 9 0 18 -6 21 -15 7z"/>
<path d="M3150 7494 c0 -8 5 -12 10 -9 6 4 8 11 5 16 -9 14 -15 11 -15 -7z"/>
<path d="M4524 7428 l-19 -23 23 19 c21 18 27 26 19 26 -2 0 -12 -10 -23 -22z"/>
<path d="M4608 7433 c12 -2 32 -2 45 0 12 2 2 4 -23 4 -25 0 -35 -2 -22 -4z"/>
<path d="M4703 7423 c15 -2 37 -2 50 0 12 2 0 4 -28 4 -27 0 -38 -2 -22 -4z"/>
<path d="M4782 7310 c0 -14 2 -19 5 -12 2 6 2 18 0 25 -3 6 -5 1 -5 -13z"/>
<path d="M4791 7264 c0 -11 3 -14 6 -6 3 7 2 16 -1 19 -3 4 -6 -2 -5 -13z"/>
<path d="M4381 7256 c-10 -12 -8 -17 11 -26 20 -10 21 -10 6 3 -13 10 -15 16
-6 25 7 7 9 12 6 12 -3 0 -11 -6 -17 -14z"/>
<path d="M4801 7230 c0 -8 4 -22 9 -30 12 -18 12 -2 0 25 -6 13 -9 15 -9 5z"/>
<path d="M4420 7216 c0 -2 7 -7 16 -10 8 -3 12 -2 9 4 -6 10 -25 14 -25 6z"/>
<path d="M4460 7196 c0 -3 14 -12 30 -21 17 -9 30 -13 30 -11 0 3 -13 12 -30
21 -16 9 -30 13 -30 11z"/>
<path d="M4820 7166 c0 -8 4 -17 9 -20 5 -4 7 3 4 14 -6 23 -13 26 -13 6z"/>
<path d="M4550 7146 c0 -3 9 -10 20 -16 11 -6 20 -8 20 -6 0 3 -9 10 -20 16
-11 6 -20 8 -20 6z"/>
<path d="M4710 7110 c-18 -12 -2 -12 25 0 13 6 15 9 5 9 -8 0 -22 -4 -30 -9z"/>
<path d="M4648 7093 c6 -2 18 -2 25 0 6 3 1 5 -13 5 -14 0 -19 -2 -12 -5z"/>
<path d="M10063 7435 c0 -8 4 -12 9 -9 4 3 8 9 8 15 0 5 -4 9 -8 9 -5 0 -9 -7
-9 -15z"/>
<path d="M10220 7380 c0 -5 7 -10 16 -10 8 0 12 5 9 10 -3 6 -10 10 -16 10 -5
0 -9 -4 -9 -10z"/>
<path d="M128 7203 c7 -3 16 -2 19 1 4 3 -2 6 -13 5 -11 0 -14 -3 -6 -6z"/>
<path d="M180 7190 c8 -5 22 -9 30 -9 10 0 8 3 -5 9 -27 12 -43 12 -25 0z"/>
<path d="M255 7170 c11 -5 27 -9 35 -9 9 0 8 4 -5 9 -11 5 -27 9 -35 9 -9 0
-8 -4 5 -9z"/>
<path d="M150 7120 c6 -11 13 -20 16 -20 2 0 0 9 -6 20 -6 11 -13 20 -16 20
-2 0 0 -9 6 -20z"/>
<path d="M236 7059 c-21 -16 -35 -29 -30 -29 6 0 25 13 44 30 45 37 37 37 -14
-1z"/>
<path d="M2920 7260 c0 -5 5 -10 10 -10 6 0 10 5 10 10 0 6 -4 10 -10 10 -5 0
-10 -4 -10 -10z"/>
<path d="M3760 7170 c0 -32 1 -33 17 -17 16 16 16 18 0 34 -16 16 -17 15 -17
-17z"/>
<path d="M10560 6960 c0 -5 5 -10 10 -10 6 0 10 5 10 10 0 6 -4 10 -10 10 -5
0 -10 -4 -10 -10z"/>
<path d="M687 6948 c-8 -29 -4 -32 11 -8 6 10 8 21 3 24 -5 3 -11 -4 -14 -16z"/>
<path d="M720 6947 c0 -2 11 -13 25 -25 14 -12 25 -18 25 -13 0 5 -11 16 -25
25 -14 9 -25 15 -25 13z"/>
<path d="M725 6890 c-3 -6 1 -7 9 -4 18 7 21 14 7 14 -6 0 -13 -4 -16 -10z"/>
<path d="M656 6863 c-4 -9 3 -9 25 -1 36 12 37 16 4 14 -14 0 -27 -6 -29 -13z"/>
<path d="M7704 6886 c-10 -8 -16 -17 -13 -20 3 -3 14 3 24 14 21 23 17 26 -11
6z"/>
<path d="M8347 6884 c2 -7 11 -10 19 -7 19 7 18 10 -5 16 -13 3 -18 1 -14 -9z"/>
<path d="M8397 6869 c7 -7 15 -10 18 -7 3 3 -2 9 -12 12 -14 6 -15 5 -6 -5z"/>
<path d="M8360 6855 c0 -5 5 -17 10 -25 5 -8 10 -10 10 -5 0 6 -5 17 -10 25
-5 8 -10 11 -10 5z"/>
<path d="M8435 6850 c3 -5 8 -10 11 -10 2 0 4 5 4 10 0 6 -5 10 -11 10 -5 0
-7 -4 -4 -10z"/>
<path d="M8413 6804 c-13 -14 -18 -24 -11 -22 10 4 45 48 37 48 -2 0 -14 -12
-26 -26z"/>
<path d="M81 6816 c-1 -38 -1 -39 19 -21 17 15 19 35 4 35 -3 0 -3 -4 1 -9 3
-5 1 -12 -4 -15 -5 -4 -12 6 -14 21 -3 22 -4 19 -6 -11z"/>
<path d="M4095 6851 c-3 -5 -1 -12 5 -16 5 -3 10 1 10 9 0 18 -6 21 -15 7z"/>
<path d="M4206 6731 c-4 -5 -2 -12 3 -15 5 -4 12 -2 15 3 4 5 2 12 -3 15 -5 4
-12 2 -15 -3z"/>
<path d="M8330 6490 c0 -5 5 -10 10 -10 6 0 10 5 10 10 0 6 -4 10 -10 10 -5 0
-10 -4 -10 -10z"/>
<path d="M6320 6310 c0 -5 5 -10 11 -10 5 0 7 5 4 10 -3 6 -8 10 -11 10 -2 0
-4 -4 -4 -10z"/>
<path d="M10950 6310 c0 -5 5 -10 10 -10 6 0 10 5 10 10 0 6 -4 10 -10 10 -5
0 -10 -4 -10 -10z"/>
<path d="M4480 6250 c0 -5 5 -10 11 -10 5 0 7 5 4 10 -3 6 -8 10 -11 10 -2 0
-4 -4 -4 -10z"/>
<path d="M825 6020 c-18 -20 -17 -20 20 -20 37 0 38 0 20 20 -10 11 -19 20
-20 20 -1 0 -10 -9 -20 -20z m30 0 c3 -5 -1 -10 -10 -10 -9 0 -13 5 -10 10 3
6 8 10 10 10 2 0 7 -4 10 -10z"/>
<path d="M6880 5895 c0 -8 5 -15 10 -15 6 0 10 7 10 15 0 8 -4 15 -10 15 -5 0
-10 -7 -10 -15z"/>
<path d="M6990 5901 c0 -6 5 -13 10 -16 6 -3 10 1 10 9 0 9 -4 16 -10 16 -5 0
-10 -4 -10 -9z"/>
<path d="M7550 5600 c0 -5 5 -10 10 -10 6 0 10 5 10 10 0 6 -4 10 -10 10 -5 0
-10 -4 -10 -10z"/>
<path d="M7605 5420 c4 -6 11 -8 16 -5 14 9 11 15 -7 15 -8 0 -12 -5 -9 -10z"/>
<path d="M7606 5311 c-4 -5 -2 -12 3 -15 5 -4 12 -2 15 3 4 5 2 12 -3 15 -5 4
-12 2 -15 -3z"/>
<path d="M8223 5305 c0 -8 4 -15 9 -15 4 0 8 4 8 9 0 6 -4 12 -8 15 -5 3 -9
-1 -9 -9z"/>
<path d="M645 4950 c3 -5 8 -10 11 -10 2 0 4 5 4 10 0 6 -5 10 -11 10 -5 0 -7
-4 -4 -10z"/>
<path d="M8331 4626 c-1 -33 1 -37 14 -26 8 7 15 18 15 24 0 6 -4 5 -9 -3 -7
-11 -10 -7 -14 15 -3 25 -4 23 -6 -10z"/>
<path d="M9555 4650 c4 -6 11 -8 16 -5 14 9 11 15 -7 15 -8 0 -12 -5 -9 -10z"/>
<path d="M6986 4515 c-9 -26 -7 -32 5 -12 6 10 9 21 6 23 -2 3 -7 -2 -11 -11z"/>
<path d="M7000 4485 c0 -5 5 -17 10 -25 5 -8 10 -10 10 -5 0 6 -5 17 -10 25
-5 8 -10 11 -10 5z"/>
<path d="M6966 4465 c-9 -26 -7 -32 5 -12 6 10 9 21 6 23 -2 3 -7 -2 -11 -11z"/>
<path d="M8082 4440 c7 -11 17 -20 22 -20 5 0 1 9 -9 20 -10 11 -20 20 -22 20
-2 0 2 -9 9 -20z"/>
<path d="M8106 4397 c3 -10 9 -15 12 -12 3 3 0 11 -7 18 -10 9 -11 8 -5 -6z"/>
<path d="M8065 4350 c-13 -6 -15 -9 -5 -9 8 0 22 4 30 9 18 12 2 12 -25 0z"/>
<path d="M7995 4330 c-13 -5 -14 -9 -5 -9 8 0 24 4 35 9 13 5 14 9 5 9 -8 0
-24 -4 -35 -9z"/>
<path d="M8133 4290 c-12 -28 -19 -50 -17 -50 7 0 46 91 42 96 -2 2 -14 -19
-25 -46z"/>
<path d="M7920 4311 c-17 -5 -21 -9 -12 -15 6 -4 22 0 34 8 24 17 19 18 -22 7z"/>
<path d="M7960 4276 c0 -2 9 -6 20 -9 11 -3 18 -1 14 4 -5 9 -34 13 -34 5z"/>
<path d="M8030 4250 c8 -5 20 -10 25 -10 6 0 3 5 -5 10 -8 5 -19 10 -25 10 -5
0 -3 -5 5 -10z"/>
<path d="M8275 4421 c-3 -5 -1 -12 5 -16 5 -3 10 1 10 9 0 18 -6 21 -15 7z"/>
<path d="M8110 4120 c0 -5 5 -10 10 -10 6 0 10 5 10 10 0 6 -4 10 -10 10 -5 0
-10 -4 -10 -10z"/>
<path d="M7669 3988 c0 -7 0 -48 1 -90 1 -77 1 -78 -24 -78 -18 0 -26 6 -29
23 -3 19 -4 19 -3 -3 1 -21 7 -26 34 -28 l32 -3 0 95 c0 53 -2 96 -5 96 -3 0
-5 -6 -6 -12z"/>
<path d="M8050 3856 c0 -33 2 -37 15 -26 18 15 20 24 3 14 -7 -5 -9 -2 -6 8 4
8 2 21 -3 29 -6 10 -9 2 -9 -25z"/>
<path d="M7770 3820 c0 -5 5 -10 10 -10 6 0 10 5 10 10 0 6 -4 10 -10 10 -5 0
-10 -4 -10 -10z"/>
<path d="M7550 3706 c0 -9 5 -16 10 -16 6 0 10 4 10 9 0 6 -4 13 -10 16 -5 3
-10 -1 -10 -9z"/>
<path d="M8565 3590 c-18 -20 -17 -20 25 -20 42 0 43 0 25 20 -10 11 -21 20
-25 20 -4 0 -15 -9 -25 -20z m40 0 c3 -5 -3 -10 -15 -10 -12 0 -18 5 -15 10 3
6 10 10 15 10 5 0 12 -4 15 -10z"/>
<path d="M8292 3570 c0 -14 2 -19 5 -12 2 6 2 18 0 25 -3 6 -5 1 -5 -13z"/>
<path d="M8200 3549 c-27 -11 -40 -27 -39 -49 0 -8 4 -5 9 8 5 12 21 27 35 32
14 5 25 12 25 15 0 6 1 6 -30 -6z"/>
<path d="M8302 3490 c0 -14 2 -19 5 -12 2 6 2 18 0 25 -3 6 -5 1 -5 -13z"/>
<path d="M8146 3444 c-4 -14 -5 -28 -3 -31 3 -2 8 8 11 23 4 14 5 28 3 31 -3
2 -8 -8 -11 -23z"/>
<path d="M8312 3440 c0 -14 2 -19 5 -12 2 6 2 18 0 25 -3 6 -5 1 -5 -13z"/>
<path d="M8126 3364 c-4 -14 -5 -28 -3 -31 3 -2 8 8 11 23 4 14 5 28 3 31 -3
2 -8 -8 -11 -23z"/>
<path d="M8322 3370 c0 -14 2 -19 5 -12 2 6 2 18 0 25 -3 6 -5 1 -5 -13z"/>
<path d="M8332 3320 c0 -14 2 -19 5 -12 2 6 2 18 0 25 -3 6 -5 1 -5 -13z"/>
<path d="M8182 3265 c21 -22 39 -37 41 -34 2 2 -15 19 -37 38 l-41 35 37 -39z"/>
<path d="M8300 3270 c-8 -5 -10 -10 -5 -10 6 0 17 5 25 10 8 5 11 10 5 10 -5
0 -17 -5 -25 -10z"/>
<path d="M8250 3250 c-8 -5 -10 -10 -5 -10 6 0 17 5 25 10 8 5 11 10 5 10 -5
0 -17 -5 -25 -10z"/>
<path d="M6880 3471 c0 -6 5 -13 10 -16 6 -3 10 1 10 9 0 9 -4 16 -10 16 -5 0
-10 -4 -10 -9z"/>
<path d="M8475 3229 c-17 -8 -16 -8 7 -4 18 3 28 0 31 -10 4 -12 5 -11 3 1 -1
21 -15 25 -41 13z"/>
<path d="M8430 3210 c-9 -6 -10 -10 -3 -10 6 0 15 5 18 10 8 12 4 12 -15 0z"/>
<path d="M8375 3180 c-16 -11 -25 -20 -20 -20 10 0 64 39 55 40 -3 0 -18 -9
-35 -20z"/>
<path d="M8485 3149 c-4 -6 -5 -12 -2 -15 2 -3 7 2 10 11 7 17 1 20 -8 4z"/>
<path d="M8284 3124 c-18 -14 -18 -15 4 -4 12 6 22 13 22 15 0 8 -5 6 -26 -11z"/>
<path d="M8110 3050 c0 -5 5 -10 10 -10 6 0 10 5 10 10 0 6 -4 10 -10 10 -5 0
-10 -4 -10 -10z"/>
<path d="M7996 2941 c-4 -5 -2 -12 3 -15 5 -4 12 -2 15 3 4 5 2 12 -3 15 -5 4
-12 2 -15 -3z"/>
<path d="M3661 2859 c0 -8 4 -23 8 -33 7 -19 8 -19 13 2 4 12 0 26 -8 33 -11
9 -14 8 -13 -2z"/>
<path d="M3680 2795 c0 -5 5 -17 10 -25 5 -8 10 -10 10 -5 0 6 -5 17 -10 25
-5 8 -10 11 -10 5z"/>
<path d="M3749 2766 c10 -11 8 -15 -6 -19 -11 -3 -7 -5 11 -6 28 -1 29 -1 11
19 -20 23 -34 28 -16 6z"/>
<path d="M3751 2653 c17 -29 35 -53 40 -53 5 0 8 -3 7 -7 -2 -5 5 -19 15 -33
9 -13 17 -20 17 -14 0 13 -50 90 -84 129 -25 28 -24 26 5 -22z"/>
<path d="M6380 2580 c0 -5 5 -10 10 -10 6 0 10 5 10 10 0 6 -4 10 -10 10 -5 0
-10 -4 -10 -10z"/>
<path d="M5650 2520 c0 -5 5 -10 10 -10 6 0 10 5 10 10 0 6 -4 10 -10 10 -5 0
-10 -4 -10 -10z"/>
<path d="M8259 2476 c10 -12 8 -15 -11 -19 -17 -3 -13 -5 11 -6 33 -1 34 -1
16 19 -21 23 -34 28 -16 6z"/>
<path d="M3870 2375 c0 -36 1 -38 16 -23 15 15 15 18 0 39 -16 23 -16 23 -16
-16z"/>
<path d="M5068 2403 c28 -2 76 -2 105 0 28 2 5 3 -53 3 -58 0 -81 -1 -52 -3z"/>
<path d="M4968 2393 c7 -3 16 -2 19 1 4 3 -2 6 -13 5 -11 0 -14 -3 -6 -6z"/>
<path d="M4928 2383 c7 -3 16 -2 19 1 4 3 -2 6 -13 5 -11 0 -14 -3 -6 -6z"/>
<path d="M5205 2290 c16 -7 12 -9 -20 -11 -33 -2 -35 -3 -11 -6 15 -3 40 -1
55 2 24 7 25 8 6 15 -27 12 -56 11 -30 0z"/>
<path d="M4841 2275 c0 -11 2 -44 5 -72 l7 -53 91 2 91 2 -86 3 -87 4 -10 67
c-5 37 -10 58 -11 47z"/>
<path d="M5112 2225 c-17 -37 -14 -45 4 -12 9 16 14 31 11 33 -2 2 -9 -7 -15
-21z"/>
<path d="M5085 2169 c-4 -6 -5 -12 -2 -15 2 -3 7 2 10 11 7 17 1 20 -8 4z"/>
<path d="M5066 2125 c-9 -26 -7 -32 5 -12 6 10 9 21 6 23 -2 3 -7 -2 -11 -11z"/>
<path d="M5041 2088 c0 -31 3 -37 8 -24 7 18 3 66 -5 66 -2 0 -4 -19 -3 -42z"/>
<path d="M4866 2060 c7 -28 12 -35 18 -29 2 2 -2 15 -10 29 l-15 25 7 -25z"/>
<path d="M5320 2400 c0 -5 5 -10 10 -10 6 0 10 5 10 10 0 6 -4 10 -10 10 -5 0
-10 -4 -10 -10z"/>
<path d="M4370 2340 c0 -5 5 -10 10 -10 6 0 10 5 10 10 0 6 -4 10 -10 10 -5 0
-10 -4 -10 -10z"/>
<path d="M4414 2209 c-11 -23 -12 -30 -3 -27 11 4 33 58 23 58 -2 0 -11 -14
-20 -31z"/>
<path d="M4385 2149 c-10 -30 0 -33 13 -4 6 14 7 25 2 25 -5 0 -12 -9 -15 -21z"/>
<path d="M4626 2165 c-9 -26 -7 -32 5 -12 6 10 9 21 6 23 -2 3 -7 -2 -11 -11z"/>
<path d="M4600 2115 c0 -8 2 -15 4 -15 2 0 6 7 10 15 3 8 1 15 -4 15 -6 0 -10
-7 -10 -15z"/>
<path d="M4986 1931 c-4 -5 -2 -12 3 -15 5 -4 12 -2 15 3 4 5 2 12 -3 15 -5 4
-12 2 -15 -3z"/>
<path d="M4150 1750 c0 -5 5 -10 10 -10 6 0 10 5 10 10 0 6 -4 10 -10 10 -5 0
-10 -4 -10 -10z"/>
<path d="M4325 1750 c-4 -6 -4 -14 -1 -17 3 -4 6 -1 6 5 0 7 11 12 25 12 21 0
25 -5 25 -29 0 -16 -5 -32 -10 -34 -6 -3 -5 -4 2 -3 8 2 13 17 13 37 0 29 -4
34 -27 37 -14 2 -29 -2 -33 -8z"/>
<path d="M4320 1701 c0 -10 19 -25 25 -20 1 2 -3 10 -11 17 -8 7 -14 8 -14 3z"/>
<path d="M3870 1690 c0 -5 5 -10 10 -10 6 0 10 5 10 10 0 6 -4 10 -10 10 -5 0
-10 -4 -10 -10z"/>
<path d="M3810 1570 c0 -5 5 -10 10 -10 6 0 10 5 10 10 0 6 -4 10 -10 10 -5 0
-10 -4 -10 -10z"/>
<path d="M3760 1450 c0 -5 5 -10 10 -10 6 0 10 5 10 10 0 6 -4 10 -10 10 -5 0
-10 -4 -10 -10z"/>
<path d="M3980 860 c0 -5 5 -10 10 -10 6 0 10 5 10 10 0 6 -4 10 -10 10 -5 0
-10 -4 -10 -10z"/>
<path d="M3980 680 c0 -5 5 -10 10 -10 6 0 10 5 10 10 0 6 -4 10 -10 10 -5 0
-10 -4 -10 -10z"/>
</g>
</svg>
