<?xml version="1.0" standalone="no"?>
<!DOCTYPE svg PUBLIC "-//W3C//DTD SVG 20010904//EN"
 "http://www.w3.org/TR/2001/REC-SVG-20010904/DTD/svg10.dtd">
<svg version="1.0" xmlns="http://www.w3.org/2000/svg"
 width="1251.000000pt" height="1280.000000pt" viewBox="0 0 1251.000000 1280.000000"
 preserveAspectRatio="xMidYMid meet">
<metadata>
Created by potrace 1.15, written by Peter Selinger 2001-2017
</metadata>
<g transform="translate(0.000000,1280.000000) scale(0.100000,-0.100000)"
fill="#000000" stroke="none">
<path d="M6120 12745 c0 -5 -52 -254 -115 -554 -63 -300 -153 -730 -200 -956
-144 -687 -223 -1066 -290 -1380 l-63 -300 -377 -805 c-207 -443 -380 -808
-384 -813 -8 -8 -1507 -683 -1616 -728 -46 -19 -381 -96 -990 -229 -506 -111
-1152 -253 -1436 -316 -284 -62 -535 -116 -558 -120 -22 -4 -41 -9 -41 -13 0
-3 66 -20 148 -38 220 -48 1714 -377 2307 -509 l520 -115 415 -184 c228 -102
604 -270 835 -373 l419 -189 379 -809 378 -809 154 -730 c85 -401 231 -1097
325 -1545 93 -448 176 -839 182 -869 9 -41 14 -49 19 -35 9 21 57 247 264
1239 74 352 186 885 250 1185 64 300 125 590 137 644 18 88 50 163 278 655
141 306 312 673 379 816 l122 260 267 120 c900 402 1068 475 1080 470 7 -2 11
-1 8 4 -3 4 63 39 147 76 l152 69 575 128 c316 71 656 146 755 168 213 47
1128 248 1437 317 120 26 218 50 218 53 0 3 -100 27 -223 53 -288 63 -2348
515 -2581 567 l-179 40 -656 294 c-361 162 -734 330 -829 373 l-173 79 -200
430 c-110 236 -281 602 -379 814 l-178 386 -56 259 c-30 143 -112 528 -180
855 -393 1873 -433 2060 -441 2068 -3 3 -5 2 -5 -3z"/>
<path d="M9598 5933 c7 -3 16 -2 19 1 4 3 -2 6 -13 5 -11 0 -14 -3 -6 -6z"/>
<path d="M9380 5891 c-134 -30 -189 -48 -292 -95 -71 -32 -128 -61 -128 -63 0
-3 8 -2 18 2 9 4 44 13 77 21 33 8 65 15 70 17 16 5 54 16 130 39 75 22 75 21
150 50 28 11 79 30 115 43 89 33 55 29 -140 -14z"/>
<path d="M6872 3618 c-52 -113 -66 -156 -92 -282 -17 -82 -29 -151 -27 -153 4
-4 65 159 96 257 35 108 39 122 56 195 9 39 21 78 27 88 5 10 8 21 5 23 -2 2
-31 -56 -65 -128z"/>
<path d="M6741 3144 c0 -11 3 -14 6 -6 3 7 2 16 -1 19 -3 4 -6 -2 -5 -13z"/>
</g>
</svg>
