<?xml version="1.0" standalone="no"?>
<!DOCTYPE svg PUBLIC "-//W3C//DTD SVG 20010904//EN"
 "http://www.w3.org/TR/2001/REC-SVG-20010904/DTD/svg10.dtd">
<svg version="1.0" xmlns="http://www.w3.org/2000/svg"
 width="1280.000000pt" height="1280.000000pt" viewBox="0 0 1280.000000 1280.000000"
 preserveAspectRatio="xMidYMid meet">
<metadata>
Created by potrace 1.15, written by Peter Selinger 2001-2017
</metadata>
<g transform="translate(0.000000,1280.000000) scale(0.100000,-0.100000)"
fill="#000000" stroke="none">
<path d="M4288 10704 l-177 -42 -103 -74 c-89 -64 -112 -87 -177 -178 l-75
-104 -43 -180 c-47 -197 -47 -209 -6 -371 8 -33 23 -107 33 -165 18 -101 40
-214 80 -405 47 -229 72 -354 105 -525 33 -173 61 -309 100 -490 9 -41 25
-122 35 -180 11 -58 29 -152 41 -209 l21 -104 -23 -18 c-22 -16 -159 -90 -294
-157 -27 -14 -61 -33 -75 -42 -14 -9 -90 -51 -170 -92 -80 -42 -176 -93 -215
-113 -154 -82 -222 -119 -265 -143 -25 -14 -97 -52 -160 -85 -63 -32 -119 -63
-125 -67 -5 -4 -81 -44 -167 -89 -87 -44 -179 -94 -206 -110 -27 -15 -66 -36
-88 -46 -21 -10 -89 -54 -151 -97 -103 -72 -118 -88 -187 -184 l-74 -105 -36
-152 c-20 -84 -39 -165 -42 -182 -3 -18 11 -97 36 -204 l41 -174 72 -102 c64
-91 84 -111 179 -179 106 -77 107 -77 245 -111 136 -33 301 -67 478 -100 50
-9 110 -20 135 -25 25 -5 88 -17 140 -25 52 -9 118 -20 145 -25 28 -6 113 -22
190 -36 145 -26 454 -84 585 -109 41 -8 127 -23 190 -35 180 -32 216 -39 355
-66 71 -14 130 -26 131 -27 3 -7 130 -523 210 -857 14 -58 59 -242 100 -410
41 -168 115 -471 165 -675 49 -203 95 -384 103 -400 8 -17 46 -75 85 -129 61
-85 85 -108 178 -175 l108 -78 175 -41 176 -40 176 42 177 43 102 74 c87 63
113 89 173 171 39 54 88 131 108 170 33 65 289 588 403 823 24 50 120 248 214
440 95 193 195 397 223 455 28 58 52 106 52 106 1 2 94 -11 186 -26 36 -6 83
-12 105 -15 37 -4 323 -43 575 -80 101 -14 319 -46 425 -61 28 -4 57 -8 65
-10 8 -1 42 -5 75 -9 33 -3 78 -10 101 -15 22 -5 69 -12 105 -15 35 -3 71 -8
80 -11 10 -2 30 -6 45 -9 246 -34 413 -58 474 -66 71 -10 84 -8 250 31 185 43
191 46 327 146 54 40 89 78 144 155 l72 101 42 178 42 178 -41 175 -41 175
-73 104 c-55 79 -120 149 -270 293 -187 181 -448 434 -683 665 -206 202 -674
656 -732 709 -36 34 -54 58 -49 65 5 6 17 31 26 56 10 25 30 74 46 110 15 36
56 130 90 210 34 80 71 163 81 185 24 52 86 196 114 265 13 30 44 102 70 160
26 58 64 146 85 195 21 50 70 164 110 255 195 449 199 458 240 634 l41 171
-42 179 -42 180 -74 102 c-65 89 -88 113 -181 180 l-107 78 -178 42 -178 41
-167 -39 c-165 -38 -337 -105 -487 -188 -27 -15 -93 -47 -145 -71 -52 -23
-169 -78 -260 -122 -91 -44 -205 -99 -255 -122 -49 -24 -178 -86 -285 -138
-107 -52 -224 -107 -259 -122 -35 -14 -74 -33 -85 -40 -18 -12 -346 -165 -353
-165 -3 0 -227 202 -254 229 -9 9 -46 43 -84 76 -174 153 -285 252 -340 304
-33 31 -96 88 -140 126 -81 71 -286 254 -295 264 -3 4 -43 40 -90 82 -47 41
-177 159 -290 260 -113 102 -252 218 -308 258 l-103 74 -177 41 -177 42 -177
-42z"/>
</g>
</svg>
